<svg width="64" height="64" viewBox="0 0 64 64" fill="none" xmlns="http://www.w3.org/2000/svg">
<path fill-rule="evenodd" clip-rule="evenodd" d="M34.1335 7.33923C20.8084 7.33923 10.0062 18.1414 10.0062 31.4665C10.0062 44.7916 20.8084 55.5937 34.1335 55.5937C47.4586 55.5937 58.2607 44.7916 58.2607 31.4665C58.2607 18.1414 47.4586 7.33923 34.1335 7.33923ZM8.1853 31.4665C8.1853 17.1357 19.8027 5.51831 34.1335 5.51831C48.4642 5.51831 60.0816 17.1357 60.0816 31.4665C60.0816 45.7972 48.4642 57.4146 34.1335 57.4146C19.8027 57.4146 8.1853 45.7972 8.1853 31.4665Z" fill="#13DA5A"/>
<path fill-rule="evenodd" clip-rule="evenodd" d="M34.3553 2.21102C34.3674 1.71432 34.7822 1.32145 35.2817 1.33352C36.7805 1.36976 38.2746 1.51484 39.7518 1.76758C40.2442 1.85183 40.5747 2.31707 40.49 2.80673C40.4053 3.29639 39.9374 3.62504 39.445 3.5408C38.0547 3.30292 36.6484 3.16637 35.2377 3.13226C34.7382 3.12018 34.3431 2.70773 34.3553 2.21102ZM31.8035 2.33474C31.8641 2.82792 31.5113 3.27664 31.0154 3.33699C30.3169 3.42198 29.6203 3.53245 28.9267 3.66854C28.2342 3.80444 27.5486 3.96513 26.8713 4.14995C26.3895 4.28143 25.8917 3.9996 25.7595 3.52046C25.6273 3.04132 25.9107 2.54631 26.3925 2.41483C27.1122 2.21844 27.8406 2.04771 28.5765 1.90331C29.3133 1.75872 30.0535 1.64135 30.7956 1.55105C31.2915 1.49069 31.7428 1.84157 31.8035 2.33474ZM42.9695 3.41922C43.125 2.94707 43.6361 2.68974 44.1109 2.84445C44.8214 3.07598 45.5248 3.33376 46.2195 3.61762C46.9124 3.90077 47.5928 4.20831 48.2597 4.53931C48.7067 4.76121 48.8882 5.30148 48.665 5.74603C48.4419 6.19057 47.8986 6.37106 47.4516 6.14915C46.8241 5.83771 46.1838 5.54832 45.5318 5.28186C44.878 5.01473 44.2161 4.77215 43.5475 4.55426C43.0727 4.39955 42.8139 3.89137 42.9695 3.41922ZM23.3582 4.36754C23.5592 4.82241 23.3514 5.3532 22.8939 5.55309C21.6038 6.11689 20.3575 6.77367 19.1652 7.51801C18.7421 7.78219 18.1837 7.65523 17.918 7.23444C17.6523 6.81364 17.78 6.25835 18.2032 5.99417C19.4704 5.20302 20.7949 4.50501 22.166 3.90586C22.6234 3.70597 23.1572 3.91267 23.3582 4.36754ZM50.8503 7.03743C51.1363 6.63005 51.7003 6.53039 52.11 6.81484C53.3365 7.66645 54.4978 8.6061 55.5845 9.62611C55.9479 9.96715 55.9644 10.5365 55.6214 10.8978C55.2785 11.2592 54.7059 11.2756 54.3426 10.9345C53.3204 9.97516 52.228 9.09125 51.0741 8.29008C50.6645 8.00563 50.5642 7.4448 50.8503 7.03743ZM15.8654 8.7355C16.1902 9.11304 16.1457 9.68093 15.7661 10.0039C15.2323 10.458 14.7144 10.9324 14.2136 11.4264C13.7147 11.9187 13.2355 12.4277 12.7767 12.9521C12.4488 13.327 11.8774 13.3666 11.5004 13.0405C11.1234 12.7145 11.0836 12.1462 11.4115 11.7713C11.8993 11.2136 12.4088 10.6724 12.9393 10.1491C13.4718 9.62385 14.0224 9.11949 14.5898 8.63673C14.9695 8.31374 15.5406 8.35795 15.8654 8.7355ZM57.3365 12.7636C57.7292 12.4564 58.298 12.5238 58.6069 12.9143C59.0682 13.4972 59.5086 14.098 59.9271 14.7158C60.2062 15.1279 60.0965 15.687 59.6821 15.9646C59.2677 16.2421 58.7055 16.1331 58.4264 15.721C58.0329 15.14 57.6187 14.5751 57.185 14.027C56.876 13.6365 56.9439 13.0709 57.3365 12.7636ZM9.98522 15.055C10.4063 15.3225 10.5296 15.8787 10.2607 16.2974C9.50559 17.4731 8.83932 18.702 8.26731 19.9741C8.06336 20.4277 7.52827 20.631 7.07215 20.4282C6.61603 20.2254 6.4116 19.6933 6.61555 19.2397C7.22402 17.8865 7.93272 16.5793 8.73581 15.3289C9.00476 14.9102 9.56414 14.7876 9.98522 15.055ZM6.21336 22.7944C6.69462 22.928 6.97588 23.4242 6.84158 23.9028C6.65365 24.5724 6.49032 25.2502 6.35225 25.935C6.21437 26.6188 6.10245 27.3057 6.01636 27.9944C5.95471 28.4874 5.50279 28.8374 5.00697 28.7761C4.51114 28.7148 4.15917 28.2654 4.22082 27.7724C4.31242 27.0397 4.4315 26.3088 4.57819 25.5813C4.72509 24.8527 4.89886 24.1316 5.0988 23.4191C5.2331 22.9406 5.73211 22.6609 6.21336 22.7944ZM4.88226 31.2817C5.38175 31.2694 5.79671 31.6621 5.80909 32.1588C5.84379 33.55 5.98233 34.9368 6.2236 36.308C6.30972 36.7974 5.98056 37.2636 5.48839 37.3492C4.99623 37.4348 4.52744 37.1075 4.44132 36.6181C4.18461 35.1592 4.0372 33.6836 4.00028 32.2034C3.9879 31.7067 4.38277 31.2941 4.88226 31.2817ZM6.10618 39.7815C6.58022 39.6245 7.0925 39.8794 7.25039 40.3508C7.47089 41.0091 7.71635 41.6608 7.98662 42.3045C8.25759 42.9499 8.55198 43.5835 8.8689 44.2044C9.09503 44.6475 8.91717 45.1889 8.47163 45.4138C8.02609 45.6387 7.48159 45.4618 7.25546 45.0188C6.91835 44.3583 6.6052 43.6843 6.31695 42.9978C6.02945 42.313 5.76832 41.6197 5.53374 40.9193C5.37585 40.4479 5.63214 39.9385 6.10618 39.7815ZM9.78343 47.5717C10.1908 47.2839 10.7555 47.379 11.0449 47.784C11.8576 48.9216 12.7542 49.9988 13.7274 51.0065C14.0735 51.3649 14.0619 51.9344 13.7015 52.2785C13.3411 52.6227 12.7684 52.6112 12.4223 52.2528C11.3876 51.1813 10.4341 50.0359 9.56984 48.8261C9.28048 48.421 9.37611 47.8594 9.78343 47.5717ZM15.5874 53.964C15.8932 53.571 16.4615 53.499 16.8566 53.8031C17.4102 54.2292 17.9808 54.6362 18.5676 55.0229C19.1562 55.411 19.7578 55.7764 20.3709 56.119C20.8065 56.3624 20.9612 56.9108 20.7164 57.344C20.4717 57.7771 19.9201 57.931 19.4846 57.6876C18.8329 57.3235 18.1936 56.9351 17.5679 56.5226C16.9443 56.1116 16.3377 55.679 15.7492 55.226C15.354 54.9219 15.2816 54.3569 15.5874 53.964ZM23.0273 58.4217C23.2058 57.9577 23.7288 57.7253 24.1955 57.9028C25.512 58.4035 26.8643 58.808 28.2412 59.1128C28.7289 59.2207 29.0362 59.7014 28.9277 60.1864C28.8191 60.6714 28.3357 60.977 27.848 60.869C26.3851 60.5452 24.9482 60.1155 23.5491 59.5834C23.0824 59.4059 22.8488 58.8858 23.0273 58.4217ZM31.4529 60.5556C31.4893 60.0601 31.9228 59.6877 32.4212 59.724C33.1224 59.775 33.8271 59.8007 34.5337 59.8007C35.0333 59.8007 35.4383 60.2034 35.4383 60.7003C35.4383 61.1971 35.0333 61.5999 34.5337 61.5999C33.783 61.5999 33.0343 61.5726 32.2892 61.5185C31.7909 61.4822 31.4165 61.0512 31.4529 60.5556Z" fill="#13DA5A"/>
<path d="M27.9587 35.4815H21.7097V34.1625L24.6496 31.7322C25.1155 31.3414 25.4714 30.9709 25.7175 30.6208C25.9724 30.2626 26.0998 29.8881 26.0998 29.4973V29.3385C26.0998 28.9233 25.9636 28.5976 25.6911 28.3615C25.4275 28.1254 25.0671 28.0073 24.6101 28.0073C24.3552 28.0073 24.1311 28.0439 23.9377 28.1172C23.7532 28.1824 23.5906 28.276 23.4499 28.3981C23.3093 28.5202 23.1907 28.6627 23.094 28.8256C23.0061 28.9884 22.9358 29.1634 22.883 29.3507L21.5779 28.8866C21.6746 28.6179 21.8064 28.3615 21.9734 28.1172C22.1404 27.8648 22.3513 27.6409 22.6062 27.4455C22.8611 27.2501 23.1599 27.0954 23.5027 26.9814C23.8542 26.8675 24.2629 26.8105 24.7287 26.8105C25.1946 26.8105 25.612 26.8756 25.9812 27.0059C26.3503 27.128 26.6579 27.303 26.904 27.531C27.1589 27.7508 27.3523 28.0155 27.4841 28.3248C27.6159 28.6342 27.6818 28.9721 27.6818 29.3385C27.6818 29.6804 27.6247 29.998 27.5105 30.2911C27.3962 30.5842 27.238 30.861 27.0359 31.1215C26.8337 31.3821 26.5964 31.6304 26.3239 31.8665C26.0603 32.1026 25.779 32.3428 25.4802 32.5871L23.3181 34.309H27.9587V35.4815Z" fill="white"/>
<path d="M33.4643 35.4815V33.8205H29.1928V32.6359L32.9237 26.957H34.8749V32.7336H36.1273V33.8205H34.8749V35.4815H33.4643ZM30.4584 32.7336H33.4643V28.2149H33.372L30.4584 32.7336Z" fill="white"/>
<path d="M36.7286 37.3256L40.3804 26.4441H41.6197L37.9679 37.3256H36.7286Z" fill="white"/>
<path d="M44.3881 35.4815L47.7235 28.0928H44.2431V29.6682H42.9643V26.957H49.2001V28.1539L45.957 35.4815H44.3881Z" fill="white"/>
<path fill-rule="evenodd" clip-rule="evenodd" d="M53.57 27.2987C53.0683 27.3932 52.7426 27.8546 52.8424 28.3294C53.5749 31.8149 53.1989 35.4276 51.762 38.7109C50.3251 41.9941 47.8918 44.8003 44.7698 46.7747C41.6478 48.749 37.9773 49.8028 34.2225 49.8028C33.711 49.8028 33.2964 50.1953 33.2964 50.6793C33.2964 51.1634 33.711 51.5558 34.2225 51.5558C38.3436 51.5558 42.3722 50.3992 45.7988 48.2322C49.2254 46.0652 51.8961 42.9852 53.4732 39.3817C55.0503 35.7781 55.4629 31.8129 54.6589 27.9874C54.5592 27.5126 54.0716 27.2043 53.57 27.2987Z" fill="#13DA5A"/>
</svg>
