<svg width="24" height="24" fill="none" xmlns="http://www.w3.org/2000/svg"><path d="M12.011 13.329c1.325 0 2.418-1.036 2.418-2.33 0-1.295-1.093-2.331-2.418-2.331-1.324 0-2.417 1.036-2.417 2.33.033 1.263 1.093 2.331 2.417 2.331zm0-4.014c.96 0 1.756.745 1.756 1.684 0 .938-.795 1.683-1.756 1.683-.96 0-1.755-.745-1.755-1.684 0-.938.795-1.683 1.755-1.683z" fill="#13DA5A"/><path fill-rule="evenodd" clip-rule="evenodd" d="M9.432 10.998c0-1.384 1.168-2.488 2.58-2.488 1.41 0 2.578 1.104 2.578 2.488 0 1.385-1.168 2.488-2.579 2.488-1.416 0-2.543-1.14-2.579-2.484v-.004zm.322-.002c.032 1.18 1.024 2.175 2.257 2.175 1.24 0 2.257-.968 2.257-2.173s-1.018-2.173-2.257-2.173c-1.238 0-2.255.967-2.257 2.171zm2.257-1.524c-.875 0-1.594.678-1.594 1.526s.719 1.526 1.594 1.526c.876 0 1.595-.678 1.595-1.526s-.719-1.526-1.595-1.526zm-1.916 1.526c0-1.03.87-1.84 1.916-1.84 1.046 0 1.917.81 1.917 1.84s-.871 1.84-1.917 1.84c-1.045 0-1.916-.81-1.916-1.84z" fill="#13DA5A"/><path d="M12.011 6.758c-2.948 0-5.365 2.363-5.365 5.244 0 2.913 2.417 5.243 5.365 5.243 2.948 0 5.366-2.363 5.366-5.244.033-2.88-2.385-5.243-5.366-5.243zm0 .647c2.584 0 4.704 2.072 4.704 4.596a4.57 4.57 0 01-1.06 2.914c-.53-.94-1.557-1.522-2.683-1.522h-1.954c-1.127 0-2.153.583-2.683 1.522a4.505 4.505 0 01-1.06-2.913c.033-2.525 2.153-4.597 4.736-4.597zM8.865 15.4a2.465 2.465 0 012.186-1.36h1.954c.96 0 1.788.55 2.186 1.36a4.731 4.731 0 01-3.147 1.198 4.753 4.753 0 01-3.18-1.198z" fill="#13DA5A"/><path fill-rule="evenodd" clip-rule="evenodd" d="M6.485 12.002c0-2.968 2.49-5.4 5.526-5.4 3.069 0 5.56 2.431 5.527 5.4 0 2.968-2.49 5.401-5.527 5.401-3.036 0-5.526-2.4-5.526-5.401zm5.526-5.086c-2.859 0-5.204 2.292-5.204 5.086 0 2.826 2.345 5.086 5.204 5.086 2.86 0 5.205-2.292 5.205-5.086V12c.032-2.791-2.312-5.084-5.205-5.084zm-4.575 5.087c0 .983.328 1.91.881 2.636.586-.872 1.6-1.402 2.7-1.402h1.955c1.1 0 2.112.529 2.698 1.399.556-.75.884-1.652.884-2.634 0-2.438-2.048-4.439-4.543-4.439-2.494 0-4.543 2-4.575 4.44zM7.114 12c.034-2.61 2.225-4.752 4.897-4.752 2.673 0 4.865 2.142 4.865 4.754a4.726 4.726 0 01-1.096 3.011l-.15.184-.116-.206c-.5-.887-1.473-1.44-2.542-1.44h-1.954c-1.07 0-2.042.553-2.542 1.44l-.114.202-.15-.177a4.66 4.66 0 01-1.098-3.014V12zm1.95 3.364a4.6 4.6 0 002.98 1.077 4.573 4.573 0 002.947-1.077 2.266 2.266 0 00-1.986-1.165h-1.954c-.823 0-1.594.466-1.986 1.165zm-.344-.031a2.627 2.627 0 012.33-1.45h1.955a2.59 2.59 0 012.331 1.45l.052.105-.088.079a4.894 4.894 0 01-3.256 1.239 4.916 4.916 0 01-3.288-1.24l-.088-.078.052-.105z" fill="#13DA5A"/><path d="M21.092 15.076a1.854 1.854 0 00-2.23.325l-1.38-.779a5.745 5.745 0 00.01-5.243l1.375-.776c.192.2.43.353.692.448a1.852 1.852 0 001.607-.171 1.79 1.79 0 00.578-.583 1.744 1.744 0 00-.357-2.237 1.827 1.827 0 00-.732-.383 1.838 1.838 0 00-1.379.177c-.353.2-.628.512-.778.884-.15.372-.167.782-.05 1.165l-1.367.771a6.056 6.056 0 00-2.016-1.838 6.212 6.212 0 00-2.638-.784V4.505c.434-.1.815-.351 1.072-.708a1.745 1.745 0 00-.278-2.347A1.842 1.842 0 0012.01 1c-.445 0-.875.16-1.208.45a1.745 1.745 0 00-.277 2.347c.256.357.638.609 1.072.708v1.547a6.213 6.213 0 00-2.638.783 6.056 6.056 0 00-2.017 1.837L5.577 7.9c.13-.42.098-.871-.09-1.27a1.81 1.81 0 00-.932-.888 1.868 1.868 0 00-1.3-.057 1.82 1.82 0 00-1.01.803c-.224.38-.298.826-.207 1.256.091.429.34.81.701 1.072a1.859 1.859 0 002.423-.214l1.37.774a5.746 5.746 0 00.007 5.244l-1.38.778a1.82 1.82 0 00-.692-.45 1.855 1.855 0 00-1.609.17 1.793 1.793 0 00-.579.584 1.746 1.746 0 00.356 2.24 1.853 1.853 0 001.687.383c.312-.084.596-.249.821-.476a1.76 1.76 0 00.46-.817c.076-.308.066-.63-.029-.933l1.38-.777a5.929 5.929 0 002.003 1.848c.806.456 1.71.72 2.639.775v1.554a1.827 1.827 0 00-.876.48c-.24.238-.406.536-.48.862-.074.325-.053.664.061.979.114.314.317.59.585.797a1.852 1.852 0 001.918.205c.306-.145.565-.372.746-.654.182-.283.277-.61.277-.943 0-.4-.14-.789-.395-1.102a1.824 1.824 0 00-1.008-.624v-1.554a6.083 6.083 0 002.64-.774 5.927 5.927 0 002.004-1.847l1.38.778c-.129.417-.097.866.09 1.26.188.395.518.709.927.882.408.173.868.193 1.29.056.424-.137.78-.42 1.003-.797.24-.409.305-.893.18-1.348a1.785 1.785 0 00-.846-1.079zm-1.401-8.52a1.007 1.007 0 011.096.07.967.967 0 01.334.455.945.945 0 01-.285 1.037.999.999 0 01-1.088.14.98.98 0 01-.546-.74.937.937 0 01.197-.715c.08-.101.179-.185.292-.248zM4.097 8.32a1 1 0 01-.75-.097.973.973 0 01-.43-.497.945.945 0 01-.011-.65.97.97 0 01.414-.51 1.007 1.007 0 011.244.16.95.95 0 01.081 1.223.99.99 0 01-.548.37zm.235 9.126a1.006 1.006 0 01-1.236-.2.959.959 0 01-.227-.825.956.956 0 01.185-.399 1.008 1.008 0 011.386-.18.962.962 0 01.352 1.018.97.97 0 01-.46.586zM11.024 2.78a.95.95 0 01.166-.536.984.984 0 01.444-.356 1.01 1.01 0 011.076.21.944.944 0 01.214 1.052.97.97 0 01-.363.433 1.004 1.004 0 01-1.247-.12.956.956 0 01-.29-.683zM9.456 16.53c0-.11.326.54.369.439.042-.102-.165.078-.085 0s.12.175.225.134c.104-.042.276.066.388.067l1.658.233 1.698-.626a.86.86 0 01.607.241c.08.078.142.17.185.272.042.102.063-.87.062-.76l.002-.026a4.99 4.99 0 01-.28.142c-.076.036-.152.074-.23.106a5.245 5.245 0 01-.475.162c-.059.018-.117.04-.177.056-.203.052-.41.093-.619.122-.02.003-.04.008-.06.01a5.59 5.59 0 01-1.428 0c-.012-.001-.023-.004-.034-.006a5.468 5.468 0 01-.646-.127c-.054-.015-.107-.035-.16-.05a5.245 5.245 0 01-.491-.168c-.077-.031-.15-.07-.225-.104a5.002 5.002 0 01-.282-.143l-.002.027zm3.542 4.694a.95.95 0 01-.166.537.984.984 0 01-.444.355 1.01 1.01 0 01-1.077-.209.946.946 0 01-.215-1.053.97.97 0 01.364-.433 1.005 1.005 0 011.248.12c.185.182.29.427.29.683zm2.395-5.269v.575c-.002-.436.316-.267 0-.575-.315-.308-1.219.822-1.665.822l-3.272.315c-.447 0-.357-.341-1.208-.77-.29-.277-.03.155-.29-.307l-.33-.06a5.15 5.15 0 01-1.715-2.617 5.05 5.05 0 01.133-3.105A5.177 5.177 0 018.98 7.766a5.366 5.366 0 013.032-.935c1.085 0 2.144.327 3.032.936a5.177 5.177 0 011.933 2.467 5.05 5.05 0 01.132 3.105 5.15 5.15 0 01-1.716 2.616zm5.647 1.142a.987.987 0 01-.6.45 1.01 1.01 0 01-.75-.097.981.981 0 01-.461-.586.945.945 0 01.099-.733.978.978 0 01.362-.353 1.008 1.008 0 01.988 0 .97.97 0 01.46.587.949.949 0 01-.098.732zM6.122 6.096a.399.399 0 01.153-.553l2.876-1.62a.421.421 0 01.567.148.399.399 0 01-.152.553l-2.877 1.62a.423.423 0 01-.567-.148zm11.77 11.812a.399.399 0 01-.152.553l-2.868 1.62a.423.423 0 01-.567-.148.397.397 0 01.152-.553l2.868-1.62a.42.42 0 01.566.148zm2.294-7.931a.423.423 0 01.293.118.405.405 0 01.121.287v3.24a.4.4 0 01-.121.287.42.42 0 01-.587 0 .4.4 0 01-.12-.287v-3.24a.397.397 0 01.12-.287.416.416 0 01.294-.118zm-16.35 4.05a.422.422 0 01-.293-.119.404.404 0 01-.12-.287l.008-3.24a.4.4 0 01.122-.286.42.42 0 01.676.133c.021.049.032.102.031.155l-.008 3.24a.4.4 0 01-.122.286.422.422 0 01-.294.118zm5.881 5.906a.408.408 0 01-.252.19.424.424 0 01-.314-.041l-2.868-1.62a.397.397 0 01-.152-.553.423.423 0 01.566-.149l2.869 1.62a.412.412 0 01.193.246.396.396 0 01-.042.307zM14.306 4.07a.407.407 0 01.252-.188.423.423 0 01.314.041l2.852 1.619a.411.411 0 01.227.36.393.393 0 01-.119.286.41.41 0 01-.291.119.452.452 0 01-.216-.055l-2.869-1.629a.41.41 0 01-.192-.246.394.394 0 01.042-.307z" fill="#13DA5A"/></svg>