<svg width="62" height="129" fill="none" xmlns="http://www.w3.org/2000/svg"><g clip-path="url(#clip0_9791_299169)"><path d="M30.233 8l-5.094 8.826h10.19L30.234 8zM21.895 22.331L16.8 31.157h10.191l-5.096-8.826zM38.571 22.331l-5.094 8.826h10.191l-5.097-8.826zM30.233 29.409l5.097-8.826H25.139l5.094 8.826zM38.571 43.74l5.097-8.826H33.477l5.094 8.826zM21.895 43.74l5.096-8.826h-10.19l5.094 8.826zM30.233 36.663l-5.094 8.826h10.19l-5.096-8.826zM13.556 36.663l-5.094 8.826h10.191l-5.097-8.826zM46.91 36.663l-5.094 8.826h10.19l-5.096-8.826z" stroke="#fff" stroke-width="1.303" stroke-miterlimit="10"/><path d="M12.336 51.644h3.422l5.438 12.867h-3.804l-.93-2.282h-4.928l-.912 2.282H6.898l5.438-12.867zm3.104 7.817l-1.425-3.619-1.441 3.632 2.866-.013zM22.468 51.735h3.56v12.768h-3.56V51.735zM28.565 51.735h6.554c1.605 0 2.736.401 3.484 1.15a2.824 2.824 0 01.823 2.1c0 1.477-.842 2.345-1.973 2.845 1.564.521 2.538 1.389 2.538 3.158 0 2.19-1.79 3.523-4.836 3.523h-6.59V51.735zm5.678 5.092c1.076 0 1.678-.365 1.678-1.15 0-.692-.547-1.094-1.605-1.094h-2.3v2.244h2.227zm.521 4.836c1.076 0 1.697-.42 1.697-1.204 0-.693-.548-1.149-1.733-1.149h-2.713v2.345l2.75.008zM41.143 58.122c0-3.721 2.867-6.642 6.736-6.642 2.606 0 4.235 1.13 5.366 2.702l-2.606 2.006c-.73-.912-1.587-1.477-2.81-1.477-1.79 0-3.048 1.514-3.048 3.41 0 1.898 1.259 3.414 3.049 3.414 1.331 0 2.116-.62 2.882-1.55l2.665 1.897c-1.204 1.663-2.83 2.885-5.657 2.885-3.637 0-6.577-2.794-6.577-6.645z" fill="#fff"/></g><path stroke="#fff" stroke-width=".728" d="M0 80.636h61.165"/><path d="M14.135 98.081c-.54 0-1.04-.088-1.5-.263a3.679 3.679 0 01-1.186-.76 3.672 3.672 0 01-.78-1.156 3.625 3.625 0 01-.284-1.45c0-.526.095-1.01.284-1.449.189-.439.452-.82.79-1.145a3.467 3.467 0 011.186-.76c.46-.182.96-.274 1.5-.274.548 0 1.05.095 1.51.284.467.183.862.456 1.186.821l-.659.639a2.574 2.574 0 00-.912-.629 2.772 2.772 0 00-1.084-.213c-.399 0-.77.068-1.115.203a2.61 2.61 0 00-1.47 1.44 2.843 2.843 0 00-.203 1.084c0 .392.068.757.203 1.094a2.638 2.638 0 001.47 1.43c.344.135.716.202 1.115.202.385 0 .746-.067 1.084-.203.338-.141.642-.358.912-.648l.66.638c-.325.365-.72.642-1.187.831-.46.19-.966.284-1.52.284zm3.95-.081v-7.095h2.766c.622 0 1.152.098 1.591.294.44.196.777.48 1.014.852.236.371.355.814.355 1.327 0 .514-.119.957-.355 1.328a2.275 2.275 0 01-1.014.841c-.439.196-.97.294-1.59.294h-2.21l.456-.466V98h-1.014zm4.742 0l-1.804-2.574h1.085L23.932 98h-1.104zm-3.73-2.524l-.455-.496h2.179c.648 0 1.138-.139 1.47-.416.337-.284.506-.679.506-1.186 0-.506-.169-.898-.507-1.175-.33-.277-.82-.416-1.47-.416h-2.178l.456-.507v4.196zM26.86 98v-2.716l.233.628-3.05-5.007h1.084l2.564 4.227h-.588l2.575-4.227h1.003l-3.04 5.007.223-.628V98h-1.004zm4.528 0v-7.095h2.767c.621 0 1.152.098 1.591.294.44.196.777.48 1.014.852.236.371.354.814.354 1.327 0 .514-.118.957-.354 1.328a2.34 2.34 0 01-1.014.852c-.439.195-.97.293-1.591.293h-2.21l.457-.476V98h-1.014zm1.014-2.524l-.457-.506h2.18c.648 0 1.138-.139 1.47-.416.337-.277.506-.669.506-1.176 0-.506-.169-.898-.507-1.175-.331-.277-.82-.416-1.47-.416h-2.178l.456-.507v4.196zM39.58 98v-6.213h-2.433v-.882h5.869v.882h-2.433V98h-1.003zm7.44.081c-.54 0-1.043-.091-1.51-.273a3.653 3.653 0 01-1.196-.76 3.59 3.59 0 01-.79-1.156 3.599 3.599 0 01-.284-1.44c0-.52.095-1 .284-1.439.19-.439.453-.82.79-1.145a3.57 3.57 0 011.196-.77c.46-.182.963-.274 1.51-.274.541 0 1.038.092 1.49.274.46.176.858.43 1.196.76.345.325.608.706.79 1.145.19.44.285.923.285 1.45 0 .527-.095 1.01-.284 1.45a3.39 3.39 0 01-.79 1.154 3.652 3.652 0 01-1.197.76c-.452.176-.949.264-1.49.264zm0-.902c.392 0 .754-.067 1.085-.203a2.56 2.56 0 001.45-1.439c.141-.33.212-.692.212-1.084 0-.392-.07-.754-.213-1.085a2.51 2.51 0 00-.577-.861 2.49 2.49 0 00-.872-.578 2.844 2.844 0 00-1.084-.203c-.4 0-.767.068-1.105.203a2.619 2.619 0 00-.872.578c-.25.243-.446.53-.588.861a2.843 2.843 0 00-.202 1.085c0 .392.067.753.202 1.084.142.331.338.622.588.872.25.243.54.432.872.567.338.136.706.203 1.105.203zM9.514 108v-6.213H7.081v-.882h5.868v.882h-2.432V108H9.513zm4.338 0v-7.095h2.766c.622 0 1.152.098 1.592.294.439.196.777.48 1.013.852.237.371.355.814.355 1.327 0 .514-.118.956-.355 1.328a2.275 2.275 0 01-1.013.841c-.44.196-.97.294-1.592.294h-2.21l.457-.466V108H13.85zm4.743 0l-1.804-2.574h1.084L19.698 108h-1.104zm-3.73-2.524l-.456-.496h2.179c.649 0 1.139-.139 1.47-.416.337-.284.506-.679.506-1.186 0-.506-.169-.898-.506-1.175-.331-.277-.821-.416-1.47-.416h-2.18l.457-.507v4.196zM19.937 108l3.213-7.095h1.004L27.376 108h-1.064l-2.868-6.527h.405L20.981 108h-1.044zm1.368-1.774l.274-.81h3.993l.294.81h-4.56zM28.232 108v-7.095h2.99c.757 0 1.422.149 1.997.446.58.298 1.03.713 1.347 1.247.325.534.487 1.152.487 1.855 0 .702-.162 1.321-.486 1.854a3.25 3.25 0 01-1.348 1.247c-.575.297-1.24.446-1.997.446h-2.99zm1.014-.882h1.915c.588 0 1.095-.111 1.52-.334a2.435 2.435 0 001.004-.933c.236-.405.354-.871.354-1.398 0-.534-.118-1-.354-1.399a2.432 2.432 0 00-1.004-.932c-.425-.223-.932-.335-1.52-.335h-1.915v5.331zm7.157.882v-7.095h1.013V108h-1.013zm2.935 0v-7.095h.83l4.693 5.828h-.436v-5.828h1.014V108h-.831l-4.693-5.828h.436V108h-1.013zm11.224.081a4.21 4.21 0 01-1.51-.263 3.653 3.653 0 01-1.196-.761 3.589 3.589 0 01-.79-1.155 3.623 3.623 0 01-.284-1.449c0-.527.095-1.01.284-1.45.189-.439.453-.821.79-1.145a3.557 3.557 0 011.206-.76c.46-.182.967-.274 1.52-.274.562 0 1.075.092 1.541.274.467.182.862.456 1.186.821l-.628.628a2.724 2.724 0 00-.953-.618 2.95 2.95 0 00-1.105-.203c-.405 0-.783.068-1.135.203a2.75 2.75 0 00-.902.568c-.25.243-.446.533-.588.871a2.846 2.846 0 00-.202 1.085c0 .385.067.746.202 1.084.142.331.338.622.588.872.257.243.558.432.902.567.345.136.72.203 1.125.203.379 0 .74-.057 1.085-.172a2.74 2.74 0 00.973-.598l.577.77a3.658 3.658 0 01-1.236.679c-.466.149-.95.223-1.45.223zm1.713-1.034v-2.635h.973v2.767l-.973-.132zM3.277 118v-7.095h2.767c.622 0 1.152.098 1.591.294.44.196.777.48 1.014.852.236.371.354.814.354 1.327 0 .514-.118.956-.354 1.328a2.334 2.334 0 01-1.014.851c-.439.196-.97.294-1.591.294h-2.21l.457-.476V118H3.277zm1.014-2.524l-.457-.506h2.18c.648 0 1.138-.139 1.47-.416.337-.277.506-.669.506-1.176 0-.506-.169-.898-.507-1.175-.33-.277-.82-.416-1.47-.416H3.835l.457-.507v4.196zM10.29 118v-7.095h1.013v6.213h3.841V118H10.29zm4.74 0l3.213-7.095h1.004L22.47 118h-1.065l-2.868-6.527h.406L16.074 118H15.03zm1.369-1.774l.273-.81h3.994l.293.81H16.4zM24.378 118v-6.213h-2.433v-.882h5.869v.882H25.38V118h-1.003zm5.249-3.74h3.659v.872h-3.66v-.872zm.101 3.74h-1.013v-7.095h5.006v.882h-3.993V118zm8.34.081c-.54 0-1.043-.091-1.51-.274a3.633 3.633 0 01-1.195-.76 3.59 3.59 0 01-.79-1.155 3.598 3.598 0 01-.285-1.439c0-.521.095-1 .284-1.439.19-.44.453-.821.79-1.146a3.563 3.563 0 011.197-.77c.46-.182.963-.274 1.51-.274.54 0 1.037.092 1.49.274.46.176.858.429 1.196.76.344.324.608.706.79 1.145.19.44.284.923.284 1.45 0 .527-.095 1.01-.284 1.449a3.39 3.39 0 01-.79 1.155 3.653 3.653 0 01-1.196.761c-.453.175-.95.263-1.49.263zm0-.902c.393 0 .754-.067 1.085-.203a2.562 2.562 0 001.45-1.439c.142-.331.213-.692.213-1.084 0-.392-.071-.754-.213-1.085a2.508 2.508 0 00-.578-.861 2.489 2.489 0 00-.872-.578 2.846 2.846 0 00-1.084-.203 2.95 2.95 0 00-1.105.203 2.618 2.618 0 00-.871.578c-.25.243-.446.53-.588.861a2.846 2.846 0 00-.203 1.085c0 .392.068.753.203 1.084.142.331.338.622.588.872.25.243.54.432.871.567a2.93 2.93 0 001.105.203zm5.108.821v-7.095h2.766c.622 0 1.152.098 1.592.294.439.196.777.48 1.013.852.237.371.355.814.355 1.327 0 .514-.118.956-.355 1.328a2.275 2.275 0 01-1.013.841c-.44.196-.97.294-1.592.294h-2.21l.457-.466V118h-1.014zm4.743 0l-1.804-2.574h1.084L49.023 118H47.92zm-3.73-2.524l-.456-.496h2.179c.649 0 1.139-.139 1.47-.416.337-.284.506-.679.506-1.186 0-.506-.169-.898-.506-1.175-.331-.277-.821-.416-1.47-.416h-2.18l.457-.507v4.196zM50.337 118v-7.095h.83l3.183 5.362h-.446l3.142-5.362h.831l.01 7.095h-.973l-.01-5.564h.233l-2.797 4.703h-.466l-2.818-4.703h.254V118h-.973zm-30.243 10v-1.064l2.736-2.585c.217-.196.375-.371.477-.527.101-.155.169-.297.202-.425.04-.129.061-.247.061-.355 0-.284-.098-.5-.294-.649-.189-.155-.47-.233-.841-.233-.297 0-.574.058-.831.172-.25.115-.463.294-.639.538l-1.195-.771c.27-.405.648-.726 1.135-.962.486-.237 1.047-.355 1.682-.355.527 0 .986.088 1.378.263.4.169.707.409.923.72.223.311.334.682.334 1.115 0 .23-.03.459-.091.689a2.13 2.13 0 01-.345.709c-.169.25-.419.531-.75.842l-2.27 2.138-.314-.598h4.003V128h-5.361zm8.877.122a2.907 2.907 0 01-1.561-.426c-.46-.291-.821-.709-1.085-1.257-.263-.547-.395-1.209-.395-1.986 0-.777.132-1.439.395-1.987.264-.547.625-.963 1.085-1.246.46-.291.98-.436 1.56-.436.588 0 1.109.145 1.561.436.46.283.821.699 1.085 1.246.263.548.395 1.21.395 1.987 0 .777-.132 1.439-.395 1.986-.264.548-.625.966-1.085 1.257-.452.284-.973.426-1.56.426zm0-1.389c.277 0 .517-.078.72-.233.209-.155.37-.402.486-.74.121-.338.182-.773.182-1.307 0-.534-.06-.97-.182-1.308-.115-.338-.277-.584-.487-.74a1.15 1.15 0 00-.72-.233c-.27 0-.51.078-.719.233-.203.156-.365.402-.486.74-.115.338-.173.774-.173 1.308s.058.969.173 1.307c.121.338.283.585.486.74.21.155.45.233.72.233zM32.506 128v-1.064l2.736-2.585c.217-.196.375-.371.477-.527.101-.155.169-.297.202-.425.04-.129.061-.247.061-.355 0-.284-.098-.5-.294-.649-.189-.155-.47-.233-.841-.233-.297 0-.574.058-.831.172-.25.115-.463.294-.639.538l-1.196-.771c.27-.405.65-.726 1.136-.962.486-.237 1.047-.355 1.682-.355.527 0 .986.088 1.378.263.399.169.706.409.923.72.223.311.334.682.334 1.115 0 .23-.03.459-.091.689a2.128 2.128 0 01-.345.709c-.169.25-.419.531-.75.842l-2.27 2.138-.314-.598h4.003V128h-5.361zm5.775 0v-1.064l2.737-2.585c.216-.196.375-.371.476-.527.101-.155.169-.297.203-.425.04-.129.06-.247.06-.355 0-.284-.097-.5-.293-.649-.19-.155-.47-.233-.842-.233-.297 0-.574.058-.83.172-.25.115-.464.294-.64.538l-1.195-.771c.27-.405.648-.726 1.135-.962.486-.237 1.047-.355 1.683-.355.526 0 .986.088 1.378.263.398.169.706.409.922.72.223.311.335.682.335 1.115 0 .23-.03.459-.092.689a2.13 2.13 0 01-.344.709c-.17.25-.42.531-.75.842l-2.27 2.138-.315-.598h4.004V128H38.28z" fill="#fff"/><defs><clipPath id="clip0_9791_299169"><path fill="#fff" transform="translate(7.083)" d="M0 0h47v73H0z"/></clipPath></defs></svg>