<svg width="64" height="64" viewBox="0 0 64 64" fill="none" xmlns="http://www.w3.org/2000/svg">
<path d="M35.1999 40.3999C35.1999 41.5045 34.3045 42.3999 33.2 42.3999C32.0954 42.3999 31.2 41.5045 31.2 40.3999C31.2 39.2953 32.0954 38.3999 33.2 38.3999C34.3045 38.3999 35.1999 39.2953 35.1999 40.3999Z" fill="white"/>
<path fill-rule="evenodd" clip-rule="evenodd" d="M6.39995 3.9999C5.5163 3.9999 4.79995 4.71625 4.79995 5.5999V24.7999C4.79995 25.2417 4.44178 25.5999 3.99995 25.5999C3.55812 25.5999 3.19995 25.2417 3.19995 24.7999V5.5999C3.19995 3.83259 4.63264 2.3999 6.39995 2.3999H58.3999C60.1673 2.3999 61.5999 3.83259 61.5999 5.5999V31.9999C61.5999 32.4417 61.2418 32.7999 60.7999 32.7999C60.3581 32.7999 59.9999 32.4417 59.9999 31.9999V5.5999C59.9999 4.71625 59.2836 3.9999 58.3999 3.9999H6.39995Z" fill="#13DA5A"/>
<path fill-rule="evenodd" clip-rule="evenodd" d="M45.8344 8.23431C46.1468 7.9219 46.6534 7.9219 46.9658 8.23431L55.7658 17.0343C56.0782 17.3467 56.0782 17.8533 55.7658 18.1657C55.4534 18.4781 54.9468 18.4781 54.6344 18.1657L45.8344 9.36569C45.522 9.05327 45.522 8.54673 45.8344 8.23431Z" fill="white"/>
<path fill-rule="evenodd" clip-rule="evenodd" d="M51.4343 8.23431C51.7467 7.9219 52.2532 7.9219 52.5656 8.23431L55.7656 11.4343C56.0781 11.7467 56.0781 12.2533 55.7656 12.5657C55.4532 12.8781 54.9467 12.8781 54.6343 12.5657L51.4343 9.36569C51.1218 9.05327 51.1218 8.54673 51.4343 8.23431Z" fill="white"/>
<path fill-rule="evenodd" clip-rule="evenodd" d="M31.2 35.1999C31.2 34.7581 31.5581 34.3999 32 34.3999H45.6C46.0418 34.3999 46.4 34.7581 46.4 35.1999C46.4 35.6417 46.0418 35.9999 45.6 35.9999H32C31.5581 35.9999 31.2 35.6417 31.2 35.1999Z" fill="#13DA5A"/>
<path fill-rule="evenodd" clip-rule="evenodd" d="M31.2 45.6001C31.2 45.1582 31.5581 44.8 32 44.8H45.6C46.0418 44.8 46.4 45.1582 46.4 45.6001C46.4 46.0419 46.0418 46.4001 45.6 46.4001H32C31.5581 46.4001 31.2 46.0419 31.2 45.6001Z" fill="#13DA5A"/>
<path fill-rule="evenodd" clip-rule="evenodd" d="M31.2 56C31.2 55.5581 31.5581 55.2 32 55.2H33.6C34.0418 55.2 34.4 55.5581 34.4 56C34.4 56.4418 34.0418 56.7999 33.6 56.7999H32C31.5581 56.7999 31.2 56.4418 31.2 56Z" fill="#13DA5A"/>
<path fill-rule="evenodd" clip-rule="evenodd" d="M37.7599 48C38.2018 48 38.5599 48.3582 38.5599 48.8V54.9517H40.7151C43.4129 54.9517 45.5999 57.1388 45.5999 59.8366C45.5999 60.3687 45.1686 60.8 44.6365 60.8H32C31.5581 60.8 31.2 60.4418 31.2 60C31.2 59.5582 31.5581 59.2 32 59.2H43.9383C43.6419 57.6905 42.3115 56.5517 40.7151 56.5517H38.0307C37.4393 56.5517 36.9599 56.0723 36.9599 55.481V48.8C36.9599 48.3582 37.3181 48 37.7599 48Z" fill="#13DA5A"/>
<path fill-rule="evenodd" clip-rule="evenodd" d="M27.1999 30.4H4.79995V59.2H27.1999V30.4ZM4.79995 28.8C3.9163 28.8 3.19995 29.5164 3.19995 30.4V59.2C3.19995 60.0837 3.9163 60.8 4.79995 60.8H27.1999C28.0836 60.8 28.7999 60.0837 28.7999 59.2V30.4C28.7999 29.5164 28.0836 28.8 27.1999 28.8H4.79995Z" fill="#13DA5A"/>
<path fill-rule="evenodd" clip-rule="evenodd" d="M60 36.8H49.6L49.6 59.1999H60V36.8ZM49.6 35.2C48.7163 35.2 48 35.9163 48 36.8V59.1999C48 60.0836 48.7163 60.7999 49.6 60.7999H60C60.8837 60.7999 61.6 60.0836 61.6 59.1999V36.8C61.6 35.9163 60.8837 35.2 60 35.2H49.6Z" fill="#13DA5A"/>
</svg>
