<svg width="20" height="20" viewBox="0 0 20 20" fill="none" xmlns="http://www.w3.org/2000/svg">
<g clip-path="url(#clip0)">
<path d="M12.0884 20C12.7571 20 13.3403 19.4169 13.3403 18.7481V15.8245H14.1762C14.6778 15.8245 15.012 15.4901 15.012 14.9886V6.63818H4.98926V14.9887C4.98926 15.4902 5.32362 15.8245 5.82515 15.8245H6.66111V18.7482C6.66111 19.4169 7.24414 20.0001 7.91299 20.0001C8.58163 20.0001 9.16472 19.4169 9.16472 18.7482V15.8245H10.8366V18.7482C10.8365 19.4169 11.4197 20 12.0884 20Z" fill="#13DA5A"/>
<path d="M17.0995 14.9887C17.7682 14.9887 18.3513 14.4056 18.3513 13.7368V7.88952C18.3513 7.22434 17.7682 6.63818 17.0995 6.63818C16.4307 6.63818 15.8477 7.22434 15.8477 7.88952V13.7368C15.8477 14.4055 16.4307 14.9887 17.0995 14.9887Z" fill="#13DA5A"/>
<path d="M2.90115 14.9887C3.56993 14.9887 4.15302 14.4056 4.15302 13.7368V7.88952C4.15302 7.22434 3.57 6.63818 2.90115 6.63818C2.23244 6.63818 1.64941 7.22434 1.64941 7.88952V13.7368C1.64941 14.4055 2.23244 14.9887 2.90115 14.9887Z" fill="#13DA5A"/>
<path d="M14.0089 0.126135C13.8418 -0.042045 13.593 -0.042045 13.4259 0.126135L12.3048 1.24353L12.253 1.29519C11.5883 0.962296 10.8429 0.796052 10.0129 0.79445C10.0088 0.79445 10.0048 0.794317 10.0008 0.794317H10.0006C9.99642 0.794317 9.99254 0.79445 9.98834 0.79445C9.15838 0.796052 8.41305 0.962296 7.74834 1.29519L7.69649 1.24353L6.57542 0.126135C6.40818 -0.042045 6.15951 -0.042045 5.9924 0.126135C5.82515 0.293381 5.82515 0.54158 5.9924 0.708692L7.07689 1.79339C6.72745 2.0267 6.41058 2.31221 6.13502 2.63876C5.47531 3.42073 5.05453 4.43842 4.99667 5.54106C4.99613 5.55254 4.995 5.56389 4.99446 5.57537C4.99093 5.65045 4.98926 5.72593 4.98926 5.80167H15.012C15.012 5.72593 15.0102 5.65045 15.0068 5.57537C15.0063 5.56389 15.0052 5.55254 15.0045 5.54106C14.9468 4.43842 14.5259 3.42066 13.8662 2.63882C13.5907 2.31227 13.2737 2.02677 12.9243 1.79345L14.0089 0.708758C14.1762 0.54158 14.1762 0.293381 14.0089 0.126135ZM7.91138 4.34218C7.56555 4.34218 7.28518 4.06181 7.28518 3.71598C7.28518 3.37014 7.56555 3.08977 7.91138 3.08977C8.25722 3.08977 8.53759 3.37014 8.53759 3.71598C8.53759 4.06181 8.25722 4.34218 7.91138 4.34218ZM12.0899 4.34218C11.7441 4.34218 11.4637 4.06181 11.4637 3.71598C11.4637 3.37014 11.7441 3.08977 12.0899 3.08977C12.4358 3.08977 12.7161 3.37014 12.7161 3.71598C12.7161 4.06181 12.4358 4.34218 12.0899 4.34218Z" fill="#13DA5A"/>
</g>
<defs>
<clipPath id="clip0">
<rect width="20" height="20" fill="white"/>
</clipPath>
</defs>
</svg>
