<svg width="24" height="24" viewBox="0 0 24 24" fill="none" xmlns="http://www.w3.org/2000/svg">
<path d="M12.0492 6.18461C13.0242 6.18461 14.2463 5.52549 14.9741 4.64666C15.6332 3.85022 16.1138 2.73795 16.1138 1.62568C16.1138 1.47463 16.1001 1.32358 16.0726 1.2C14.9878 1.24119 13.6833 1.92778 12.9006 2.8478C12.2826 3.54812 11.7196 4.64666 11.7196 5.77266C11.7196 5.93744 11.7471 6.10222 11.7608 6.15715C11.8295 6.17088 11.9394 6.18461 12.0492 6.18461ZM8.61627 22.8C9.94825 22.8 10.5387 21.9074 12.2003 21.9074C13.8893 21.9074 14.26 22.7725 15.743 22.7725C17.1986 22.7725 18.1736 21.4268 19.0936 20.1086C20.1235 18.5981 20.5491 17.1151 20.5766 17.0464C20.4805 17.0189 17.6929 15.8792 17.6929 12.6797C17.6929 9.90591 19.89 8.65632 20.0136 8.5602C18.558 6.47298 16.3472 6.41805 15.743 6.41805C14.109 6.41805 12.777 7.40673 11.9394 7.40673C11.0331 7.40673 9.8384 6.47298 8.42403 6.47298C5.73261 6.47298 3 8.69752 3 12.8994C3 15.5084 4.01615 18.2685 5.26573 20.0537C6.33681 21.5641 7.27057 22.8 8.61627 22.8Z" fill="#13DA5A"/>
</svg>
