<svg width="16" height="19" viewBox="0 0 16 19" fill="none" xmlns="http://www.w3.org/2000/svg">
<path d="M7.95995 4.38461C8.81755 4.38461 9.89256 3.80483 10.5327 3.03179C11.1125 2.33121 11.5353 1.35283 11.5353 0.374444C11.5353 0.241577 11.5232 0.108709 11.499 0C10.5448 0.0362365 9.39733 0.640178 8.70884 1.44946C8.16529 2.06548 7.67006 3.03179 7.67006 4.02225C7.67006 4.1672 7.69422 4.31214 7.70629 4.36046C7.76669 4.37254 7.86332 4.38461 7.95995 4.38461ZM4.94024 19C6.11189 19 6.63128 18.2149 8.09282 18.2149C9.57851 18.2149 9.90464 18.9758 11.2092 18.9758C12.4895 18.9758 13.3471 17.7921 14.1564 16.6325C15.0623 15.3039 15.4367 13.9994 15.4609 13.939C15.3764 13.9148 12.9243 12.9123 12.9243 10.0979C12.9243 7.65798 14.857 6.5588 14.9657 6.47425C13.6853 4.63827 11.7406 4.58996 11.2092 4.58996C9.77177 4.58996 8.60013 5.45963 7.86332 5.45963C7.06612 5.45963 6.01526 4.63827 4.77114 4.63827C2.40369 4.63827 0 6.59504 0 10.2912C0 12.5861 0.893833 15.014 1.99301 16.5842C2.93516 17.9129 3.75652 19 4.94024 19Z" fill="#60F495"/>
</svg>
