<svg width="24" height="24" viewBox="0 0 24 24" fill="none" xmlns="http://www.w3.org/2000/svg">
<circle cx="12" cy="12" r="12" fill="#F5B300"/>
<path fill-rule="evenodd" clip-rule="evenodd" d="M10.7903 6.40909C10.7513 6.52446 10.7122 6.56292 10.5951 6.52446C10.0378 6.37483 9.47326 6.24625 8.90927 6.11779L8.90925 6.11779C8.64 6.05646 8.37087 5.99517 8.10273 5.93162C8.04415 6.14312 7.99349 6.3394 7.94283 6.53567L7.94282 6.5357C7.89216 6.73198 7.8415 6.92826 7.78292 7.13977C7.74386 7.21668 7.78292 7.25514 7.86103 7.25514C7.92232 7.27022 7.98511 7.28531 8.04911 7.30069C8.31139 7.3637 8.59396 7.43159 8.87653 7.52433C9.22804 7.6397 9.42333 7.98581 9.34522 8.29347C8.87653 10.2932 8.36878 12.2545 7.86103 14.2158C7.82198 14.485 7.58763 14.6388 7.27517 14.5619C7.00177 14.5234 6.68931 14.4465 6.41591 14.3696C6.29874 14.3696 6.25968 14.3696 6.22062 14.485C6.10345 14.7926 5.94722 15.1387 5.79099 15.4848C5.75193 15.5618 5.72264 15.6291 5.69335 15.6964C5.66405 15.7637 5.63476 15.831 5.5957 15.9079C6.53297 16.1386 7.4312 16.3693 8.32942 16.6L8.32943 16.6L8.32946 16.6L8.32972 16.6001C8.32972 16.6451 8.31632 16.677 8.30522 16.7034C8.29737 16.722 8.29067 16.738 8.29067 16.7539C8.09538 17.3692 7.93915 18.023 7.78292 18.6767C7.74386 18.7536 7.74386 18.7921 7.86103 18.8306C8.25161 18.9075 8.64218 18.9844 9.03276 19.0998C9.13599 19.1336 9.14827 19.1078 9.17644 19.0486C9.18025 19.0406 9.18434 19.032 9.18899 19.0228C9.22804 18.8498 9.27687 18.6767 9.32569 18.5037C9.37451 18.3306 9.42333 18.1576 9.46239 17.9845C9.50145 17.8115 9.55027 17.6384 9.59909 17.4654C9.64791 17.2923 9.69673 17.1192 9.73579 16.9462C10.0873 17.0231 10.3997 17.1 10.7121 17.1769L10.7122 17.1769C10.7685 17.2046 10.764 17.2324 10.757 17.2745C10.7543 17.2908 10.7513 17.3093 10.7513 17.3308C10.556 17.9461 10.3998 18.5998 10.2435 19.2536C10.2045 19.3305 10.2045 19.369 10.3217 19.4074C10.4974 19.4459 10.6829 19.4939 10.8685 19.542C11.054 19.5901 11.2395 19.6382 11.4153 19.6766C11.6021 19.7502 11.6102 19.7182 11.6448 19.5805L11.6496 19.5612C11.7277 19.2536 11.8058 18.9364 11.8839 18.6191L11.884 18.619C11.9621 18.3018 12.0402 17.9845 12.1183 17.6769C12.1574 17.5615 12.2355 17.523 12.3526 17.5615C13.1338 17.6769 13.9149 17.7538 14.7351 17.6384C15.3601 17.5615 15.9069 17.2923 16.3365 16.7924C16.688 16.3693 16.8833 15.9079 17.0395 15.3695C17.1567 14.9464 17.1958 14.485 17.1176 14.0619C16.9614 13.5236 16.649 13.1005 16.1803 12.7544C16.1022 12.6967 16.024 12.6487 15.9459 12.6006C15.8678 12.5525 15.7897 12.5045 15.7116 12.4468C15.7573 12.4468 15.7897 12.4336 15.8165 12.4226C15.8355 12.4149 15.8516 12.4083 15.8678 12.4083C16.1803 12.2929 16.4927 12.1391 16.7271 11.9084C17.0395 11.6007 17.1958 11.2162 17.3129 10.7931C17.4692 10.1778 17.4301 9.56253 17.0786 8.98568C16.8052 8.60112 16.4537 8.29347 16.0631 8.06273L14.7742 7.48588C14.657 7.44742 14.618 7.40896 14.657 7.2936C14.7351 7.10131 14.7742 6.90903 14.8133 6.71675C14.9304 6.25527 15.0476 5.79379 15.1648 5.29385C15.1452 5.29385 15.1355 5.28424 15.1257 5.27463C15.116 5.26501 15.1062 5.2554 15.0867 5.2554C14.9016 5.20569 14.7237 5.16313 14.55 5.12155C14.3205 5.06662 14.0982 5.01341 13.8759 4.94775C13.7978 4.90929 13.7587 4.94775 13.7587 5.02466L13.6415 5.48614C13.4853 5.98607 13.3681 6.44755 13.251 6.94749C13.2379 6.9603 13.2249 6.9774 13.2119 6.99449C13.1859 7.02867 13.1598 7.06286 13.1338 7.06286C12.9776 7.0244 12.8116 6.98594 12.6456 6.94749C12.4796 6.90903 12.3136 6.87057 12.1574 6.83212C12.1964 6.7552 12.1964 6.71675 12.1964 6.67829C12.2745 6.37064 12.3526 6.05337 12.4308 5.7361C12.5089 5.41884 12.587 5.10157 12.6651 4.79392C12.7042 4.71701 12.7042 4.67855 12.587 4.64009C12.1964 4.56318 11.8449 4.48627 11.4543 4.3709C11.3371 4.33244 11.2981 4.3709 11.259 4.48627C11.1809 4.81314 11.1028 5.13041 11.0247 5.44767L11.0247 5.4477C10.9466 5.76496 10.8685 6.08222 10.7903 6.40909ZM10.0092 15.331C10.0483 15.331 10.0873 15.3695 10.0873 15.3695C10.1852 15.3936 10.284 15.4186 10.3836 15.4438L10.3837 15.4439C10.9202 15.5798 11.4802 15.7216 12.0402 15.7541C12.5089 15.7925 12.9385 15.7925 13.3681 15.6387C14.1102 15.4079 14.4227 14.4465 13.9931 13.8312C13.7978 13.5236 13.4853 13.3313 13.1729 13.139C12.4905 12.7657 11.6977 12.6099 10.9374 12.4604L10.8685 12.4468C10.7617 12.4117 10.7522 12.4406 10.7218 12.5333L10.7122 12.5622C10.6732 12.7544 10.6244 12.9371 10.5755 13.1198L10.5755 13.1198C10.5267 13.3025 10.4779 13.4851 10.4388 13.6774C10.3498 13.9842 10.2735 14.2909 10.1954 14.6048L10.1954 14.6049C10.1364 14.8418 10.0764 15.0829 10.0092 15.331ZM13.7196 11.4085C13.5634 11.4469 13.3681 11.4854 13.29 11.4854C12.8367 11.4854 12.4451 11.4247 12.0406 11.362C11.8874 11.3382 11.7324 11.3142 11.5715 11.2931C11.4934 11.2739 11.425 11.2546 11.3567 11.2354C11.2883 11.2162 11.22 11.197 11.1418 11.1777C11.0637 11.1393 11.0247 11.1008 11.0637 11.0239C11.2981 10.2163 11.4934 9.44718 11.6886 8.63959C11.7277 8.52422 11.7668 8.48577 11.8839 8.52422C12.0002 8.55477 12.115 8.58379 12.2286 8.6125C12.6869 8.72841 13.1252 8.83923 13.5634 9.02416C13.9149 9.17799 14.2664 9.40872 14.4617 9.75483C14.8523 10.4086 14.4617 11.2546 13.7196 11.4085Z" fill="white"/>
</svg>
