<svg width="40" height="40" viewBox="0 0 40 40" fill="none" xmlns="http://www.w3.org/2000/svg">
<circle cx="20" cy="20" r="20" fill="white"/>
<path d="M19.6074 5.08878C20.3048 4.71978 21.1562 5.57579 20.7856 6.28277C20.5704 6.85907 19.7544 7.01231 19.3376 6.57303C18.896 6.15144 19.04 5.31816 19.6074 5.08878ZM12.1058 5.90923C12.5295 5.73228 13.0658 6.12611 13.0226 6.59462C13.0676 7.10322 12.4546 7.47757 12.0228 7.23585C11.4506 7.01102 11.516 6.06865 12.1058 5.90923ZM27.4699 7.25014C26.8079 7.16897 26.7031 6.1128 27.3405 5.90014C27.8349 5.6555 28.2885 6.11426 28.3608 6.58975C28.2572 6.99576 27.9221 7.36751 27.4699 7.25014ZM13.8127 9.14868C14.521 8.69413 15.5317 9.37108 15.4228 10.2058C15.386 11.0487 14.2826 11.537 13.66 10.9672C13.0581 10.5196 13.1493 9.49283 13.8127 9.14868ZM24.6256 9.63098C24.9416 8.80468 26.2221 8.77968 26.5818 9.58407C26.9373 10.21 26.5 10.9852 25.8666 11.198C25.0275 11.357 24.2306 10.4367 24.6256 9.63098ZM18.704 11.1511C18.6972 10.4409 19.3348 9.91167 20 9.86329C20.4413 9.95306 20.9223 10.1438 21.1115 10.5956C21.4643 11.2188 21.1511 12.0769 20.5136 12.363C20.2221 12.5287 19.8775 12.4665 19.56 12.4472C19.0747 12.2055 18.6661 11.7315 18.704 11.1511ZM7.54803 12.186C8.19507 11.7824 9.06803 12.519 8.82307 13.2321C8.68819 13.849 7.87091 14.1 7.40371 13.7061C6.90499 13.3372 6.98403 12.45 7.54803 12.186ZM31.504 12.1847C32.053 11.7522 32.9589 12.2484 32.8935 12.9516C32.9303 13.5928 32.1471 14.0764 31.6021 13.7462C31.0019 13.4725 30.9407 12.5357 31.504 12.1847ZM21.8413 13.4615C22.7472 13.1313 23.8232 13.5264 24.3396 14.3459C25.0207 15.3477 24.6583 16.8734 23.6013 17.4482C22.5061 18.1281 20.9069 17.5518 20.5024 16.3109C20.0432 15.2 20.7122 13.8097 21.8413 13.4615ZM16.5261 13.5708C17.5301 13.0899 18.8813 13.4933 19.3663 14.5354C19.937 15.5497 19.4957 16.962 18.4754 17.4857C17.4538 18.0743 16.0125 17.6281 15.5181 16.5391C14.9637 15.486 15.456 14.0557 16.5261 13.5708ZM11.204 15.4169C11.2804 14.7605 11.8906 14.3334 12.5063 14.2893C13.1696 14.3704 13.6996 14.8932 13.7717 15.5743C13.7282 16.2487 13.2146 16.9078 12.5103 16.9037C11.7354 16.9714 11.056 16.1893 11.204 15.4169ZM26.9237 14.432C27.7192 13.9622 28.8239 14.6461 28.7885 15.5734C28.8431 16.5558 27.6205 17.2482 26.8284 16.6719C26.0055 16.192 26.0696 14.8406 26.9237 14.432ZM14.3631 17.8946C15.2935 17.6349 16.3573 18.0798 16.8136 18.9475C17.3135 19.8209 17.1091 21.0342 16.3328 21.6748C15.3372 22.6144 13.5008 22.2372 12.9709 20.9548C12.362 19.7794 13.1016 18.204 14.3631 17.8946ZM24.4445 17.8898C25.349 17.6273 26.4115 17.981 26.8978 18.817C27.5407 19.7732 27.2338 21.1993 26.2767 21.8157C25.2741 22.5315 23.7211 22.1557 23.1695 21.0365C22.5007 19.8789 23.1736 18.2428 24.4445 17.8898ZM8.37891 18.9807C9.18259 18.6722 10.0735 19.5721 9.74787 20.3805C9.54899 21.117 8.52595 21.3893 7.99747 20.8462C7.37907 20.3363 7.60803 19.2018 8.37891 18.9807ZM30.1629 20.1539C30.1397 19.4782 30.6269 18.8798 31.3098 18.8425C31.8602 18.931 32.3954 19.3815 32.3519 19.9894C32.4023 20.7923 31.4487 21.3381 30.7744 20.9609C30.4584 20.7979 30.2964 20.469 30.1629 20.1539ZM4.42723 19.3773C4.91075 19.1631 5.50883 19.5883 5.39843 20.1331C5.37251 20.75 4.47491 20.9872 4.14515 20.4717C3.85379 20.1138 4.02819 19.5618 4.42723 19.3773ZM34.9141 19.3649C35.2546 19.119 35.8008 19.2958 35.9357 19.6993C36.1645 20.1401 35.745 20.744 35.256 20.6695C34.5696 20.7329 34.3475 19.6716 34.9141 19.3649ZM16.9893 22.3261C18.2616 21.9904 19.6293 23.0669 19.6373 24.3961C19.7204 25.7393 18.3733 26.9303 17.0709 26.6201C16.0642 26.4557 15.2743 25.4717 15.3069 24.4396C15.3042 23.4524 16.0384 22.5349 16.9893 22.3261ZM22.028 22.3234C23.3194 21.9571 24.7279 23.0529 24.7074 24.4128C24.7755 25.7311 23.4706 26.8821 22.1954 26.6206C20.9954 26.4631 20.11 25.1255 20.445 23.944C20.6141 23.1566 21.2624 22.5164 22.028 22.3234ZM12.313 23.1415C13.2066 22.9868 14.0444 23.9984 13.682 24.8592C13.4176 25.7766 12.1018 26.0255 11.52 25.2761C10.8376 24.5565 11.3471 23.2409 12.313 23.1415ZM27.0898 23.182C27.8866 22.8433 28.8647 23.5427 28.8034 24.4201C28.8354 25.386 27.6279 26.0521 26.8487 25.4883C25.9661 24.9821 26.1267 23.4925 27.0898 23.182ZM31.22 27.3852C30.908 26.7951 31.4748 26.013 32.1205 26.1222C32.4419 26.1167 32.6667 26.3737 32.8725 26.5893C32.9147 26.9389 32.9856 27.3561 32.6995 27.6256C32.3111 28.1245 31.4311 27.9821 31.22 27.3852ZM7.54531 26.2865C8.14883 25.8789 9.01731 26.4868 8.88163 27.2027C8.80947 27.8359 8.02339 28.1977 7.50563 27.8384C6.94995 27.5123 6.97043 26.5837 7.54531 26.2865ZM19.4685 27.6118C20.2586 27.2581 21.2652 27.956 21.1903 28.8389C21.2488 29.8146 20.0039 30.4902 19.2314 29.9044C18.3733 29.4013 18.5164 27.9212 19.4685 27.6118ZM13.9461 28.919C14.6191 28.5597 15.5221 29.1802 15.4608 29.9443C15.4813 30.5717 14.8778 31.1065 14.2676 31.0138C13.7621 31.0027 13.4325 30.543 13.2704 30.1058C13.2788 29.6294 13.472 29.0987 13.9461 28.919ZM25.1324 28.93C25.8244 28.4961 26.8079 29.1193 26.7424 29.9365C26.7602 30.7906 25.6487 31.3376 25.0044 30.7766C24.3805 30.3368 24.4567 29.2797 25.1324 28.93ZM27.0776 33.8094C26.7698 33.3368 27.1322 32.7675 27.632 32.6597C28.0339 32.7427 28.4589 33.0493 28.3744 33.5221C28.3159 34.1618 27.3936 34.3581 27.0776 33.8094ZM11.6359 33.399C11.7584 33.0245 12.0554 32.6523 12.49 32.7497C13.1234 32.7953 13.3114 33.7639 12.757 34.0625C12.2584 34.4035 11.68 33.9365 11.6359 33.399ZM19.0856 33.8287C19.2069 33.2747 19.9138 33.0052 20.3797 33.2995C20.6875 33.4336 20.7775 33.7831 20.8565 34.0802C20.8143 34.2349 20.7765 34.3897 20.7394 34.5445C20.5487 34.7738 20.3036 35.0032 19.9861 34.9949C19.3962 35.0651 18.864 34.3885 19.0856 33.8287Z" fill="#0066FF"/>
</svg>
