<svg width="24" height="24" fill="none" xmlns="http://www.w3.org/2000/svg"><path d="M21.889 9.181c0-.927-.63-1.545-1.574-1.545H4.574C3.63 7.636 3 8.254 3 9.181v9.273C3 19.382 3.63 20 4.574 20h15.74c.945 0 1.575-.618 1.575-1.546V9.181z" stroke="#13DA5A" stroke-width="1.5" stroke-miterlimit="10"/><path d="M16.38 9.955c-.473 0-.787-.31-.787-.773V5.318c0-.463-.315-.773-.787-.773h-4.723c-.472 0-.787.31-.787.773v3.864c0 .464-.314.773-.787.773-.472 0-.787-.31-.787-.773V5.318C7.722 4.082 8.824 3 10.083 3h4.723c1.259 0 2.36 1.082 2.36 2.318v3.864c0 .464-.314.773-.786.773z" fill="#13DA5A"/></svg>