<svg width="354" height="280" viewBox="0 0 354 280" fill="none" xmlns="http://www.w3.org/2000/svg">
<g clip-path="url(#clip0)">
<rect width="354" height="280" fill="#043D75"/>
<rect x="29" y="75.5" width="24" height="10" rx="1" fill="#044F9C"/>
<line x1="61" y1="80" x2="63" y2="80" stroke="#044F9C"/>
<rect x="63" y="62" width="1" height="37" fill="#044F9C"/>
<line x1="64" y1="80" x2="334" y2="80" stroke="#044F9C"/>
<rect x="29" y="112.5" width="24" height="10" rx="1" fill="#044F9C"/>
<line x1="61" y1="117" x2="63" y2="117" stroke="#044F9C"/>
<rect x="63" y="99" width="1" height="37" fill="#044F9C"/>
<line x1="64" y1="117" x2="334" y2="117" stroke="#044F9C"/>
<rect x="29" y="149.5" width="24" height="10" rx="1" fill="#044F9C"/>
<line x1="61" y1="154" x2="63" y2="154" stroke="#044F9C"/>
<rect x="63" y="136" width="1" height="37" fill="#044F9C"/>
<line x1="64" y1="154" x2="334" y2="154" stroke="#044F9C"/>
<rect x="29" y="186.5" width="24" height="10" rx="1" fill="#044F9C"/>
<line x1="61" y1="191" x2="63" y2="191" stroke="#044F9C"/>
<rect x="63" y="173" width="1" height="37" fill="#044F9C"/>
<line x1="64" y1="191" x2="334" y2="191" stroke="#044F9C"/>
<rect x="29" y="223.5" width="24" height="10" rx="1" fill="#044F9C"/>
<line x1="61" y1="228" x2="63" y2="228" stroke="#044F9C"/>
<rect x="63" y="210" width="1" height="37" fill="#044F9C"/>
<line x1="64" y1="228" x2="334" y2="228" stroke="#044F9C"/>
<line x1="96.375" y1="246" x2="96.375" y2="62" stroke="#044F9C"/>
<rect x="63" y="246" width="67.75" height="1" fill="#044F9C"/>
<line x1="96.375" y1="249" x2="96.375" y2="247" stroke="#044F9C"/>
<rect x="84.875" y="255" width="24" height="10" rx="1" fill="#044F9C"/>
<line x1="164.125" y1="246" x2="164.125" y2="62" stroke="#044F9C"/>
<rect x="130.75" y="246" width="67.75" height="1" fill="#044F9C"/>
<line x1="164.125" y1="249" x2="164.125" y2="247" stroke="#044F9C"/>
<rect x="152.625" y="255" width="24" height="10" rx="1" fill="#044F9C"/>
<line x1="231.875" y1="246" x2="231.875" y2="62" stroke="#044F9C"/>
<rect x="198.5" y="246" width="67.75" height="1" fill="#044F9C"/>
<line x1="231.875" y1="249" x2="231.875" y2="247" stroke="#044F9C"/>
<rect x="220.375" y="255" width="24" height="10" rx="1" fill="#044F9C"/>
<line x1="299.625" y1="246" x2="299.625" y2="62" stroke="#044F9C"/>
<rect x="266.25" y="246" width="67.75" height="1" fill="#044F9C"/>
<line x1="299.625" y1="249" x2="299.625" y2="247" stroke="#044F9C"/>
<rect x="288.125" y="255" width="24" height="10" rx="1" fill="#044F9C"/>
<path d="M72.6897 121.572L73.5011 130.11L74.3125 124.138L75.124 115.074L75.9354 121.338L76.7469 129.984L77.5583 142.034L78.3697 177.432L79.1812 142.489L79.9926 149.368L80.8041 138.549L81.6155 140.562L82.4269 145.53L83.2384 145.864L84.0498 160.112L84.8613 152.439L85.6727 138.534L86.4842 140.844L87.2956 143.016L88.107 152.215L88.9185 164.495L89.7299 236L90.5414 212.238L91.3528 202.164L92.1642 188.497L92.9757 202.683L93.7871 199.291L94.5986 194.837L95.41 213.07L96.2214 203.243L97.0329 197.481L97.8443 195.833L98.6558 161.47L99.4672 156.822L100.279 166.139L101.09 150.959L101.902 149.002L102.713 149.191L103.524 152.061L104.336 152.351L105.147 148.366L105.959 154.198L106.77 149.064L107.582 134.626L108.393 145.821L109.205 156.894L110.016 153.444L110.827 150.399L111.639 154.396L112.45 151.432L113.262 147.906L114.073 135.879L114.885 117.963L115.696 103.303L116.507 99.3845L117.319 91.7905L118.13 99.6201L118.942 108.863L119.753 113.01L120.565 108.362L121.376 112.657L122.188 115.959L122.999 113.586L123.81 122.978L124.622 110.02L125.433 106.333L126.245 108.332L127.056 103.018L127.868 108.322L128.679 115.267L129.491 111.822L130.302 107.259L131.113 88.9544L131.925 93.9659L132.736 96.7513L133.548 91.3774L134.359 90.1011L135.171 110.02L135.982 85.258L136.794 95.1603L137.605 95.2841L138.416 97.0122L139.228 98.8343L140.039 111.331L140.851 144.546L141.662 146.046L142.474 153.268L143.285 156.824H144.096L144.908 148.296L145.719 153.614L146.531 158.884L147.342 134.504L148.154 158.07L148.965 158.383L149.777 150.667L150.588 152.534L151.399 151.077L152.211 139.497L153.022 142.502L153.834 151.641L154.645 140.431L155.457 144.379L156.268 148.906L157.08 144.02L157.891 136.177L158.702 136.019L159.514 139.966L160.325 146.155L161.137 144.792L161.948 157.559L162.76 159.063L163.571 146.127L164.383 158.931L165.194 149.786L166.005 149.355L166.817 152.351L167.628 149.473L168.44 138.309L169.251 139.421L170.063 138.931L170.874 138.658L171.685 145.31L172.497 135.27L173.308 142.235L174.12 146.772L174.931 149.149L175.743 144.399L176.554 145.089L177.366 141.883L178.177 137.44L178.988 137.984L179.8 137.926L180.611 135.618L181.423 130.351L182.234 119.851L183.046 114.726L183.857 115.306L184.669 115.165L185.48 109.622L186.291 112.885L187.103 110.503L187.914 102.836L188.726 97.3283L189.537 109.671L190.349 109.396L191.16 108.868L191.972 106.357L192.783 105.814L193.594 108.207L194.406 106.46L195.217 103.291L196.029 104.336L196.84 108.209L197.652 119.119L198.463 119.314L199.274 115.561L200.086 115.596L200.897 125.815L201.709 132.99L202.52 139.075L203.332 146.596L204.143 143.404L204.955 160.511L205.766 153.335L206.577 141.564L207.389 148.064L208.2 140.365L209.012 139.884L209.823 139.383L210.635 151.451L211.446 163.926L212.258 168.761L213.069 170.126L213.88 159.963L214.692 177.02L215.503 169.968L216.315 166.317L217.126 176.439L217.938 169.601L218.749 176.239L219.56 172.277L220.372 167.112L221.183 156.857L221.995 155.091L222.806 145.207L223.618 149.643L224.429 153.807L225.241 150.373L226.052 144.691L226.863 141.188L227.675 141.081L228.486 135.953L229.298 145.059L230.109 141.305L230.921 136.776L231.732 136.854L232.544 138.919L233.355 136.333L234.166 132.05L234.978 139.669L235.789 141.853L236.601 140.914L237.412 147.783L238.224 149.085L239.035 147.894L239.847 147.46L240.658 155.962L241.469 145.723L242.281 137.012L243.092 139.11L243.904 142.295L244.715 125.99L245.527 119.62L246.338 123.082L247.15 122.441L247.961 122.909L248.772 126.278L249.584 129.603L250.395 124.922L251.207 129.304L252.018 131.094L252.83 133.479L253.641 128.432L254.452 135.056L255.264 141.77L256.075 140.593L256.887 138.47L257.698 152.025L258.51 144.824L259.321 147.961L260.133 159.567L260.944 168.46L261.755 160.425L262.567 161.98L263.378 156.561L264.19 153.894L265.001 165.714L265.813 161.058L266.624 155.034L267.436 152.207L268.247 148.806L269.058 150.514L269.87 152.1L270.681 153.931L271.493 149.371L272.304 144.484L273.116 153.943L273.927 154.836L274.738 81.8435L275.55 83.4717L276.361 90.8794L277.173 86.3614L277.984 90.3724L278.796 97.7205L279.607 110.462L280.419 104.125L281.23 109.094L282.041 102.769L282.853 100.26L283.664 105.24L284.476 105.467L285.287 105.898L286.099 109.907L286.91 126.303L287.722 120.874L288.533 110.503L289.344 104.36L290.156 102.313L290.967 97.0286L291.779 98.22L292.59 94.2776L293.402 81.4886L294.213 83.8743L295.025 79.3116L295.836 86.43L296.647 90.2994L297.459 87.5439L298.27 87.1532L299.082 93.0445L299.893 95.0171L300.705 96.1414L301.516 90.1518L302.328 79.3564L303.139 81.0502L303.95 81.5125L304.762 80.5969V76.5001" stroke="white" stroke-width="1.5" stroke-linejoin="bevel"/>
<path d="M142.164 21.18V23H134.576V13.2H141.982V15.02H136.83V17.148H141.38V18.912H136.83V21.18H142.164ZM145.999 15.048H142.863V13.2H151.403V15.048H148.267V23H145.999V15.048ZM161.611 13.2V23H159.343V18.982H154.891V23H152.623V13.2H154.891V17.064H159.343V13.2H161.611ZM168.284 23.168C166.884 23.168 165.792 22.7807 165.008 22.006C164.233 21.2313 163.846 20.1253 163.846 18.688V13.2H166.114V18.604C166.114 20.3587 166.842 21.236 168.298 21.236C169.007 21.236 169.548 21.026 169.922 20.606C170.295 20.1767 170.482 19.5093 170.482 18.604V13.2H172.722V18.688C172.722 20.1253 172.33 21.2313 171.546 22.006C170.771 22.7807 169.684 23.168 168.284 23.168ZM178.183 23.168C177.408 23.168 176.657 23.0653 175.929 22.86C175.21 22.6453 174.631 22.37 174.193 22.034L174.963 20.326C175.383 20.634 175.882 20.8813 176.461 21.068C177.039 21.2547 177.618 21.348 178.197 21.348C178.841 21.348 179.317 21.2547 179.625 21.068C179.933 20.872 180.087 20.6153 180.087 20.298C180.087 20.0647 179.993 19.8733 179.807 19.724C179.629 19.5653 179.396 19.4393 179.107 19.346C178.827 19.2527 178.444 19.15 177.959 19.038C177.212 18.8607 176.601 18.6833 176.125 18.506C175.649 18.3287 175.238 18.044 174.893 17.652C174.557 17.26 174.389 16.7373 174.389 16.084C174.389 15.5147 174.543 15.0013 174.851 14.544C175.159 14.0773 175.621 13.7087 176.237 13.438C176.862 13.1673 177.623 13.032 178.519 13.032C179.144 13.032 179.755 13.1067 180.353 13.256C180.95 13.4053 181.473 13.62 181.921 13.9L181.221 15.622C180.315 15.1087 179.41 14.852 178.505 14.852C177.87 14.852 177.399 14.9547 177.091 15.16C176.792 15.3653 176.643 15.636 176.643 15.972C176.643 16.308 176.815 16.56 177.161 16.728C177.515 16.8867 178.052 17.0453 178.771 17.204C179.517 17.3813 180.129 17.5587 180.605 17.736C181.081 17.9133 181.487 18.1933 181.823 18.576C182.168 18.9587 182.341 19.4767 182.341 20.13C182.341 20.69 182.182 21.2033 181.865 21.67C181.557 22.1273 181.09 22.4913 180.465 22.762C179.839 23.0327 179.079 23.168 178.183 23.168ZM183.891 13.2H188.343C189.407 13.2 190.345 13.4053 191.157 13.816C191.978 14.2173 192.613 14.7867 193.061 15.524C193.518 16.2613 193.747 17.12 193.747 18.1C193.747 19.08 193.518 19.9387 193.061 20.676C192.613 21.4133 191.978 21.9873 191.157 22.398C190.345 22.7993 189.407 23 188.343 23H183.891V13.2ZM188.231 21.138C189.211 21.138 189.99 20.8673 190.569 20.326C191.157 19.7753 191.451 19.0333 191.451 18.1C191.451 17.1667 191.157 16.4293 190.569 15.888C189.99 15.3373 189.211 15.062 188.231 15.062H186.159V21.138H188.231ZM197.35 15.048H194.214V13.2H202.754V15.048H199.618V23H197.35V15.048ZM211.103 13.2V23H208.835V15.02H206.875V13.2H211.103ZM216.166 16.882C217.547 16.882 218.564 17.1573 219.218 17.708C219.88 18.2587 220.212 18.996 220.212 19.92C220.212 20.5173 220.062 21.0633 219.764 21.558C219.465 22.0433 219.008 22.4353 218.392 22.734C217.785 23.0233 217.034 23.168 216.138 23.168C215.447 23.168 214.766 23.0793 214.094 22.902C213.431 22.7153 212.866 22.454 212.4 22.118L213.296 20.382C213.669 20.662 214.098 20.8813 214.584 21.04C215.069 21.1893 215.568 21.264 216.082 21.264C216.651 21.264 217.099 21.152 217.426 20.928C217.752 20.704 217.916 20.3913 217.916 19.99C217.916 19.57 217.743 19.2527 217.398 19.038C217.062 18.8233 216.474 18.716 215.634 18.716H213.128L213.632 13.2H219.61V15.02H215.522L215.368 16.882H216.166Z" fill="white"/>
<path d="M89 47H103L96 37L89 47Z" fill="#30D891"/>
<path d="M109.346 47V38.624H110.354V46.112H113.918V47H109.346ZM117.485 47.144C117.069 47.144 116.689 47.068 116.345 46.916C116.001 46.764 115.705 46.548 115.457 46.268C115.217 45.98 115.029 45.64 114.893 45.248C114.757 44.848 114.689 44.4 114.689 43.904C114.689 43.416 114.757 42.972 114.893 42.572C115.029 42.172 115.217 41.832 115.457 41.552C115.705 41.264 116.001 41.044 116.345 40.892C116.689 40.74 117.069 40.664 117.485 40.664C117.901 40.664 118.277 40.74 118.613 40.892C118.957 41.044 119.253 41.264 119.501 41.552C119.749 41.832 119.941 42.172 120.077 42.572C120.213 42.972 120.281 43.416 120.281 43.904C120.281 44.4 120.213 44.848 120.077 45.248C119.941 45.64 119.749 45.98 119.501 46.268C119.253 46.548 118.957 46.764 118.613 46.916C118.277 47.068 117.901 47.144 117.485 47.144ZM117.485 46.292C118.005 46.292 118.429 46.132 118.757 45.812C119.085 45.492 119.249 45.004 119.249 44.348V43.46C119.249 42.804 119.085 42.316 118.757 41.996C118.429 41.676 118.005 41.516 117.485 41.516C116.965 41.516 116.541 41.676 116.213 41.996C115.885 42.316 115.721 42.804 115.721 43.46V44.348C115.721 45.004 115.885 45.492 116.213 45.812C116.541 46.132 116.965 46.292 117.485 46.292ZM121.86 47V40.808H122.82V41.816H122.868C123.02 41.464 123.232 41.184 123.504 40.976C123.784 40.768 124.156 40.664 124.62 40.664C125.26 40.664 125.764 40.872 126.132 41.288C126.508 41.696 126.696 42.276 126.696 43.028V47H125.736V43.196C125.736 42.084 125.268 41.528 124.332 41.528C124.14 41.528 123.952 41.552 123.768 41.6C123.592 41.648 123.432 41.72 123.288 41.816C123.144 41.912 123.028 42.036 122.94 42.188C122.86 42.332 122.82 42.504 122.82 42.704V47H121.86ZM133.9 47.684C133.9 48.324 133.648 48.792 133.144 49.088C132.648 49.392 131.9 49.544 130.9 49.544C129.932 49.544 129.236 49.412 128.812 49.148C128.388 48.884 128.176 48.508 128.176 48.02C128.176 47.684 128.264 47.42 128.44 47.228C128.616 47.044 128.856 46.908 129.16 46.82V46.688C128.792 46.512 128.608 46.224 128.608 45.824C128.608 45.512 128.708 45.276 128.908 45.116C129.108 44.948 129.364 44.824 129.676 44.744V44.696C129.308 44.52 129.02 44.268 128.812 43.94C128.612 43.612 128.512 43.232 128.512 42.8C128.512 42.488 128.568 42.2 128.68 41.936C128.792 41.672 128.948 41.448 129.148 41.264C129.356 41.072 129.6 40.924 129.88 40.82C130.168 40.716 130.488 40.664 130.84 40.664C131.28 40.664 131.672 40.744 132.016 40.904V40.796C132.016 40.556 132.072 40.36 132.184 40.208C132.296 40.048 132.48 39.968 132.736 39.968H133.66V40.808H132.484V41.204C132.708 41.396 132.88 41.628 133 41.9C133.128 42.164 133.192 42.464 133.192 42.8C133.192 43.112 133.136 43.4 133.024 43.664C132.912 43.928 132.752 44.156 132.544 44.348C132.344 44.532 132.1 44.676 131.812 44.78C131.524 44.884 131.204 44.936 130.852 44.936C130.652 44.936 130.452 44.916 130.252 44.876C130.044 44.932 129.856 45.016 129.688 45.128C129.52 45.232 129.436 45.38 129.436 45.572C129.436 45.756 129.524 45.88 129.7 45.944C129.876 46.008 130.104 46.04 130.384 46.04H131.704C132.472 46.04 133.028 46.188 133.372 46.484C133.724 46.772 133.9 47.172 133.9 47.684ZM133 47.756C133 47.508 132.904 47.308 132.712 47.156C132.528 47.012 132.196 46.94 131.716 46.94H129.652C129.268 47.116 129.076 47.396 129.076 47.78C129.076 48.052 129.176 48.284 129.376 48.476C129.584 48.668 129.932 48.764 130.42 48.764H131.308C131.844 48.764 132.26 48.68 132.556 48.512C132.852 48.344 133 48.092 133 47.756ZM130.852 44.168C131.26 44.168 131.584 44.072 131.824 43.88C132.064 43.68 132.184 43.376 132.184 42.968V42.632C132.184 42.224 132.064 41.924 131.824 41.732C131.584 41.532 131.26 41.432 130.852 41.432C130.444 41.432 130.12 41.532 129.88 41.732C129.64 41.924 129.52 42.224 129.52 42.632V42.968C129.52 43.376 129.64 43.68 129.88 43.88C130.12 44.072 130.444 44.168 130.852 44.168Z" fill="white"/>
<path d="M165 37H151L158 47L165 37Z" fill="#FF6C6C"/>
<path d="M174.3 47.144C173.62 47.144 173.04 47.016 172.56 46.76C172.08 46.496 171.672 46.136 171.336 45.68L172.08 45.056C172.376 45.448 172.704 45.748 173.064 45.956C173.424 46.156 173.848 46.256 174.336 46.256C174.936 46.256 175.392 46.112 175.704 45.824C176.024 45.536 176.184 45.152 176.184 44.672C176.184 44.272 176.064 43.964 175.824 43.748C175.584 43.532 175.188 43.36 174.636 43.232L173.952 43.076C173.184 42.9 172.596 42.636 172.188 42.284C171.788 41.924 171.588 41.42 171.588 40.772C171.588 40.404 171.656 40.076 171.792 39.788C171.928 39.5 172.116 39.26 172.356 39.068C172.604 38.876 172.896 38.732 173.232 38.636C173.576 38.532 173.952 38.48 174.36 38.48C174.992 38.48 175.532 38.596 175.98 38.828C176.436 39.06 176.82 39.4 177.132 39.848L176.376 40.4C176.144 40.08 175.864 39.828 175.536 39.644C175.208 39.46 174.8 39.368 174.312 39.368C173.776 39.368 173.352 39.484 173.04 39.716C172.736 39.94 172.584 40.28 172.584 40.736C172.584 41.136 172.712 41.44 172.968 41.648C173.232 41.848 173.628 42.008 174.156 42.128L174.84 42.284C175.664 42.468 176.26 42.748 176.628 43.124C176.996 43.5 177.18 44 177.18 44.624C177.18 45.008 177.112 45.356 176.976 45.668C176.848 45.98 176.66 46.244 176.412 46.46C176.164 46.676 175.86 46.844 175.5 46.964C175.148 47.084 174.748 47.144 174.3 47.144ZM178.825 38.12H179.785V41.816H179.833C179.985 41.464 180.197 41.184 180.469 40.976C180.749 40.768 181.121 40.664 181.585 40.664C182.225 40.664 182.729 40.872 183.097 41.288C183.473 41.696 183.661 42.276 183.661 43.028V47H182.701V43.196C182.701 42.084 182.233 41.528 181.297 41.528C181.105 41.528 180.917 41.552 180.733 41.6C180.557 41.648 180.397 41.72 180.253 41.816C180.109 41.912 179.993 42.036 179.905 42.188C179.825 42.332 179.785 42.504 179.785 42.704V47H178.825V38.12ZM187.985 47.144C187.569 47.144 187.189 47.068 186.845 46.916C186.501 46.764 186.205 46.548 185.957 46.268C185.717 45.98 185.529 45.64 185.393 45.248C185.257 44.848 185.189 44.4 185.189 43.904C185.189 43.416 185.257 42.972 185.393 42.572C185.529 42.172 185.717 41.832 185.957 41.552C186.205 41.264 186.501 41.044 186.845 40.892C187.189 40.74 187.569 40.664 187.985 40.664C188.401 40.664 188.777 40.74 189.113 40.892C189.457 41.044 189.753 41.264 190.001 41.552C190.249 41.832 190.441 42.172 190.577 42.572C190.713 42.972 190.781 43.416 190.781 43.904C190.781 44.4 190.713 44.848 190.577 45.248C190.441 45.64 190.249 45.98 190.001 46.268C189.753 46.548 189.457 46.764 189.113 46.916C188.777 47.068 188.401 47.144 187.985 47.144ZM187.985 46.292C188.505 46.292 188.929 46.132 189.257 45.812C189.585 45.492 189.749 45.004 189.749 44.348V43.46C189.749 42.804 189.585 42.316 189.257 41.996C188.929 41.676 188.505 41.516 187.985 41.516C187.465 41.516 187.041 41.676 186.713 41.996C186.385 42.316 186.221 42.804 186.221 43.46V44.348C186.221 45.004 186.385 45.492 186.713 45.812C187.041 46.132 187.465 46.292 187.985 46.292ZM192.36 47V40.808H193.32V41.948H193.38C193.492 41.652 193.692 41.388 193.98 41.156C194.268 40.924 194.664 40.808 195.168 40.808H195.54V41.768H194.976C194.456 41.768 194.048 41.868 193.752 42.068C193.464 42.26 193.32 42.504 193.32 42.8V47H192.36ZM198.181 47C197.845 47 197.589 46.908 197.413 46.724C197.245 46.532 197.161 46.284 197.161 45.98V41.648H196.141V40.808H196.717C196.925 40.808 197.065 40.768 197.137 40.688C197.217 40.6 197.257 40.452 197.257 40.244V39.092H198.121V40.808H199.477V41.648H198.121V46.16H199.381V47H198.181Z" fill="white"/>
<path fill-rule="evenodd" clip-rule="evenodd" d="M223.899 43.3137L228.142 47.5564L229.556 46.1422L225.314 41.8995L229.556 37.6569L228.142 36.2427L223.899 40.4853L219.657 36.2427L218.243 37.6569L222.485 41.8995L218.243 46.1422L219.657 47.5564L223.899 43.3137Z" fill="#0094FF"/>
<path d="M240.197 47.144C239.133 47.144 238.305 46.784 237.713 46.064C237.121 45.336 236.825 44.268 236.825 42.86C236.825 41.452 237.121 40.372 237.713 39.62C238.305 38.86 239.133 38.48 240.197 38.48C240.901 38.48 241.489 38.64 241.961 38.96C242.441 39.28 242.813 39.732 243.077 40.316L242.261 40.808C242.093 40.376 241.837 40.032 241.493 39.776C241.149 39.512 240.717 39.38 240.197 39.38C239.837 39.38 239.513 39.448 239.225 39.584C238.945 39.72 238.705 39.916 238.505 40.172C238.313 40.42 238.165 40.72 238.061 41.072C237.957 41.416 237.905 41.804 237.905 42.236V43.484C237.905 44.348 238.105 45.024 238.505 45.512C238.905 46 239.469 46.244 240.197 46.244C240.733 46.244 241.181 46.108 241.541 45.836C241.901 45.556 242.165 45.188 242.333 44.732L243.137 45.236C242.873 45.828 242.493 46.296 241.997 46.64C241.501 46.976 240.901 47.144 240.197 47.144ZM245.622 47C245.286 47 245.03 46.908 244.854 46.724C244.686 46.532 244.602 46.292 244.602 46.004V38.12H245.562V46.16H246.474V47H245.622ZM250.212 47.144C249.796 47.144 249.416 47.068 249.072 46.916C248.728 46.764 248.432 46.548 248.184 46.268C247.944 45.98 247.756 45.64 247.62 45.248C247.484 44.848 247.416 44.4 247.416 43.904C247.416 43.416 247.484 42.972 247.62 42.572C247.756 42.172 247.944 41.832 248.184 41.552C248.432 41.264 248.728 41.044 249.072 40.892C249.416 40.74 249.796 40.664 250.212 40.664C250.628 40.664 251.004 40.74 251.34 40.892C251.684 41.044 251.98 41.264 252.228 41.552C252.476 41.832 252.668 42.172 252.804 42.572C252.94 42.972 253.008 43.416 253.008 43.904C253.008 44.4 252.94 44.848 252.804 45.248C252.668 45.64 252.476 45.98 252.228 46.268C251.98 46.548 251.684 46.764 251.34 46.916C251.004 47.068 250.628 47.144 250.212 47.144ZM250.212 46.292C250.732 46.292 251.156 46.132 251.484 45.812C251.812 45.492 251.976 45.004 251.976 44.348V43.46C251.976 42.804 251.812 42.316 251.484 41.996C251.156 41.676 250.732 41.516 250.212 41.516C249.692 41.516 249.268 41.676 248.94 41.996C248.612 42.316 248.448 42.804 248.448 43.46V44.348C248.448 45.004 248.612 45.492 248.94 45.812C249.268 46.132 249.692 46.292 250.212 46.292ZM256.446 47.144C255.87 47.144 255.386 47.036 254.994 46.82C254.61 46.596 254.278 46.3 253.998 45.932L254.682 45.38C254.922 45.684 255.19 45.92 255.486 46.088C255.782 46.248 256.126 46.328 256.518 46.328C256.926 46.328 257.242 46.24 257.466 46.064C257.698 45.888 257.814 45.64 257.814 45.32C257.814 45.08 257.734 44.876 257.574 44.708C257.422 44.532 257.142 44.412 256.734 44.348L256.242 44.276C255.954 44.236 255.69 44.176 255.45 44.096C255.21 44.008 254.998 43.896 254.814 43.76C254.638 43.616 254.498 43.44 254.394 43.232C254.298 43.024 254.25 42.776 254.25 42.488C254.25 42.184 254.306 41.92 254.418 41.696C254.53 41.464 254.682 41.272 254.874 41.12C255.074 40.968 255.31 40.856 255.582 40.784C255.854 40.704 256.146 40.664 256.458 40.664C256.962 40.664 257.382 40.752 257.718 40.928C258.062 41.104 258.362 41.348 258.618 41.66L257.982 42.236C257.846 42.044 257.646 41.872 257.382 41.72C257.118 41.56 256.786 41.48 256.386 41.48C255.986 41.48 255.682 41.568 255.474 41.744C255.274 41.912 255.174 42.144 255.174 42.44C255.174 42.744 255.274 42.964 255.474 43.1C255.682 43.236 255.978 43.336 256.362 43.4L256.842 43.472C257.53 43.576 258.018 43.776 258.306 44.072C258.594 44.36 258.738 44.74 258.738 45.212C258.738 45.812 258.534 46.284 258.126 46.628C257.718 46.972 257.158 47.144 256.446 47.144ZM262.762 47.144C262.338 47.144 261.954 47.068 261.61 46.916C261.274 46.764 260.982 46.548 260.734 46.268C260.494 45.98 260.306 45.64 260.17 45.248C260.042 44.848 259.978 44.4 259.978 43.904C259.978 43.416 260.042 42.972 260.17 42.572C260.306 42.172 260.494 41.832 260.734 41.552C260.982 41.264 261.274 41.044 261.61 40.892C261.954 40.74 262.338 40.664 262.762 40.664C263.178 40.664 263.55 40.74 263.878 40.892C264.206 41.044 264.486 41.256 264.718 41.528C264.95 41.792 265.126 42.108 265.246 42.476C265.374 42.844 265.438 43.248 265.438 43.688V44.144H260.986V44.432C260.986 44.696 261.026 44.944 261.106 45.176C261.194 45.4 261.314 45.596 261.466 45.764C261.626 45.932 261.818 46.064 262.042 46.16C262.274 46.256 262.534 46.304 262.822 46.304C263.214 46.304 263.554 46.212 263.842 46.028C264.138 45.844 264.366 45.58 264.526 45.236L265.21 45.728C265.01 46.152 264.698 46.496 264.274 46.76C263.85 47.016 263.346 47.144 262.762 47.144ZM262.762 41.468C262.498 41.468 262.258 41.516 262.042 41.612C261.826 41.7 261.638 41.828 261.478 41.996C261.326 42.164 261.206 42.364 261.118 42.596C261.03 42.82 260.986 43.068 260.986 43.34V43.424H264.406V43.292C264.406 42.74 264.254 42.3 263.95 41.972C263.654 41.636 263.258 41.468 262.762 41.468Z" fill="white"/>
<path d="M82 241H96L89 231L82 241Z" fill="#30D891"/>
<path fill-rule="evenodd" clip-rule="evenodd" d="M304.899 78.3137L309.142 82.5564L310.556 81.1422L306.314 76.8995L310.556 72.6569L309.142 71.2427L304.899 75.4853L300.657 71.2427L299.243 72.6569L303.485 76.8995L299.243 81.1422L300.657 82.5564L304.899 78.3137Z" fill="#0094FF"/>
</g>
<defs>
<clipPath id="clip0">
<rect width="354" height="280" fill="white"/>
</clipPath>
</defs>
</svg>
