<svg width="80" height="80" viewBox="0 0 80 80" fill="none" xmlns="http://www.w3.org/2000/svg">
<g clip-path="url(#clip0)">
<mask id="mask0" mask-type="alpha" maskUnits="userSpaceOnUse" x="12" y="31" width="52" height="41">
<path d="M21.1255 55.9364H13.3353C12.5257 55.9364 11.9297 55.1786 12.1205 54.3918L17.3993 32.6221C17.5352 32.0614 18.0372 31.6667 18.6141 31.6667H39.2409C39.5371 31.6667 39.8237 31.7718 40.0496 31.9635L62.6526 51.1391C63.2252 51.6248 63.2433 52.5021 62.6914 53.0112L42.9304 71.2362C42.4811 71.6506 41.7981 71.6793 41.3156 71.3041L21.8928 56.1996C21.6734 56.029 21.4034 55.9364 21.1255 55.9364Z" fill="#434A45"/>
</mask>
<g mask="url(#mask0)">
<path opacity="0.3" d="M53.983 28.4177L11.7459 28.4177L11.7459 71.9544L53.983 28.4177Z" fill="#434A45"/>
</g>
<path fill-rule="evenodd" clip-rule="evenodd" d="M17.0956 32.5484C17.2656 31.8476 17.893 31.3542 18.6141 31.3542H39.2409C39.6112 31.3542 39.9694 31.4856 40.2518 31.7252L62.8548 50.9008C63.5705 51.508 63.5932 52.6046 62.9033 53.2409L43.1423 71.466C42.5807 71.9839 41.7269 72.0198 41.1238 71.5508L21.701 56.4463C21.5365 56.3183 21.3339 56.2489 21.1255 56.2489H13.3353C12.3234 56.2489 11.5784 55.3016 11.8168 54.3181L17.0956 32.5484ZM18.6141 31.9792C18.1814 31.9792 17.805 32.2752 17.703 32.6957L12.4242 54.4654C12.2811 55.0555 12.7282 55.6239 13.3353 55.6239H21.1255C21.4729 55.6239 21.8104 55.7396 22.0847 55.9529L41.5075 71.0574C41.8693 71.3388 42.3816 71.3173 42.7186 71.0065L62.4796 52.7814C62.8935 52.3997 62.8799 51.7417 62.4505 51.3774L39.8474 32.2018C39.678 32.058 39.4631 31.9792 39.2409 31.9792H18.6141Z" fill="#00D664"/>
<path d="M42.5616 30.8671L34.1682 42.0583C33.6747 42.7163 33.9402 43.6634 34.7039 43.9689L37.2783 44.9986C37.7523 45.1882 38.2941 45.0704 38.6467 44.7011L44.0547 39.0356C44.5188 38.5494 45.2842 38.5172 45.7874 38.9627L64.3502 55.3953C64.5787 55.5976 64.8734 55.7093 65.1787 55.7093H67.3376C68.1477 55.7093 68.7438 54.9506 68.5521 54.1635L62.9879 31.3212C62.8515 30.7612 62.3499 30.3671 61.7734 30.3671H43.5616C43.1681 30.3671 42.7976 30.5523 42.5616 30.8671Z" fill="black"/>
<path fill-rule="evenodd" clip-rule="evenodd" d="M43.5616 30.6796C43.2665 30.6796 42.9886 30.8185 42.8116 31.0546L34.4182 42.2458C34.048 42.7393 34.2472 43.4496 34.82 43.6787L37.3943 44.7084L37.2782 44.9986L37.3943 44.7084C37.7499 44.8507 38.1562 44.7623 38.4206 44.4853L43.8286 38.8198C44.4087 38.2121 45.3655 38.1718 45.9946 38.7287L64.5573 55.1613C64.7287 55.313 64.9498 55.3968 65.1787 55.3968H67.3376C67.9452 55.3968 68.3922 54.8278 68.2485 54.2374L62.6843 31.3952C62.582 30.9752 62.2057 30.6796 61.7734 30.6796H43.5616ZM42.3116 30.6796C42.6066 30.2861 43.0698 30.0546 43.5616 30.0546H61.7734C62.4939 30.0546 63.121 30.5472 63.2916 31.2473L68.8557 54.0895C69.0954 55.0734 68.3502 56.0218 67.3376 56.0218H65.1787C64.7971 56.0218 64.4287 55.8822 64.143 55.6293L45.5803 39.1967C45.2029 38.8626 44.6288 38.8867 44.2807 39.2513L38.8727 44.9169C38.432 45.3785 37.7548 45.5258 37.1622 45.2887L34.5879 44.259C33.6332 43.8772 33.3013 42.6933 33.9182 41.8708L42.3116 30.6796Z" fill="#00D75B"/>
<path opacity="0.1" d="M72.8274 59.9331L66.3293 29.7173H80.625V59.9331H72.8274Z" fill="black"/>
<path opacity="0.1" fill-rule="evenodd" clip-rule="evenodd" d="M65.9425 29.4048H80.9375V60.2456H72.5749L65.9425 29.4048ZM66.7162 30.0298L73.0798 59.6206H80.3125V30.0298H66.7162Z" fill="white"/>
<path opacity="0.1" d="M6.54764 59.9331L13.0457 29.7173H-1.24998V59.9331H6.54764Z" fill="black"/>
<path opacity="0.1" fill-rule="evenodd" clip-rule="evenodd" d="M13.4325 29.4048H-1.56249V60.2456H6.80007L13.4325 29.4048ZM12.6588 30.0298L6.29519 59.6206H-0.937488V30.0298H12.6588Z" fill="white"/>
<path fill-rule="evenodd" clip-rule="evenodd" d="M48.1349 66.7559L38.3879 57.0089L38.8298 56.567L48.5769 66.314L48.1349 66.7559Z" fill="#00D664"/>
<path fill-rule="evenodd" clip-rule="evenodd" d="M52.4327 62.6064L41.6369 51.8105L42.0789 51.3686L52.8747 62.1644L52.4327 62.6064Z" fill="#00D664"/>
<path fill-rule="evenodd" clip-rule="evenodd" d="M57.5211 57.9477L46.1855 46.6121L46.6274 46.1702L57.963 57.5057L57.5211 57.9477Z" fill="#00D664"/>
<path d="M29.041 58.1119C29.468 57.5695 30.2539 57.476 30.7963 57.903L31.8954 58.7683C32.4378 59.1954 32.5314 59.9813 32.1043 60.5237L30.4351 62.6439C30.008 63.1863 29.2221 63.2798 28.6797 62.8528L27.5806 61.9875C27.0382 61.5604 26.9447 60.7745 27.3717 60.2321L29.041 58.1119Z" fill="black"/>
<path fill-rule="evenodd" clip-rule="evenodd" d="M28.7954 57.9186C29.3292 57.2406 30.3116 57.1237 30.9896 57.6575L32.0887 58.5228C32.7667 59.0566 32.8836 60.039 32.3498 60.717L30.6806 62.8372C30.1468 63.5152 29.1644 63.6321 28.4864 63.0983L27.3873 62.233C26.7093 61.6992 26.5924 60.7168 27.1262 60.0388L28.7954 57.9186ZM30.603 58.1485C30.1962 57.8283 29.6068 57.8984 29.2865 58.3052L27.6173 60.4254C27.297 60.8322 27.3671 61.4216 27.7739 61.7419L28.873 62.6072C29.2798 62.9275 29.8692 62.8574 30.1895 62.4505L31.8587 60.3304C32.179 59.9236 32.1089 59.3341 31.7021 59.0138L30.603 58.1485Z" fill="#00D664"/>
<path d="M23.9355 54.0922C24.3625 53.5498 25.1485 53.4563 25.6909 53.8834L26.7899 54.7486C27.3324 55.1757 27.4259 55.9616 26.9988 56.504L25.3296 58.6242C24.9026 59.1666 24.1166 59.2601 23.5742 58.8331L22.4752 57.9678C21.9327 57.5407 21.8392 56.7548 22.2663 56.2124L23.9355 54.0922Z" fill="black"/>
<path fill-rule="evenodd" clip-rule="evenodd" d="M23.6899 53.8989C24.2238 53.2209 25.2061 53.104 25.8842 53.6378L26.9832 54.5031C27.6612 55.0369 27.7782 56.0193 27.2443 56.6973L25.5751 58.8175C25.0413 59.4955 24.0589 59.6124 23.3809 59.0786L22.2818 58.2133C21.6038 57.6795 21.4869 56.6971 22.0207 56.0191L23.6899 53.8989ZM25.4975 54.1289C25.0907 53.8086 24.5013 53.8787 24.181 54.2856L22.5118 56.4057C22.1915 56.8125 22.2616 57.402 22.6685 57.7223L23.7675 58.5876C24.1743 58.9078 24.7638 58.8377 25.084 58.4309L26.7533 56.3107C27.0736 55.9039 27.0034 55.3145 26.5966 54.9942L25.4975 54.1289Z" fill="#00D664"/>
<path d="M34.1464 62.1316C34.5735 61.5891 35.3594 61.4956 35.9018 61.9227L37.0009 62.788C37.5433 63.215 37.6368 64.0009 37.2098 64.5433L35.5405 66.6635C35.1135 67.2059 34.3276 67.2995 33.7852 66.8724L32.6861 66.0071C32.1437 65.5801 32.0502 64.7941 32.4772 64.2517L34.1464 62.1316Z" fill="black"/>
<path fill-rule="evenodd" clip-rule="evenodd" d="M33.9009 61.9382C34.4347 61.2602 35.4171 61.1433 36.0951 61.6771L37.1942 62.5424C37.8722 63.0762 37.9891 64.0586 37.4553 64.7366L35.7861 66.8568C35.2522 67.5348 34.2699 67.6517 33.5918 67.1179L32.4928 66.2526C31.8147 65.7188 31.6978 64.7364 32.2317 64.0584L33.9009 61.9382ZM35.7085 62.1682C35.3017 61.8479 34.7122 61.918 34.3919 62.3249L32.7227 64.445C32.4024 64.8518 32.4726 65.4413 32.8794 65.7616L33.9785 66.6269C34.3853 66.9472 34.9747 66.877 35.295 66.4702L36.9642 64.35C37.2845 63.9432 37.2144 63.3538 36.8075 63.0335L35.7085 62.1682Z" fill="#00D664"/>
<path d="M39.2521 66.1512C39.6792 65.6088 40.4651 65.5153 41.0075 65.9423L42.1066 66.8076C42.649 67.2347 42.7425 68.0206 42.3155 68.563L40.6463 70.6832C40.2192 71.2256 39.4333 71.3191 38.8909 70.8921L37.7918 70.0268C37.2494 69.5997 37.1559 68.8138 37.5829 68.2714L39.2521 66.1512Z" fill="black"/>
<path fill-rule="evenodd" clip-rule="evenodd" d="M39.0066 65.9579C39.5404 65.2799 40.5228 65.163 41.2008 65.6968L42.2999 66.5621C42.9779 67.0959 43.0948 68.0783 42.561 68.7563L40.8918 70.8765C40.358 71.5545 39.3756 71.6714 38.6975 71.1376L37.5985 70.2723C36.9205 69.7385 36.8036 68.7561 37.3374 68.0781L39.0066 65.9579ZM40.8142 66.1878C40.4074 65.8676 39.8179 65.9377 39.4977 66.3445L37.8284 68.4647C37.5081 68.8715 37.5783 69.4609 37.9851 69.7812L39.0842 70.6465C39.491 70.9668 40.0804 70.8967 40.4007 70.4898L42.0699 68.3697C42.3902 67.9629 42.3201 67.3734 41.9133 67.0531L40.8142 66.1878Z" fill="#00D664"/>
<path d="M43.3581 3.13501L37.2581 21.135L38.5181 21.595L44.6181 3.57501L43.3581 3.13501ZM35.0781 12.755C37.5581 12.755 39.2181 10.895 39.2181 8.61501C39.2181 6.33501 37.5581 4.47501 35.0781 4.47501C32.5981 4.47501 30.9381 6.33501 30.9381 8.61501C30.9381 10.895 32.5981 12.755 35.0781 12.755ZM35.0781 11.415C33.4381 11.415 32.2781 10.135 32.2781 8.61501C32.2781 7.09501 33.4381 5.81501 35.0781 5.81501C36.7381 5.81501 37.8981 7.09501 37.8981 8.61501C37.8981 10.135 36.7381 11.415 35.0781 11.415ZM46.8981 19.775C49.3781 19.775 51.0381 17.915 51.0381 15.635C51.0381 13.355 49.3781 11.495 46.8981 11.495C44.4181 11.495 42.7581 13.355 42.7581 15.635C42.7581 17.915 44.4181 19.775 46.8981 19.775ZM46.8981 18.435C45.2381 18.435 44.0981 17.155 44.0981 15.635C44.0981 14.115 45.2381 12.835 46.8981 12.835C48.5581 12.835 49.6981 14.115 49.6981 15.635C49.6981 17.155 48.5581 18.435 46.8981 18.435Z" fill="white"/>
</g>
<defs>
<clipPath id="clip0">
<path d="M0 0H80V80H0V0Z" fill="white"/>
</clipPath>
</defs>
</svg>
