<svg width="24" height="24" fill="none" xmlns="http://www.w3.org/2000/svg"><path fill-rule="evenodd" clip-rule="evenodd" d="M11 4a7 7 0 100 14 7 7 0 000-14zm-9 7a9 9 0 1118 0 9 9 0 01-18 0z" fill="#13DA5A"/><path d="M14.261 9.495a2.212 2.212 0 00-.457-1.34 2.171 2.171 0 00-1.172-.779V6.75a.553.553 0 00-.16-.388.54.54 0 00-.926.388v.55h-1.087v-.55a.552.552 0 00-.159-.388.54.54 0 00-.768 0 .552.552 0 00-.16.388v.55H7.744a.54.54 0 00-.384.16.552.552 0 000 .777.54.54 0 00.384.16h.543v5.493h-.543a.54.54 0 00-.384.161.552.552 0 00.384.938h1.63v.549c0 .146.057.285.159.388a.54.54 0 00.927-.388v-.55h1.087v.55c0 .146.057.285.159.388a.54.54 0 00.768 0 .553.553 0 00.159-.388v-.627a2.15 2.15 0 001.01-.584 2.203 2.203 0 00.514-2.204 2.182 2.182 0 00-.645-.979 2.181 2.181 0 00.75-1.648zm-1.086 3.296c0 .291-.114.57-.318.777a1.08 1.08 0 01-.768.321H9.373v-2.197h2.716c.288 0 .564.116.768.322.204.206.318.486.318.777zm-3.802-2.197V8.397h2.716c.288 0 .564.116.768.322a1.105 1.105 0 010 1.553 1.08 1.08 0 01-.768.322H9.373z" fill="#13DA5A"/><path fill-rule="evenodd" clip-rule="evenodd" d="M9.39 6.22a.74.74 0 011.052 0c.14.14.217.331.217.53v.348h.686V6.75c0-.198.078-.388.217-.529a.74.74 0 011.053 0c.14.14.217.331.217.53v.477c.447.15.84.43 1.13.806.322.418.498.932.5 1.462v.001a2.403 2.403 0 01-.662 1.647 2.402 2.402 0 01-.015 3.323 2.352 2.352 0 01-.953.594v.477a.752.752 0 01-.217.53.74.74 0 01-1.053 0 .752.752 0 01-.216-.53v-.35h-.687v.35a.752.752 0 01-.217.53.74.74 0 01-1.27-.53v-.35H7.744a.74.74 0 01-.526-.22.752.752 0 010-1.057.74.74 0 01.526-.22h.343V8.596h-.343a.74.74 0 01-.526-.22.752.752 0 010-1.058.74.74 0 01.526-.22h1.43v-.35c0-.198.078-.388.217-.529zm.526.18a.34.34 0 00-.242.102.352.352 0 00-.101.247v.75h-1.83a.34.34 0 00-.242.101.352.352 0 000 .495.34.34 0 00.242.102h.743v5.892h-.743a.34.34 0 00-.242.102.352.352 0 000 .495.34.34 0 00.242.102h1.83v.75c0 .092.036.181.101.247a.34.34 0 00.484 0 .352.352 0 00.101-.248v-.75h1.486v.75c0 .093.037.182.102.248a.34.34 0 00.484 0 .352.352 0 00.1-.248v-.783l.152-.038a1.95 1.95 0 00.915-.53 2.002 2.002 0 00-.119-2.892l-.173-.15.174-.152a1.98 1.98 0 00.681-1.497 2.012 2.012 0 00-.416-1.218 1.97 1.97 0 00-1.064-.707l-.15-.039v-.782a.352.352 0 00-.1-.247.34.34 0 00-.484 0 .352.352 0 00-.101.247v.75h-1.487v-.75a.352.352 0 00-.101-.247.34.34 0 00-.242-.102zm-.743 1.797h2.916c.342 0 .67.137.91.381a1.305 1.305 0 010 1.835 1.28 1.28 0 01-.91.38H9.173V8.198zm.4.4v1.797h2.516a.88.88 0 00.626-.262.904.904 0 000-1.273.88.88 0 00-.626-.262H9.573zm-.4 2.895h2.916c.342 0 .67.138.91.381a1.305 1.305 0 010 1.835 1.28 1.28 0 01-.91.381H9.173v-2.597zm.4.4v1.797h2.516a.88.88 0 00.626-.262.905.905 0 000-1.272.88.88 0 00-.626-.263H9.573zM16.293 16.293a1 1 0 011.414 0l4 4a1 1 0 01-1.414 1.414l-4-4a1 1 0 010-1.414z" fill="#13DA5A"/></svg>