<svg width="24" height="24" fill="none" xmlns="http://www.w3.org/2000/svg"><path fill-rule="evenodd" clip-rule="evenodd" d="M9.366 8.014a.4.4 0 01-.343.249l-6.022.423a.4.4 0 00-.23.705l4.624 3.883a.4.4 0 01.13.403l-1.458 5.858a.4.4 0 00.6.436l5.121-3.198a.4.4 0 01.424 0l5.12 3.198a.4.4 0 00.6-.436l-1.458-5.858a.4.4 0 01.131-.403L21.23 9.39a.4.4 0 00-.23-.705l-6.022-.423a.4.4 0 01-.343-.25l-2.263-5.596a.4.4 0 00-.742 0L9.366 8.014zM12 6.834l-.78 1.93a2.4 2.4 0 01-2.057 1.494l-2.076.146 1.594 1.338a2.4 2.4 0 01.786 2.418l-.503 2.019 1.765-1.102a2.4 2.4 0 012.542 0l1.765 1.102-.502-2.02a2.4 2.4 0 01.785-2.417l1.594-1.338-2.076-.146a2.4 2.4 0 01-2.057-1.494L12 6.834z" fill="#13DA5A"/></svg>