<svg width="24" height="24" fill="none" xmlns="http://www.w3.org/2000/svg"><path d="M19.9 12.66a1 1 0 010-1.32l1.28-1.44a1 1 0 00.12-1.17l-2-3.46a1 1 0 00-1.07-.48l-1.88.38a1 1 0 01-1.15-.66l-.61-1.83a1 1 0 00-.95-.68h-4a1 1 0 00-1 .68l-.56 1.83a1 1 0 01-1.15.66L5 4.79a1 1 0 00-1 .48L2 8.73a1 1 0 00.1 1.17l1.27 1.44a1 1 0 010 1.32L2.1 14.1a1 1 0 00-.1 1.17l2 3.46a1 1 0 001.07.48l1.88-.38a1 1 0 011.15.66l.61 1.83a1 1 0 001 .68h4a1 1 0 00.95-.68l.61-1.83a1 1 0 011.15-.66l1.88.38a1 1 0 001.07-.48l2-3.46a1 1 0 00-.12-1.17l-1.35-1.44zM18.41 14l.8.9-1.28 2.22-1.18-.24a3 3 0 00-3.45 2L12.92 20h-2.56L10 18.86a3 3 0 00-3.45-2l-1.18.24-1.3-2.21.8-.9a3 3 0 000-4l-.8-.9 1.28-2.2 1.18.24a3 3 0 003.45-2L10.36 4h2.56l.38 1.14a3 3 0 003.45 2l1.18-.24 1.28 2.22-.8.9a3 3 0 000 3.98z" fill="#13DA5A"/><path d="M15.228 10.719a1.62 1.62 0 00-.392-1.043 1.884 1.884 0 00-1.005-.605v-.488a.41.41 0 00-.137-.302.488.488 0 00-.33-.125.488.488 0 00-.329.125.41.41 0 00-.136.302v.427h-.932v-.427a.41.41 0 00-.137-.302.488.488 0 00-.33-.125.488.488 0 00-.329.125.41.41 0 00-.136.302v.427H9.637a.488.488 0 00-.33.125.41.41 0 00-.136.302c0 .114.05.222.137.302.087.08.206.125.33.125h.465v4.272h-.466a.488.488 0 00-.33.125.41.41 0 00-.136.302c0 .114.05.222.137.302.087.08.206.125.33.125h1.397v.428c0 .113.05.221.136.302.088.08.206.125.33.125a.488.488 0 00.33-.125.41.41 0 00.136-.303v-.427h.932v.428c0 .113.049.221.136.302.088.08.206.125.33.125a.488.488 0 00.329-.125.41.41 0 00.136-.303v-.487c.329-.076.629-.233.866-.454.238-.222.405-.499.483-.8a1.56 1.56 0 00-.042-.915 1.693 1.693 0 00-.553-.76c.202-.16.363-.356.474-.577a1.58 1.58 0 00.17-.705zm-.932 2.563a.82.82 0 01-.273.604.976.976 0 01-.659.25h-2.329v-1.709h2.33c.247 0 .484.09.658.25a.82.82 0 01.273.605zm-3.261-1.709V9.864h2.33c.247 0 .484.09.658.25a.82.82 0 01.273.605.82.82 0 01-.273.604.976.976 0 01-.659.25h-2.329z" fill="#13DA5A"/><path fill-rule="evenodd" clip-rule="evenodd" d="M11.05 8.171A.669.669 0 0111.5 8c.17 0 .332.062.452.171.119.11.186.258.186.412v.271h.588v-.271c0-.154.067-.302.186-.412A.669.669 0 0113.365 8c.17 0 .332.062.451.171.12.11.186.258.186.412v.372c.383.115.721.333.97.626.276.326.426.725.428 1.137v.001a1.724 1.724 0 01-.186.769c-.095.19-.224.362-.381.512.212.202.373.445.468.713.114.323.13.668.045.997-.085.33-.267.632-.527.874-.228.212-.508.37-.817.462v.371a.558.558 0 01-.186.412.669.669 0 01-.451.171.669.669 0 01-.452-.171.558.558 0 01-.186-.412v-.271h-.588v.271a.558.558 0 01-.186.412.669.669 0 01-.452.171.669.669 0 01-.451-.171.558.558 0 01-.186-.412v-.271H9.637a.669.669 0 01-.451-.172.558.558 0 01-.186-.411c0-.154.067-.302.186-.412a.67.67 0 01.451-.17h.295V10.02h-.295a.669.669 0 01-.451-.172A.558.558 0 019 9.437c0-.154.067-.302.186-.411a.669.669 0 01.451-.172h1.227v-.271c0-.154.066-.302.186-.412zm.451.14a.307.307 0 00-.207.079.262.262 0 00-.087.193v.582h-1.57a.307.307 0 00-.207.08.262.262 0 00-.087.192c0 .073.032.142.087.193.055.05.13.079.207.079h.638v4.582h-.638a.307.307 0 00-.207.08.262.262 0 00-.087.192c0 .073.032.142.087.193.055.05.13.079.207.079h1.57v.582c0 .073.031.142.087.193.055.05.13.079.207.079a.308.308 0 00.208-.079.262.262 0 00.086-.193v-.582h1.275v.582c0 .073.032.142.087.193.056.05.13.079.208.079a.308.308 0 00.207-.079.262.262 0 00.087-.193v-.608l.13-.03c.297-.069.569-.211.785-.412.216-.201.367-.453.438-.728.07-.274.058-.562-.038-.83a1.538 1.538 0 00-.502-.692L14.323 12l.149-.117c.183-.144.33-.323.43-.524.101-.2.154-.42.155-.64a1.473 1.473 0 00-.357-.948 1.71 1.71 0 00-.913-.55l-.128-.03v-.608a.262.262 0 00-.087-.193.307.307 0 00-.207-.079.308.308 0 00-.208.079.262.262 0 00-.087.193v.582h-1.275v-.582a.261.261 0 00-.086-.193.308.308 0 00-.208-.079zm-.637 1.398h2.5c.294 0 .575.106.782.296.206.19.322.446.322.713a.968.968 0 01-.322.714c-.207.19-.488.296-.781.296h-2.501v-2.02zm.343.31v1.398h2.158a.795.795 0 00.537-.204.671.671 0 00.223-.494.671.671 0 00-.223-.495.795.795 0 00-.537-.204h-2.158zm-.343 2.253h2.5c.294 0 .575.106.782.296.206.19.322.446.322.713a.969.969 0 01-.322.714c-.207.19-.488.296-.781.296h-2.501v-2.02zm.343.31v1.398h2.158a.795.795 0 00.537-.204.671.671 0 00.223-.495.671.671 0 00-.223-.494.795.795 0 00-.537-.204h-2.158z" fill="#13DA5A"/></svg>