<svg width="28" height="28" viewBox="0 0 28 28" fill="none" xmlns="http://www.w3.org/2000/svg">
<path d="M1.3286 11.2575H7.94798C8.31356 11.2575 8.60992 11.5539 8.60992 11.9195C8.60992 12.2444 8.37576 12.5147 8.06696 12.5707L7.94798 12.5814H1.3286C0.963016 12.5814 0.666656 12.285 0.666656 11.9195C0.666656 11.5945 0.900817 11.3242 1.20961 11.2682L1.3286 11.2575H7.94798H1.3286ZM3.50838 3.50805C3.7382 3.27831 4.09489 3.25285 4.35284 3.43161L4.4445 3.50822L9.73799 8.80373C9.99644 9.06229 9.99636 9.4814 9.73781 9.73985C9.50798 9.96959 9.15129 9.99506 8.89335 9.81629L8.80169 9.73968L3.5082 4.44417C3.24974 4.18562 3.24982 3.7665 3.50838 3.50805ZM11.9196 0.666504C12.2446 0.666504 12.5148 0.900665 12.5709 1.20946L12.5816 1.32844V7.94783C12.5816 8.31341 12.2852 8.60977 11.9196 8.60977C11.5947 8.60977 11.3244 8.37561 11.2683 8.06681L11.2577 7.94783V1.32844C11.2577 0.962864 11.554 0.666504 11.9196 0.666504Z" fill="#13DA5A"/>
<path d="M18.2553 9.17725L9.17731 18.2553H18.2553L27.3333 9.17725H18.2553ZM18.2553 18.2553H27.3333L18.2553 27.3333H9.17731L18.2553 18.2553Z" fill="#13DA5A"/>
</svg>
