<?xml version="1.0" encoding="utf-8"?>
<svg width="100px" height="100px" fill="none" viewBox="0 0 28 28" xmlns="http://www.w3.org/2000/svg">
  <circle cx="14" cy="14" r="14" fill="#C2A633"/>
  <path fill-rule="evenodd" clip-rule="evenodd" d="M 13.85 21.561 L 8.78 21.561 L 8.78 14.821 L 6.993 14.821 L 6.993 13.169 L 8.78 13.169 L 8.78 6.428 L 13.131 6.428 L 13.211 6.428 C 14.469 6.423 20.979 6.396 20.979 14.121 C 20.979 22.159 13.85 21.561 13.85 21.561 Z M 13.636 9.226 L 11.635 9.226 L 11.635 13.169 L 14.783 13.169 L 14.783 14.82 L 11.635 14.82 L 11.635 18.764 L 13.754 18.764 C 14.365 18.765 18.16 18.769 18.154 14.176 C 18.148 9.527 14.384 9.226 13.636 9.226 Z" fill="white"/>
</svg>