<svg width="62" height="131" fill="none" xmlns="http://www.w3.org/2000/svg"><g clip-path="url(#clip0_9791_299171)" fill="#fff"><path d="M22.166 29.16a.608.608 0 01-.18-.44v-3.175h.42v3.175c0 .061.015.106.06.152.045.045.09.06.15.06s.105-.015.15-.06a.195.195 0 00.06-.151v-3.177h.42v3.177c0 .181-.06.317-.18.438a.599.599 0 01-.435.182.668.668 0 01-.465-.182zm8.103 16.847c0 1.71-1.186 3.086-2.626 3.086s-2.626-1.392-2.626-3.086c0-1.709 1.17-3.085 2.626-3.085 1.455 0 2.64 1.376 2.626 3.085zm-1.44 0c0-1.573-.526-2.843-1.186-2.843-.66 0-1.186 1.27-1.186 2.843s.526 2.844 1.186 2.844c.66 0 1.185-1.27 1.185-2.844zm-7.339-4.34h1.08l.496-6.383.495 6.383h1.08l.826-11.464h-1.02l-.39 7.789-.496-7.79h-1.05l-.48 7.79-.39-7.79h-1.006l.855 11.465zm-2.356-11.45l1.02 11.465h-.945l-.18-2.405h-1.05l-.195 2.405h-.976l1.02-11.464h1.306zm-.225 7.775l-.39-6.126-.405 6.126h.795zm18.143-8.833a.643.643 0 01-.18-.454V26.09c0-.166.06-.318.18-.439a.575.575 0 01.435-.181c.165 0 .315.06.435.181s.18.273.18.439v2.616c0 .182-.06.333-.18.454a.575.575 0 01-.435.182.575.575 0 01-.435-.182zm.225-.454c0 .06.015.106.06.152.045.045.09.06.15.06s.105-.015.15-.06a.195.195 0 00.06-.152V26.09a.195.195 0 00-.06-.151.192.192 0 00-.15-.06.192.192 0 00-.15.06.195.195 0 00-.06.151v2.616zm-15.757.152h-.525v-1.24h.525v-.424h-.525v-1.24h.525v-.424h-.945v3.751h.945v-.423zM35.07 46.99l-.374.59a.477.477 0 01-.36.167h-2.927s3.437-1.619 3.587-3.176c.15-1.558-1.096-1.573-2.176-1.513-1.426.076-2.386 1.059-2.431 1.86-.045.802.435 1.483 1.5 1.256.976-.197 1.156-1.014 1.156-1.014s-.93.832-1.32.06c-.886-1.738 2.19-3.266 1.845-.407-.105.877-3.181 3.417-3.181 3.417v.65h4.172l.63-1.905-.12.015zM24.147 29.295h-.42v-3.75h.615c.18 0 .33.06.45.181s.18.257.18.439v.816c0 .121-.03.227-.09.318a.649.649 0 01-.224.227l.33 1.754h-.42l-.316-1.664h-.105v1.68zm-.015-2.087h.21c.06 0 .105-.015.15-.06a.195.195 0 00.06-.152v-.831a.195.195 0 00-.06-.152.192.192 0 00-.15-.06h-.21v1.255zm8.284.09l.54 1.982h.3v-3.75h-.42v2.026l-.54-2.027h-.285v3.751h.405V27.3zm-2.611 1.559h-.526v-1.24h.526v-.424h-.526v-1.24h.526v-.424h-.946v3.751h.946v-.423zm.45 1.36h1.515c.42 0 .78.182 1.08.56.301.378.451.832.451 1.362v2.525c0 .348-.075.68-.21.968a1.61 1.61 0 01-.555.696l.81 5.354h-1.02l-.766-5.097h-.285v5.097h-1.02V30.218zm.99 5.083h.495c.15 0 .286-.076.376-.197a.663.663 0 00.15-.454v-2.526a.663.663 0 00-.15-.453.468.468 0 00-.36-.182h-.511V35.3zm-.645-6.02h-.39l.42-3.75h.54l.42 3.75h-.39l-.075-.786h-.435l-.09.786zm.15-1.21h.33l-.165-1.996-.165 1.996zm3.631 1.27c.166 0 .316-.06.436-.18a.608.608 0 00.18-.44v-.861h-.42v.861c0 .061-.015.106-.06.152a.192.192 0 01-.15.06.192.192 0 01-.15-.06.195.195 0 01-.06-.151v-2.602c0-.06.014-.106.06-.151a.192.192 0 01.15-.06c.06 0 .105.015.15.06s.06.09.06.151v.787h.42v-.787a.618.618 0 00-.18-.453.575.575 0 00-.436-.182c-.18 0-.33.06-.45.181a.643.643 0 00-.18.454v2.602c0 .166.06.317.18.438s.27.182.45.182zm-8.763-.18a.643.643 0 01-.18-.455V26.09c0-.166.06-.318.18-.439a.575.575 0 01.435-.181c.165 0 .315.06.435.181s.18.273.18.439v2.616c0 .182-.06.333-.18.454a.575.575 0 01-.435.182.598.598 0 01-.435-.182zm.225-.455c0 .06.015.106.06.152.045.045.09.06.15.06s.105-.015.15-.06a.195.195 0 00.06-.152V26.09a.195.195 0 00-.06-.151.192.192 0 00-.15-.06.192.192 0 00-.15.06.195.195 0 00-.06.151v2.616zm1.726.59h-.42v-3.75h.63c.165 0 .315.06.435.181s.18.272.18.439v.831c0 .167-.06.318-.18.439a.575.575 0 01-.435.181h-.21v1.68zm0-2.087h.21c.06 0 .105-.015.15-.06a.195.195 0 00.06-.152v-.831a.195.195 0 00-.06-.152.192.192 0 00-.15-.06h-.21v1.255zm9.454 3.57c.285.378.435.831.435 1.36v7.623c0 .544-.135.983-.435 1.361-.285.363-.646.56-1.08.56H34.41V30.218h1.531c.42 0 .78.181 1.08.56zm-.57 1.36a.782.782 0 00-.15-.453c-.106-.136-.226-.197-.36-.197h-.511v8.908h.51c.15 0 .27-.06.36-.181a.663.663 0 00.15-.454V32.14zm-10.595 9.544l1.02-11.464h1.306l1.02 11.464h-.945l-.18-2.405h-1.05l-.196 2.405h-.975zm1.306-3.69h.795l-.39-6.126-.405 6.126zm9.243-8.712v-.423h-.525v-1.24h.525v-.424h-.525v-1.24h.51v-.424h-.945v3.751h.96zm-11.93 18.3a.478.478 0 01-.36.167H21.19s3.436-1.619 3.587-3.176c.15-1.558-1.096-1.573-2.176-1.513-1.426.076-2.386 1.059-2.431 1.86-.045.802.435 1.483 1.5 1.256.976-.197 1.156-1.014 1.156-1.014s-.93.832-1.32.06c-.886-1.738 2.19-3.266 1.845-.407-.105.877-3.181 3.417-3.181 3.417v.65h4.171l.63-1.905h-.12l-.374.605zM61.392 75l-23.71-8.061L18.819 75l-4.231-14.58H1.216l6.648-22.928v-.03l-1.47-5.293-5.103-17.59H14.512L18.76 0h42.557L50.468 37.356 61.392 75zM14.346 59.816L8.18 38.58 2.012 59.815h12.335zm35.46-22.324l-6.483-22.307H14.963L8.495 37.492 14.963 59.8h28.361l6.483-22.307zm.315-1.073L60.522.605H19.208L15.143 14.58h28.631l6.348 21.839zm-9.304-6.17a1.208 1.208 0 00-.735-.258c-.39 0-.736.181-1.036.56-.285.378-.435.831-.435 1.36v1.65c0 .438.045.816.15 1.149.105.332.225.605.375.831.15.227.346.484.586.802.3.378.51.696.645.968s.21.59.21.953v1.663c0 .182-.06.333-.15.454a.414.414 0 01-.33.182c-.135 0-.24-.06-.33-.182a.74.74 0 01-.135-.454v-1.784h-1.02v1.784c0 .545.134.983.434 1.362.3.363.646.56 1.05.56.406 0 .751-.182 1.051-.56.285-.379.435-.817.435-1.346v-1.664c0-.439-.045-.817-.15-1.15a3.285 3.285 0 00-.375-.831c-.15-.227-.345-.484-.585-.802-.3-.378-.51-.696-.645-.968a2.12 2.12 0 01-.21-.953v-1.648c0-.166.045-.333.135-.454.105-.136.21-.197.33-.197.12 0 .24.076.33.197.105.121.15.272.15.454v2.284h1.02v-2.284c0-.348-.075-.666-.21-.968-.15-.303-.33-.545-.555-.71z"/><path d="M39.723 47.716c.135 0 .27-.06.36-.166l.375-.605h.12l-.63 1.906h-4.172v-.65s3.076-2.542 3.181-3.419c.346-2.858-2.73-1.33-1.845.409.39.77 1.32-.06 1.32-.06s-.18.816-1.155 1.012c-1.066.227-1.546-.453-1.5-1.255.044-.801 1.005-1.785 2.43-1.86 1.08-.06 2.326-.045 2.176 1.512-.15 1.558-3.587 3.176-3.587 3.176h2.927z"/></g><path stroke="#fff" stroke-width=".728" d="M.722 82.636h61.165"/><path d="M19.37 100v-7.094h3.183c.817 0 1.445.165 1.885.496.439.324.659.77.659 1.338 0 .385-.088.71-.264.973a1.673 1.673 0 01-.69.608c-.29.142-.604.213-.942.213l.183-.304c.405 0 .763.07 1.074.213.31.142.557.351.74.628.182.27.273.608.273 1.014 0 .608-.23 1.08-.689 1.419-.452.33-1.128.496-2.027.496H19.37zm1.014-.82h2.33c.562 0 .99-.096 1.288-.285.297-.189.446-.486.446-.891 0-.413-.149-.713-.446-.903-.297-.189-.726-.283-1.287-.283h-2.423v-.821h2.17c.513 0 .912-.095 1.195-.284.284-.19.426-.473.426-.851 0-.379-.142-.663-.426-.852-.284-.189-.682-.284-1.196-.284h-2.077v5.453zm7.376-3.214h3.649v.862H27.76v-.862zm.092 3.152h4.135V100h-5.149v-7.094h5.007v.881h-3.993v5.331zm7.64.963c-.54 0-1.057-.081-1.55-.243-.493-.169-.882-.385-1.166-.649l.375-.79c.27.236.615.432 1.034.588.42.155.855.233 1.308.233.412 0 .746-.048 1.003-.142.257-.095.446-.223.568-.385a.948.948 0 00.182-.568.76.76 0 00-.243-.588 1.655 1.655 0 00-.618-.355 6.065 6.065 0 00-.831-.243 16.814 16.814 0 01-.923-.233 4.49 4.49 0 01-.841-.355 1.75 1.75 0 01-.608-.567c-.156-.243-.233-.554-.233-.933 0-.364.094-.699.284-1.003.196-.31.493-.557.891-.74.406-.189.92-.284 1.541-.284.412 0 .82.054 1.226.163a3.42 3.42 0 011.054.466l-.334.81a3.16 3.16 0 00-.963-.435 3.639 3.639 0 00-.983-.142c-.399 0-.726.05-.983.152-.257.101-.446.236-.568.405a.986.986 0 00-.172.568c0 .25.078.45.233.598.162.148.368.267.618.355.257.087.538.169.842.243.304.067.608.145.912.233.31.088.591.203.841.345.257.141.463.33.618.567.156.237.233.54.233.912 0 .358-.098.693-.294 1.004-.196.304-.5.55-.912.74-.405.182-.919.273-1.54.273zm5.335-.081v-6.213h-2.432v-.882h5.868v.882H41.83V100h-1.004zm-30.592 10v-6.213H7.803v-.882h5.868v.882h-2.432V110h-1.004zm4.337 0v-7.095h2.767c.622 0 1.152.098 1.591.294.44.196.777.48 1.014.852.236.371.355.814.355 1.327 0 .514-.119.957-.355 1.328a2.275 2.275 0 01-1.014.841c-.439.196-.97.294-1.59.294h-2.21l.456-.466V110h-1.014zm4.743 0l-1.804-2.574h1.085L20.42 110h-1.105zm-3.73-2.524l-.455-.496h2.179c.648 0 1.138-.139 1.47-.416.337-.284.506-.679.506-1.186 0-.506-.169-.898-.507-1.175-.33-.277-.82-.416-1.47-.416H15.13l.456-.507v4.196zM20.66 110l3.213-7.095h1.003L28.098 110h-1.064l-2.868-6.527h.405L21.703 110h-1.044zm1.368-1.774l.274-.81h3.993l.294.81h-4.56zM28.954 110v-7.095h2.99c.756 0 1.422.149 1.996.446.581.298 1.03.713 1.348 1.247.325.534.487 1.152.487 1.855 0 .702-.162 1.321-.487 1.855a3.254 3.254 0 01-1.348 1.246c-.574.297-1.24.446-1.996.446h-2.99zm1.013-.882h1.916c.588 0 1.094-.111 1.52-.334a2.435 2.435 0 001.004-.933c.236-.405.354-.871.354-1.398 0-.534-.118-1-.355-1.399a2.432 2.432 0 00-1.003-.932c-.426-.223-.932-.335-1.52-.335h-1.916v5.331zm7.157.882v-7.095h1.014V110h-1.014zm2.935 0v-7.095h.831l4.693 5.828h-.436v-5.828h1.014V110h-.831l-4.693-5.828h.436V110h-1.014zm11.225.081a4.21 4.21 0 01-1.51-.263 3.666 3.666 0 01-1.196-.76 3.605 3.605 0 01-.79-1.156 3.623 3.623 0 01-.284-1.449c0-.527.094-1.01.284-1.45.189-.439.452-.82.79-1.145a3.557 3.557 0 011.206-.76c.46-.182.966-.274 1.52-.274.561 0 1.075.092 1.541.274.466.182.861.456 1.186.821l-.629.628a2.738 2.738 0 00-.952-.618 2.95 2.95 0 00-1.105-.203c-.405 0-.784.068-1.135.203a2.75 2.75 0 00-.902.568c-.25.243-.446.533-.588.871a2.846 2.846 0 00-.203 1.085c0 .385.068.746.203 1.084.142.331.338.622.588.872.257.243.557.432.902.567.344.136.72.203 1.125.203.378 0 .74-.057 1.084-.172a2.74 2.74 0 00.973-.598l.578.77a3.657 3.657 0 01-1.236.679c-.467.149-.95.223-1.45.223zm1.713-1.034v-2.635h.973v2.767l-.973-.132zM3.999 120v-7.095h2.767c.621 0 1.152.098 1.59.294.44.196.778.48 1.014.852.237.371.355.814.355 1.327 0 .514-.118.957-.355 1.328a2.343 2.343 0 01-1.013.852c-.44.195-.97.293-1.591.293h-2.21l.456-.476V120H4zm1.013-2.524l-.456-.506h2.18c.648 0 1.138-.139 1.469-.416.338-.277.507-.669.507-1.176 0-.506-.17-.898-.507-1.175-.331-.277-.821-.416-1.47-.416H4.556l.456-.507v4.196zm6 2.524v-7.095h1.013v6.213h3.841V120h-4.855zm4.74 0l3.213-7.095h1.003L23.191 120h-1.064l-2.868-6.527h.405L16.796 120h-1.044zm1.368-1.774l.274-.81h3.993l.294.81h-4.56zM25.1 120v-6.213h-2.433v-.882h5.868v.882h-2.432V120h-1.004zm5.248-3.74h3.66v.872h-3.66v-.872zm.102 3.74h-1.014v-7.095h5.007v.882H30.45V120zm8.34.081c-.54 0-1.043-.091-1.51-.273a3.653 3.653 0 01-1.195-.761 3.59 3.59 0 01-.791-1.155 3.598 3.598 0 01-.284-1.439c0-.52.095-1 .284-1.439.19-.44.453-.821.79-1.146a3.564 3.564 0 011.197-.77c.459-.182.962-.274 1.51-.274.54 0 1.037.092 1.49.274.459.176.858.429 1.196.76.344.325.608.706.79 1.145.19.44.284.923.284 1.45 0 .527-.095 1.01-.284 1.449a3.401 3.401 0 01-.79 1.156 3.667 3.667 0 01-1.196.76c-.453.175-.95.263-1.49.263zm0-.902c.392 0 .754-.067 1.085-.203a2.562 2.562 0 001.45-1.439c.141-.331.212-.692.212-1.084 0-.392-.07-.754-.213-1.085a2.508 2.508 0 00-.577-.861 2.489 2.489 0 00-.872-.578 2.846 2.846 0 00-1.084-.203 2.95 2.95 0 00-1.105.203 2.618 2.618 0 00-.872.578c-.25.243-.446.53-.587.861a2.844 2.844 0 00-.203 1.085c0 .392.067.753.203 1.084.141.331.337.622.587.872.25.243.54.432.872.567.338.136.706.203 1.105.203zm5.107.821v-7.095h2.767c.622 0 1.152.098 1.591.294.44.196.777.48 1.014.852.236.371.355.814.355 1.327 0 .514-.119.957-.355 1.328a2.275 2.275 0 01-1.014.841c-.439.196-.97.294-1.59.294h-2.21l.456-.466V120h-1.014zm4.743 0l-1.804-2.574h1.085L49.745 120H48.64zm-3.73-2.524l-.455-.496h2.179c.648 0 1.138-.139 1.47-.416.337-.284.506-.679.506-1.186 0-.506-.169-.898-.507-1.175-.33-.277-.82-.416-1.47-.416h-2.178l.456-.507v4.196zM51.059 120v-7.095h.831l3.183 5.362h-.446l3.142-5.362h.83L58.61 120h-.973l-.01-5.564h.233l-2.797 4.703h-.466l-2.818-4.703h.253V120h-.973zm-31.502 10v-1.064l2.736-2.585c.217-.196.375-.371.477-.527.101-.155.169-.297.203-.425.04-.129.06-.247.06-.355 0-.284-.098-.5-.294-.649-.189-.155-.47-.233-.84-.233a2.01 2.01 0 00-.832.173c-.25.114-.463.293-.639.537l-1.195-.771c.27-.405.648-.726 1.135-.962.486-.237 1.047-.355 1.682-.355.527 0 .987.088 1.379.263.398.169.706.409.922.72.223.311.334.682.334 1.115 0 .23-.03.459-.09.689a2.13 2.13 0 01-.346.709c-.168.25-.418.531-.75.842l-2.27 2.138-.314-.598h4.003V130h-5.361zm8.877.122a2.908 2.908 0 01-1.561-.426c-.46-.291-.821-.709-1.084-1.257-.264-.547-.396-1.209-.396-1.986 0-.777.132-1.439.396-1.987.263-.547.625-.963 1.084-1.246.46-.291.98-.436 1.56-.436.589 0 1.109.145 1.562.436.459.283.82.699 1.084 1.246.264.548.395 1.21.395 1.987 0 .777-.131 1.439-.395 1.986-.264.548-.625.966-1.084 1.257-.453.284-.973.426-1.561.426zm0-1.389c.277 0 .517-.078.72-.233.209-.155.37-.402.486-.74.121-.338.182-.773.182-1.307 0-.534-.06-.97-.182-1.308-.115-.337-.277-.584-.487-.74a1.15 1.15 0 00-.72-.233c-.27 0-.51.078-.719.233-.203.156-.365.403-.486.74-.115.338-.173.774-.173 1.308s.058.969.173 1.307c.121.338.283.585.486.74.21.155.45.233.72.233zM31.968 130v-1.064l2.736-2.585c.217-.196.375-.371.477-.527.101-.155.169-.297.203-.425.04-.129.06-.247.06-.355 0-.284-.098-.5-.294-.649-.189-.155-.47-.233-.84-.233a2.01 2.01 0 00-.832.173c-.25.114-.463.293-.639.537l-1.195-.771c.27-.405.648-.726 1.135-.962.486-.237 1.047-.355 1.682-.355.527 0 .987.088 1.379.263.398.169.706.409.922.72.223.311.334.682.334 1.115 0 .23-.03.459-.09.689a2.13 2.13 0 01-.346.709c-.168.25-.418.531-.75.842l-2.27 2.138-.314-.598h4.003V130h-5.361zm5.775 0v-1.064l2.737-2.585c.216-.196.375-.371.476-.527.102-.155.17-.297.203-.425.04-.129.06-.247.06-.355 0-.284-.097-.5-.293-.649-.19-.155-.47-.233-.841-.233a2.01 2.01 0 00-.831.173c-.25.114-.463.293-.639.537l-1.196-.771c.27-.405.649-.726 1.135-.962.487-.237 1.047-.355 1.683-.355.527 0 .986.088 1.378.263.399.169.706.409.922.72.223.311.335.682.335 1.115 0 .23-.03.459-.091.689a2.128 2.128 0 01-.345.709c-.169.25-.419.531-.75.842l-2.27 2.138-.314-.598h4.003V130h-5.362z" fill="#fff"/><defs><clipPath id="clip0_9791_299171"><path fill="#fff" transform="translate(1.217)" d="M0 0h60.175v75H0z"/></clipPath></defs></svg>