<svg width="62" height="131" fill="none" xmlns="http://www.w3.org/2000/svg"><g clip-path="url(#clip0_9791_299173)"><path d="M21.722 29.16a.608.608 0 01-.18-.44v-3.175h.42v3.175c0 .061.015.106.06.152.045.045.09.06.15.06s.105-.015.15-.06a.195.195 0 00.06-.151v-3.177h.42v3.177c0 .181-.06.317-.18.438a.599.599 0 01-.435.182.668.668 0 01-.465-.182zm8.103 16.847c0 1.71-1.185 3.086-2.626 3.086-1.44 0-2.626-1.392-2.626-3.086 0-1.709 1.17-3.085 2.626-3.085s2.641 1.376 2.626 3.085zm-1.44 0c0-1.573-.525-2.843-1.186-2.843-.66 0-1.185 1.27-1.185 2.843s.525 2.844 1.185 2.844 1.186-1.27 1.186-2.844zm-7.338-4.34h1.08l.495-6.383.496 6.383h1.08l.825-11.464h-1.02l-.39 7.789-.495-7.79h-1.05l-.48 7.79-.391-7.79h-1.005l.855 11.465zm-2.356-11.45l1.02 11.465h-.945l-.18-2.405h-1.05l-.196 2.405h-.975l1.02-11.464h1.306zm-.225 7.775l-.39-6.126-.405 6.126h.795zm18.142-8.833a.643.643 0 01-.18-.454V26.09c0-.166.06-.318.18-.439a.575.575 0 01.435-.181c.165 0 .316.06.435.181.12.121.18.273.18.439v2.616c0 .182-.06.333-.18.454a.575.575 0 01-.435.182.575.575 0 01-.435-.182zm.225-.454c0 .06.015.106.06.152.045.045.09.06.15.06s.105-.015.15-.06a.195.195 0 00.06-.152V26.09a.195.195 0 00-.06-.151.192.192 0 00-.15-.06.192.192 0 00-.15.06.195.195 0 00-.06.15v2.617zm-15.756.152h-.525v-1.24h.525v-.424h-.525v-1.24h.525v-.424h-.946v3.751h.946v-.423zm13.55 18.133l-.375.59a.478.478 0 01-.36.166h-2.926s3.436-1.618 3.586-3.175c.15-1.558-1.095-1.573-2.176-1.513-1.425.076-2.385 1.059-2.43 1.86-.046.802.435 1.483 1.5 1.256.976-.197 1.155-1.014 1.155-1.014s-.93.832-1.32.06c-.885-1.738 2.19-3.266 1.846-.407-.105.877-3.182 3.417-3.182 3.417v.65h4.172l.63-1.905-.12.015zM23.703 29.295h-.42v-3.75h.615c.18 0 .33.06.45.181.12.12.18.257.18.439v.816c0 .121-.03.227-.09.318a.648.648 0 01-.225.227l.33 1.754h-.42l-.315-1.664h-.105v1.68zm-.015-2.087h.21c.06 0 .105-.015.15-.06a.195.195 0 00.06-.152v-.831a.195.195 0 00-.06-.152.192.192 0 00-.15-.06h-.21v1.255zm8.283.09l.54 1.982h.3v-3.75h-.42v2.026l-.54-2.027h-.285v3.751h.405V27.3zm-2.61 1.559h-.526v-1.24h.525v-.424h-.525v-1.24h.525v-.424h-.945v3.751h.945v-.423zm.45 1.36h1.515c.42 0 .78.182 1.08.56.3.378.45.832.45 1.361v2.526c0 .348-.074.68-.21.968-.135.303-.315.53-.555.696l.81 5.354h-1.02l-.765-5.097h-.285v5.097h-1.02V30.218zm.99 5.083h.495c.15 0 .285-.076.375-.197a.663.663 0 00.15-.454v-2.526a.663.663 0 00-.15-.453.468.468 0 00-.36-.182h-.51V35.3zm-.645-6.02h-.39l.42-3.75h.54l.42 3.75h-.39l-.075-.786h-.435l-.09.786zm.15-1.21h.33l-.165-1.996-.165 1.996zm3.631 1.27c.165 0 .315-.06.435-.18a.608.608 0 00.18-.44v-.862h-.42v.863c0 .06-.015.105-.06.15a.192.192 0 01-.15.061.192.192 0 01-.15-.06.195.195 0 01-.06-.151v-2.602c0-.06.015-.106.06-.151a.192.192 0 01.15-.06c.06 0 .105.015.15.06s.06.09.06.151v.787h.42v-.787a.618.618 0 00-.18-.453.575.575 0 00-.435-.182c-.18 0-.33.06-.45.181a.643.643 0 00-.18.454v2.602c0 .166.06.317.18.438s.27.182.45.182zm-8.763-.18a.643.643 0 01-.18-.455V26.09c0-.166.06-.318.18-.439a.575.575 0 01.435-.181c.165 0 .315.06.435.181s.18.273.18.439v2.616c0 .182-.06.333-.18.454a.575.575 0 01-.435.182.599.599 0 01-.436-.182zm.225-.455c0 .06.015.106.06.152.045.045.09.06.15.06s.105-.015.15-.06a.195.195 0 00.06-.152V26.09a.195.195 0 00-.06-.151.192.192 0 00-.15-.06.192.192 0 00-.15.06.195.195 0 00-.06.15v2.617zm1.725.59h-.42v-3.75h.63c.166 0 .316.06.436.181.12.12.18.272.18.439v.831c0 .167-.06.318-.18.439a.575.575 0 01-.436.181h-.21v1.68zm0-2.087h.21c.06 0 .105-.015.15-.06a.195.195 0 00.06-.152v-.831a.195.195 0 00-.06-.152.192.192 0 00-.15-.06h-.21v1.255zm9.454 3.57c.285.378.435.831.435 1.36v7.623c0 .544-.135.983-.435 1.361-.285.363-.645.56-1.08.56h-1.53V30.218h1.53c.42 0 .78.181 1.08.56zm-.57 1.36a.782.782 0 00-.15-.453c-.105-.136-.225-.197-.36-.197h-.51v8.908h.51c.15 0 .27-.06.36-.181a.663.663 0 00.15-.454v-7.623zm-10.594 9.544l1.02-11.464h1.306l1.02 11.464h-.945l-.18-2.405h-1.05l-.196 2.405h-.975zm1.305-3.69h.796l-.39-6.126-.406 6.126zm9.244-8.712v-.423h-.525v-1.24h.525v-.424h-.525v-1.24h.51v-.424h-.946v3.751h.96zm-11.93 18.3a.478.478 0 01-.36.166h-2.926s3.436-1.618 3.586-3.175c.15-1.558-1.095-1.573-2.176-1.513-1.425.076-2.386 1.059-2.43 1.86-.046.802.434 1.483 1.5 1.256.975-.197 1.155-1.014 1.155-1.014s-.93.832-1.32.06c-.886-1.738 2.19-3.266 1.846-.407-.105.877-3.182 3.417-3.182 3.417v.65h4.172l.63-1.905h-.12l-.375.605zM60.948 75l-23.71-8.061L18.376 75l-4.232-14.58H.774L7.42 37.492v-.03l-1.47-5.293-5.102-17.59h13.22L18.316 0h42.557l-10.85 37.356L60.949 75zM13.904 59.816L7.736 38.58 1.57 59.815h12.335zm35.46-22.324L42.88 15.185H14.519L8.052 37.492 14.519 59.8h28.362l6.482-22.308zm.315-1.073L60.078.605H18.766L14.699 14.58h28.632l6.347 21.839zM37.013 48.125v-5.082l-.225.09a7.6 7.6 0 01-1.62.454l-.54.091v.212l.96-.03v4.25c0 .317-.255.59-.586.59h-.375v.18H38.003v-.18h-.39a.62.62 0 01-.6-.575zm3.362-17.877a1.21 1.21 0 00-.736-.257c-.39 0-.735.181-1.035.56-.285.378-.435.831-.435 1.36v1.65c0 .438.045.816.15 1.149.105.332.225.605.375.831.15.227.345.484.585.802.3.378.51.696.645.968.136.272.21.59.21.953v1.663c0 .182-.06.333-.15.454a.414.414 0 01-.33.182c-.135 0-.24-.06-.33-.182a.739.739 0 01-.135-.454v-1.784h-1.02v1.784c0 .545.135.983.435 1.362.3.362.645.56 1.05.56.406 0 .75-.182 1.05-.56.286-.379.436-.817.436-1.346v-1.664c0-.439-.045-.817-.15-1.15a3.282 3.282 0 00-.375-.831c-.15-.227-.345-.484-.585-.802-.3-.378-.51-.696-.646-.968a2.119 2.119 0 01-.21-.953v-1.648a.77.77 0 01.135-.454c.105-.136.21-.197.33-.197.12 0 .24.076.33.197.106.121.15.272.15.454v2.284h1.021v-2.284c0-.348-.075-.666-.21-.968-.15-.303-.33-.545-.555-.711z" fill="#fff"/></g><path stroke="#fff" stroke-width=".728" d="M.278 82.636h61.165"/><path d="M18.927 100v-7.095h3.182c.818 0 1.446.166 1.885.497.44.324.66.77.66 1.338 0 .385-.089.71-.264.973a1.673 1.673 0 01-.69.608 2.12 2.12 0 01-.942.213l.182-.304c.406 0 .764.07 1.075.213.31.142.557.351.74.628.182.27.273.608.273 1.014 0 .608-.23 1.08-.69 1.418-.452.332-1.128.497-2.026.497h-3.385zm1.013-.82h2.331c.561 0 .99-.096 1.287-.285.298-.189.446-.486.446-.892 0-.412-.148-.712-.446-.902-.297-.189-.726-.283-1.287-.283H19.85v-.821h2.169c.513 0 .912-.095 1.196-.284.284-.19.426-.473.426-.851 0-.379-.142-.663-.426-.852-.284-.189-.683-.284-1.196-.284H19.94v5.453zm7.377-3.214h3.649v.862h-3.65v-.862zm.091 3.152h4.135V100h-5.148v-7.095H31.4v.882h-3.993v5.331zm7.641.963c-.54 0-1.057-.081-1.55-.243-.494-.169-.882-.385-1.166-.649l.375-.79c.27.236.615.432 1.034.588a3.73 3.73 0 001.307.233c.412 0 .747-.048 1.004-.142.256-.095.446-.223.567-.385a.948.948 0 00.183-.568.76.76 0 00-.244-.588 1.654 1.654 0 00-.618-.355 6.083 6.083 0 00-.83-.243 16.635 16.635 0 01-.923-.233 4.49 4.49 0 01-.841-.355 1.75 1.75 0 01-.608-.567c-.156-.243-.234-.554-.234-.933 0-.364.095-.699.284-1.003.196-.31.493-.557.892-.74.405-.189.919-.284 1.54-.284.413 0 .822.054 1.227.163a3.42 3.42 0 011.054.466l-.335.81a3.163 3.163 0 00-.962-.435 3.64 3.64 0 00-.983-.142c-.4 0-.727.05-.983.152-.257.101-.447.236-.568.405a.986.986 0 00-.172.568c0 .25.077.45.233.598.162.148.368.267.618.354.257.088.537.17.841.244.304.067.608.145.912.233.311.088.591.203.841.345.257.141.463.33.619.567.155.236.233.54.233.912 0 .358-.098.693-.294 1.004-.196.304-.5.55-.912.74-.406.182-.92.273-1.54.273zm5.335-.081v-6.213H37.95v-.882h5.868v.882h-2.432V100h-1.003zM9.792 110v-6.213H7.359v-.882h5.869v.882h-2.433V110H9.792zm4.337 0v-7.095h2.767c.621 0 1.152.098 1.59.294.44.196.778.48 1.014.852.237.371.355.814.355 1.327 0 .514-.118.956-.355 1.328a2.276 2.276 0 01-1.013.841c-.44.196-.97.294-1.591.294h-2.21l.456-.466V110H14.13zm4.743 0l-1.804-2.574h1.084L19.977 110h-1.105zm-3.73-2.524l-.456-.496h2.18c.648 0 1.138-.139 1.469-.416.338-.284.507-.679.507-1.186 0-.506-.17-.898-.507-1.175-.331-.277-.821-.416-1.47-.416h-2.179l.456-.507v4.196zM20.215 110l3.213-7.095h1.004L27.655 110H26.59l-2.868-6.527h.406L21.259 110h-1.044zm1.369-1.774l.273-.81h3.994l.294.81h-4.561zM28.51 110v-7.095h2.99c.757 0 1.422.149 1.997.446.58.298 1.03.713 1.348 1.247.324.534.486 1.152.486 1.855 0 .702-.162 1.321-.486 1.854a3.25 3.25 0 01-1.348 1.247c-.575.297-1.24.446-1.997.446h-2.99zm1.014-.882h1.915c.588 0 1.095-.111 1.52-.334a2.435 2.435 0 001.004-.933c.237-.405.355-.871.355-1.398 0-.534-.118-1-.355-1.399a2.432 2.432 0 00-1.003-.932c-.426-.223-.933-.335-1.52-.335h-1.916v5.331zm7.157.882v-7.095h1.014V110H36.68zm2.935 0v-7.095h.83l4.694 5.828h-.436v-5.828h1.013V110h-.83l-4.693-5.828h.435V110h-1.013zm11.225.081a4.21 4.21 0 01-1.51-.263 3.653 3.653 0 01-1.196-.761 3.59 3.59 0 01-.79-1.155 3.625 3.625 0 01-.285-1.449c0-.527.095-1.01.284-1.45.19-.439.453-.821.79-1.145a3.557 3.557 0 011.207-.76c.46-.182.966-.274 1.52-.274.56 0 1.074.092 1.54.274.467.182.862.456 1.186.821l-.628.628a2.724 2.724 0 00-.953-.618 2.95 2.95 0 00-1.104-.203c-.406 0-.784.068-1.136.203a2.751 2.751 0 00-.902.568c-.25.243-.445.533-.587.871a2.844 2.844 0 00-.203 1.085c0 .385.067.746.203 1.084.142.331.337.622.587.872.257.243.558.432.902.567.345.136.72.203 1.125.203.379 0 .74-.057 1.085-.172a2.74 2.74 0 00.973-.598l.578.77a3.658 3.658 0 01-1.237.679c-.466.149-.95.223-1.45.223zm1.713-1.034v-2.635h.973v2.767l-.973-.132zM3.555 120v-7.095h2.767c.622 0 1.152.098 1.591.294.44.196.777.48 1.014.852.236.371.355.814.355 1.327 0 .514-.119.956-.355 1.328a2.334 2.334 0 01-1.014.851c-.439.196-.97.294-1.59.294h-2.21l.456-.476V120H3.555zm1.014-2.524l-.456-.506h2.179c.648 0 1.138-.139 1.47-.416.337-.277.506-.669.506-1.176 0-.506-.169-.898-.507-1.175-.33-.277-.82-.416-1.47-.416H4.114l.456-.507v4.196zM10.568 120v-7.095h1.014v6.213h3.84V120h-4.854zm4.74 0l3.213-7.095h1.004L22.748 120h-1.064l-2.869-6.527h.406L16.353 120h-1.044zm1.369-1.774l.274-.81h3.993l.294.81h-4.561zM24.656 120v-6.213h-2.432v-.882h5.868v.882h-2.433V120h-1.003zm5.25-3.74h3.658v.872h-3.659v-.872zm.1 3.74h-1.013v-7.095H34v.882h-3.994V120zm8.341.081c-.54 0-1.044-.091-1.51-.274a3.635 3.635 0 01-1.196-.76 3.59 3.59 0 01-.79-1.155 3.598 3.598 0 01-.284-1.439c0-.521.094-1 .284-1.439.189-.44.452-.821.79-1.146a3.565 3.565 0 011.196-.77c.46-.182.963-.274 1.51-.274.54 0 1.037.092 1.49.274.46.176.858.429 1.196.76.345.324.608.706.79 1.145.19.44.284.923.284 1.45 0 .527-.094 1.01-.283 1.449a3.39 3.39 0 01-.791 1.155 3.652 3.652 0 01-1.196.761c-.453.175-.95.263-1.49.263zm0-.902c.392 0 .754-.067 1.085-.203a2.562 2.562 0 001.449-1.439c.142-.331.213-.692.213-1.084 0-.392-.071-.754-.213-1.085a2.508 2.508 0 00-.578-.861 2.489 2.489 0 00-.871-.578 2.846 2.846 0 00-1.085-.203 2.95 2.95 0 00-1.105.203 2.618 2.618 0 00-.871.578c-.25.243-.446.53-.588.861a2.846 2.846 0 00-.203 1.085c0 .392.068.753.203 1.084.142.331.338.622.588.872.25.243.54.432.871.567a2.93 2.93 0 001.105.203zm5.107.821v-7.095h2.767c.621 0 1.152.098 1.59.294.44.196.778.48 1.014.852.237.371.355.814.355 1.327 0 .514-.118.956-.355 1.328a2.275 2.275 0 01-1.013.841c-.44.196-.97.294-1.591.294h-2.21l.456-.466V120h-1.013zm4.743 0l-1.804-2.574h1.084L49.302 120h-1.105zm-3.73-2.524l-.456-.496h2.18c.648 0 1.138-.139 1.469-.416.338-.284.507-.679.507-1.186 0-.506-.17-.898-.507-1.175-.331-.277-.821-.416-1.47-.416h-2.179l.456-.507v4.196zM50.615 120v-7.095h.831l3.182 5.362h-.446l3.142-5.362h.831l.01 7.095h-.972l-.01-5.564h.233l-2.798 4.703h-.466l-2.818-4.703h.254V120h-.973zm-30.498 10v-1.064l2.737-2.585c.216-.196.375-.371.476-.527.101-.155.169-.297.203-.425.04-.129.06-.247.06-.355 0-.284-.098-.5-.294-.649-.189-.155-.469-.233-.84-.233-.298 0-.575.058-.832.172-.25.115-.463.294-.638.538l-1.196-.771c.27-.405.648-.726 1.135-.962.486-.237 1.047-.355 1.682-.355.527 0 .987.088 1.379.263.398.169.706.409.922.72.223.311.334.682.334 1.115 0 .23-.03.459-.09.689a2.13 2.13 0 01-.345.709c-.17.25-.42.531-.75.842l-2.27 2.138-.315-.598h4.004V130h-5.362zm8.877.122a2.908 2.908 0 01-1.56-.426c-.46-.291-.822-.709-1.085-1.257-.264-.547-.396-1.209-.396-1.986 0-.777.132-1.439.396-1.987.263-.547.625-.963 1.084-1.246.46-.291.98-.436 1.56-.436.589 0 1.109.145 1.562.436.46.283.82.699 1.084 1.246.264.548.396 1.21.396 1.987 0 .777-.132 1.439-.396 1.986-.263.548-.625.966-1.084 1.257-.453.284-.973.426-1.561.426zm0-1.389c.277 0 .517-.078.72-.233.209-.155.371-.402.486-.74.122-.338.182-.773.182-1.307 0-.534-.06-.97-.182-1.308-.115-.338-.277-.584-.486-.74a1.15 1.15 0 00-.72-.233c-.27 0-.51.078-.72.233-.202.156-.364.402-.486.74-.115.338-.172.774-.172 1.308s.057.969.172 1.307c.122.338.284.585.486.74.21.155.45.233.72.233zM32.529 130v-1.064l2.737-2.585c.216-.196.375-.371.476-.527.101-.155.169-.297.203-.425.04-.129.06-.247.06-.355 0-.284-.098-.5-.294-.649-.189-.155-.47-.233-.84-.233-.298 0-.575.058-.832.172-.25.115-.463.294-.638.538l-1.196-.771c.27-.405.648-.726 1.135-.962.486-.237 1.047-.355 1.682-.355.527 0 .987.088 1.379.263.398.169.706.409.922.72.223.311.334.682.334 1.115 0 .23-.03.459-.09.689a2.132 2.132 0 01-.345.709c-.17.25-.42.531-.75.842l-2.27 2.138-.315-.598h4.004V130h-5.362zm6.931 0v-6.486l.71.709H38.04v-1.318h3.06V130H39.46z" fill="#fff"/><defs><clipPath id="clip0_9791_299173"><path fill="#fff" transform="translate(.774)" d="M0 0h60.174v75H0z"/></clipPath></defs></svg>