<svg width="24" height="24" viewBox="0 0 24 24" fill="none" xmlns="http://www.w3.org/2000/svg">
<path d="M1.18164 12C2.12164 6.88 6.60864 3 12.0006 3C17.3926 3 21.8786 6.88 22.8196 12C21.8796 17.12 17.3926 21 12.0006 21C6.60864 21 2.12264 17.12 1.18164 12ZM12.0006 17C13.3267 17 14.5985 16.4732 15.5362 15.5355C16.4739 14.5979 17.0006 13.3261 17.0006 12C17.0006 10.6739 16.4739 9.40215 15.5362 8.46447C14.5985 7.52678 13.3267 7 12.0006 7C10.6746 7 9.40279 7.52678 8.46511 8.46447C7.52742 9.40215 7.00064 10.6739 7.00064 12C7.00064 13.3261 7.52742 14.5979 8.46511 15.5355C9.40279 16.4732 10.6746 17 12.0006 17ZM12.0006 15C11.205 15 10.4419 14.6839 9.87932 14.1213C9.31671 13.5587 9.00064 12.7956 9.00064 12C9.00064 11.2044 9.31671 10.4413 9.87932 9.87868C10.4419 9.31607 11.205 9 12.0006 9C12.7963 9 13.5594 9.31607 14.122 9.87868C14.6846 10.4413 15.0006 11.2044 15.0006 12C15.0006 12.7956 14.6846 13.5587 14.122 14.1213C13.5594 14.6839 12.7963 15 12.0006 15Z" fill="#3B66D6"/>
</svg>
