<svg width="24" height="24" viewBox="0 0 24 24" fill="none" xmlns="http://www.w3.org/2000/svg">
<path fill-rule="evenodd" clip-rule="evenodd" d="M3.49655 22.4975L12.6544 13.0467L15.8824 16.3775L4.99576 22.6244C4.58182 22.8619 4.07484 22.8583 3.66351 22.6145L3.49655 22.4975ZM11.7309 12.0936L3 21.1034V3.08382L11.7309 12.0936ZM17.1868 8.37035L21.4523 10.8174C21.8714 11.0586 22.1314 11.5104 22.1314 12C22.1314 12.4896 21.8714 12.9414 21.4523 13.1826L17.0703 15.6962L13.5788 12.0936L17.1868 8.37035ZM3.40002 1.58984C3.47829 1.51154 3.56612 1.44314 3.66351 1.38554C4.07484 1.14165 4.58182 1.13805 4.99576 1.37564L15.9989 7.68906L12.6544 11.1405L3.40002 1.58984Z" fill="#13DA5A"/>
</svg>
