<svg width="19" height="20" viewBox="0 0 19 20" fill="none" xmlns="http://www.w3.org/2000/svg">
<path fill-rule="evenodd" clip-rule="evenodd" d="M0.475827 19.7199L9.25154 10.9692L12.3448 14.0533L1.91247 19.8374C1.51581 20.0574 1.02999 20.054 0.635825 19.8282L0.475827 19.7199ZM8.36655 10.0867L0 18.4291V1.74428L8.36655 10.0867ZM13.5948 6.63921L17.6823 8.90501C18.0839 9.12835 18.3331 9.54667 18.3331 10C18.3331 10.4533 18.0839 10.8717 17.6823 11.095L13.4831 13.4225L10.1374 10.0867L13.5948 6.63921ZM0.383328 0.360965C0.458327 0.288466 0.542493 0.225134 0.635825 0.171801C1.02999 -0.0540289 1.51581 -0.0573622 1.91247 0.162635L12.4565 6.00839L9.25154 9.20418L0.383328 0.360965Z" fill="#13DA5A"/>
</svg>
