<svg width="24" height="24" fill="none" xmlns="http://www.w3.org/2000/svg"><path d="M12 2c5.523 0 10 4.477 10 10s-4.477 10-10 10S2 17.523 2 12 6.477 2 12 2zm0 1.667a8.333 8.333 0 100 16.666 8.333 8.333 0 000-16.666zm0 12.5a1.25 1.25 0 110 2.5 1.25 1.25 0 010-2.5zm0-10A3.333 3.333 0 0115.333 9.5c0 1.218-.353 1.9-1.256 2.847l-.44.449c-.63.656-.804 1.01-.804 1.704a.833.833 0 01-1.666 0c0-1.218.353-1.9 1.256-2.847l.44-.449c.63-.656.804-1.01.804-1.704a1.667 1.667 0 00-3.334 0 .833.833 0 11-1.666 0A3.333 3.333 0 0112 6.167z" fill="#13DA5A"/></svg>