<svg width="20" height="20" viewBox="0 0 20 20" fill="none" xmlns="http://www.w3.org/2000/svg">
<path fill-rule="evenodd" clip-rule="evenodd" d="M4.39932 0.103027H15.6702C18.0255 0.103027 19.9348 2.01233 19.9348 4.36758V15.6385C19.9348 17.9937 18.0255 19.903 15.6702 19.903H4.39932C2.04407 19.903 0.134766 17.9937 0.134766 15.6385V4.36758C0.134766 2.01233 2.04407 0.103027 4.39932 0.103027ZM4.96137 1.3973C4.81201 1.3975 4.66884 1.45679 4.56335 1.56215C4.45786 1.66751 4.39868 1.8103 4.39882 1.95912C4.39896 2.10793 4.45841 2.2506 4.56409 2.35575C4.6653 2.45645 4.80098 2.51485 4.94346 2.51955C6.02913 4.33738 7.87094 5.23 9.97632 5.23009C12.0744 5.22703 13.9296 4.3283 15.017 2.51948C15.024 2.51974 15.031 2.51986 15.038 2.51986C15.1874 2.51978 15.3306 2.46061 15.4361 2.35536C15.5417 2.25012 15.601 2.10741 15.601 1.95862V1.95749C15.6007 1.80868 15.5412 1.66607 15.4354 1.56101C15.3296 1.45595 15.1863 1.39705 15.0369 1.39725V1.3973C14.8876 1.3975 14.7444 1.4568 14.6389 1.56215C14.5334 1.66751 14.4743 1.8103 14.4744 1.95912C14.4745 2.08377 14.5163 2.20411 14.5919 2.3017C13.4965 3.8513 11.81 4.75584 9.97764 4.75892C8.15035 4.75938 6.4762 3.87289 5.37968 2.33532C5.47325 2.23237 5.52542 2.09817 5.52543 1.95862V1.95749C5.52515 1.80868 5.46558 1.66607 5.3598 1.56101C5.25403 1.45596 5.11071 1.39705 4.96137 1.39725V1.3973ZM12.0593 9.84464L11.4607 11.6272L10.8781 9.84595H10.3093L11.2276 12.4371H11.6704L12.2702 10.7349L12.8694 12.4371H13.3159L14.2322 9.84595H13.6776L13.094 11.6272L12.4954 9.84464H12.0593ZM8.88012 9.84529L7.71877 12.4358H8.26473L8.48893 11.9343L8.5048 11.8964H9.71144L9.94788 12.4358H10.5087L9.35795 9.86044L9.3477 9.84529L8.88012 9.84529ZM17.2906 9.84561V12.4341H17.8184V9.84563L17.2906 9.84561ZM2.1584 9.84593V12.4381H2.69344V11.3853H3.90108V12.4381H4.43612V9.84596H3.90108V10.8918H2.69344V9.84596L2.1584 9.84593ZM6.91191 9.84659V11.3303C6.91191 11.7518 6.6992 11.9768 6.31272 11.9768C5.92407 11.9768 5.70989 11.7455 5.70989 11.3125V9.84827H5.17518V11.3303C5.17518 12.0596 5.58749 12.4776 6.30578 12.4776C7.03089 12.4776 7.44662 12.0516 7.44662 11.3089V9.84662L6.91191 9.84659ZM14.6634 9.84756V12.4361H16.6541V11.9642H15.1908V11.3224H16.1637V10.8503H15.1908V10.3198H16.6031V9.84762L14.6634 9.84756ZM9.10663 10.5013L9.48824 11.3692L9.51403 11.4288H8.70519L8.73065 11.3692L9.10663 10.5013Z" fill="#13DA5A"/>
</svg>
