<svg width="24" height="24" viewBox="0 0 24 24" fill="none" xmlns="http://www.w3.org/2000/svg">
<g clip-path="url(#clip0)">
<path fill-rule="evenodd" clip-rule="evenodd" d="M5.95142 1.31123H18.124C20.6677 1.31123 22.7297 3.37328 22.7297 5.91695V18.0895C22.7297 20.6332 20.6677 22.6952 18.124 22.6952H5.95142C3.40775 22.6952 1.3457 20.6332 1.3457 18.0895V5.91695C1.3457 3.37328 3.40775 1.31123 5.95142 1.31123ZM6.55843 2.70904C6.39712 2.70926 6.2425 2.7733 6.12857 2.88708C6.01464 3.00087 5.95073 3.15508 5.95088 3.31581C5.95104 3.47653 6.01524 3.6306 6.12937 3.74417C6.23868 3.85293 6.38521 3.916 6.5391 3.92108C7.71162 5.88433 9.70077 6.84835 11.9746 6.84846C14.2405 6.84516 16.2441 5.87452 17.4186 3.921C17.4261 3.92128 17.4337 3.92141 17.4412 3.92141C17.6025 3.92132 17.7572 3.85742 17.8712 3.74375C17.9852 3.63009 18.0492 3.47597 18.0492 3.31526V3.31405C18.0489 3.15333 17.9846 2.99931 17.8704 2.88585C17.7561 2.77239 17.6013 2.70878 17.4401 2.709V2.70904C17.2787 2.70926 17.1241 2.7733 17.0102 2.88708C16.8963 3.00087 16.8324 3.15508 16.8325 3.31581C16.8326 3.45043 16.8777 3.5804 16.9594 3.6858C15.7764 5.35936 13.955 6.33627 11.976 6.33959C10.0025 6.34009 8.19446 5.38268 7.01021 3.72211C7.11127 3.61091 7.16761 3.46598 7.16762 3.31526V3.31405C7.16732 3.15333 7.10298 2.99931 6.98874 2.88585C6.87451 2.77239 6.71973 2.70878 6.55843 2.709V2.70904ZM14.2242 11.8322L13.5778 13.7573L12.9485 11.8336H12.3342L13.326 14.632H13.8042L14.452 12.7937L15.0992 14.632H15.5813L16.5709 11.8336H15.972L15.3416 13.7573L14.6952 11.8322H14.2242ZM10.7907 11.8329L9.53643 14.6306H10.1261L10.3682 14.089L10.3853 14.048H11.6885L11.9439 14.6306H12.5496L11.3067 11.8492L11.2957 11.8329L10.7907 11.8329ZM19.874 11.8332V14.6288H20.444V11.8332L19.874 11.8332ZM3.53123 11.8336V14.6331H4.10907V13.4961H5.41332V14.6331H5.99116V11.8336H5.41332V12.9631H4.10907V11.8336L3.53123 11.8336ZM8.66502 11.8343V13.4367C8.66502 13.8919 8.4353 14.1349 8.0179 14.1349C7.59816 14.1349 7.36684 13.8851 7.36684 13.4175V11.8361H6.78936V13.4367C6.78936 14.2243 7.23465 14.6758 8.0104 14.6758C8.79352 14.6758 9.24251 14.2157 9.24251 13.4136V11.8343L8.66502 11.8343ZM17.0366 11.8353V14.6309H19.1866V14.1213H17.6062V13.4281H18.6569V12.9182H17.6062V12.3453H19.1315V11.8354L17.0366 11.8353ZM11.0353 12.5413L11.4475 13.4786L11.4753 13.5431H10.6018L10.6293 13.4786L11.0353 12.5413Z" fill="#13DA5A"/>
</g>
<defs>
<clipPath id="clip0">
<rect width="21.6" height="21.6" fill="white" transform="translate(1.19922 1.2)"/>
</clipPath>
</defs>
</svg>
