<svg id="Group_4131" data-name="Group 4131" xmlns="http://www.w3.org/2000/svg" width="49.64" height="49.64" viewBox="0 0 49.64 49.64"><ellipse id="Ellipse_5" data-name="Ellipse 5" cx="24.82" cy="24.82" rx="24.82" ry="24.82" fill="#266ba6"/><path id="Path_246" data-name="Path 246" d="M-600.385 1435.081a6.761 6.761 0 0 0-1 .075 3.917 3.917 0 0 1-1.668-3.057 3.613 3.613 0 0 1 1.105-2.337 6.66 6.66 0 0 0 1.39.146 6.683 6.683 0 0 0 6.683-6.682 6.684 6.684 0 0 0-6.683-6.684 6.684 6.684 0 0 0-6.683 6.684 6.654 6.654 0 0 0 1.711 4.463 2.949 2.949 0 0 1-1.1 2.073 6.384 6.384 0 0 1-3.426.406 6.685 6.685 0 0 0-6.218-4.234 6.684 6.684 0 0 0-6.683 6.685 6.682 6.682 0 0 0 6.683 6.682 6.684 6.684 0 0 0 6.414-4.807 3.9 3.9 0 0 1 2.79.281 4.786 4.786 0 0 1 1.24 3.113 6.652 6.652 0 0 0-1.24 3.875 6.683 6.683 0 0 0 6.683 6.683 6.683 6.683 0 0 0 6.683-6.683 6.683 6.683 0 0 0-6.681-6.682z" transform="translate(630.565 -1407.532)" fill="#fff"/></svg>