<svg id="Group_355" data-name="Group 355" xmlns="http://www.w3.org/2000/svg" width="49.64" height="49.64" viewBox="0 0 49.64 49.64"><g id="Group_353" data-name="Group 353"><ellipse id="Ellipse_2" data-name="Ellipse 2" cx="24.82" cy="24.82" rx="24.82" ry="24.82" fill="#f7931a"/></g><g id="Group_354" data-name="Group 354" transform="translate(11.362 8.981)"><path id="Path_240" data-name="Path 240" d="M-1071.914 1061.546a6.242 6.242 0 0 0-3.734-3.032l-.924-.276 1.295-4.346-3.322-.99-1.294 4.347-2.836-.844 1.295-4.347-.8-.238-3.224-.959-1.247 4.19-3.928-1.17-1.109 3.723 3.928 1.17-4.036 13.551-3.928-1.17-1.109 3.724 3.928 1.169-1.053 3.537.795.236 3.224.961 1.1-3.694 2.843.847-1.1 3.693 3.308.986 1.1-3.694.931.277a6.318 6.318 0 0 0 1.8.265 6.25 6.25 0 0 0 2.982-.761 6.244 6.244 0 0 0 3.033-3.733 6.265 6.265 0 0 0-.547-4.863 6.265 6.265 0 0 0 3.119-3.775 6.243 6.243 0 0 0-.49-4.784zm-3.129 1.693a2.708 2.708 0 0 1 .215 2.076 2.731 2.731 0 0 1-3.392 1.836l-6.989-2.082 1.556-5.228 6.99 2.082a2.712 2.712 0 0 1 1.62 1.316zm-2.358 10.713a2.707 2.707 0 0 1-1.316 1.621 2.71 2.71 0 0 1-2.076.215l-6.99-2.081 1.557-5.229 6.989 2.082a2.73 2.73 0 0 1 1.837 3.392z" transform="translate(1096.884 -1050.86)" fill="#fff"/></g></svg>