<svg height="100" viewBox="0 0 100 100" width="100" xmlns="http://www.w3.org/2000/svg"><path d="m28.85 56.99h6.09c.57.04 1.03.5 1.07 1.07v38.36c.01 1.97 1.61 3.58 3.59 3.58h13.99c1.98-.01 3.58-1.61 3.59-3.58v-38.32c.04-.58.5-1.03 1.07-1.07h10.04c1.8.05 3.35-1.26 3.59-3.05l2.33-13.98c.31-2.21-1.36-4.2-3.58-4.3h-11.83c-.9 0-1.62-.74-1.6-1.64v-8.96c-.26-2.07 1.51-3.84 3.59-3.59h10.57c1.97-.01 3.58-1.61 3.58-3.58v-14.33c-.01-1.97-1.61-3.58-3.58-3.58h-12.73c-23.3 0-22.76 18.81-22.76 21.51v13.08c-.04.58-.5 1.04-1.07 1.07h-6.1c-1.98.01-3.58 1.61-3.59 3.59v13.98c.08 2.04 1.72 3.68 3.76 3.76z" fill="#fff"/></svg>