<svg height="88" viewBox="0 0 100 88" width="100" xmlns="http://www.w3.org/2000/svg"><path d="m1.767 42.2 23.037 8.603 8.935 28.674c.574 1.828 2.808 2.504 4.301 1.303l12.835-10.466c1.342-1.105 3.263-1.16 4.666-.133l23.167 16.836c1.592 1.17 3.861.304 4.269-1.629l16.967-81.657c.42-2.057-1.543-3.798-3.535-3.134-.033.011-.066.023-.098.035l-94.577 36.501c-1.945.749-2.351 3.322-.731 4.633.229.185.487.332.764.434zm30.535 4.021 45.038-27.723c.501-.325 1.165.015 1.196.611.013.237-.085.468-.264.624l-37.169 34.569c-1.301 1.216-2.148 2.839-2.402 4.601l-1.267 9.368c-.086.889-1.102 1.352-1.829.833-.225-.161-.386-.398-.452-.667l-4.849-17.1c-.55-1.96.265-4.047 1.998-5.116z" fill="#fff"/></svg>