<svg height="100" viewBox="0 0 100 100" width="100" xmlns="http://www.w3.org/2000/svg"><path d="m9.52 39.82c-1.68-.05-3.34-.31-4.95-.77-2.28-.76-4.53 1.22-4.05 3.57.02.08.03.16.06.23 2.02 8.19 8.51 14.53 16.75 16.37-1.85.53-3.78.79-5.71.76-1.95.01-3.19 2.08-2.28 3.81 3.69 6.81 10.72 11.16 18.46 11.42h1.9c2.94 0 4.78 3.18 3.31 5.73-.68 1.18-1.94 1.91-3.31 1.91-2.88.02-5.74-.31-8.54-.98-1.82-.42-3.72-.35-5.52.19-3.32 1.22-6.76 2.05-10.27 2.47-1.29.1-2.28 1.18-2.28 2.47 0 1 .6 1.9 1.52 2.28 7.74 3.38 16.1 5.13 24.55 5.14 40.15 0 62.22-34.07 62.22-63.74.01-1.75.77-3.42 2.09-4.56 2.33-1.91 4.43-4.08 6.28-6.46.58-.73.16-1.81-.76-1.95-.19-.03-.39-.01-.57.05-2.3.77-4.65 1.35-7.05 1.72-.38 0-.59-.38-.19-.76 2.92-2.13 5.27-4.94 6.84-8.19.47-.85-.16-1.89-1.13-1.87-.2 0-.4.06-.58.16-2.14 1.08-4.37 1.96-6.66 2.64-2.36.72-4.92.23-6.85-1.31-3.81-2.96-8.5-4.57-13.32-4.56-10.05.08-18.76 6.98-21.15 16.75-.36 1.69.94 3.27 2.67 3.24 3.04-.19 6.09-.59 8.37-.95 1.87-.39 3.76.56 4.56 2.29.92 2.11-.25 4.54-2.47 5.14-6.04 1.46-12.31 1.72-18.46.76-14.41-2.03-27.67-9.03-37.46-19.8-1.28-1.46-3.66-1.05-4.38.76-.78 2.4-1.16 4.9-1.14 7.42-.05 7.4 3.5 14.35 9.52 18.65z" fill="#fff"/></svg>