<svg width="24" height="24" fill="none" xmlns="http://www.w3.org/2000/svg"><path fill-rule="evenodd" clip-rule="evenodd" d="M7.5 21.75a.75.75 0 01.75-.75h7.5a.75.75 0 010 1.5h-7.5a.75.75 0 01-.75-.75zM15.816 4.182a6.75 6.75 0 00-3.979-1.18c-3.655.086-6.607 3.13-6.587 6.786a6.737 6.737 0 002.59 5.278A3.008 3.008 0 019 17.433V18h6v-.569a3.028 3.028 0 011.171-2.374 6.75 6.75 0 00-.355-10.875zm-4.014-2.68a8.25 8.25 0 015.294 14.737l-.004.003a1.527 1.527 0 00-.592 1.196V18a1.5 1.5 0 01-1.5 1.5H9A1.5 1.5 0 017.5 18v-.564a1.51 1.51 0 00-.582-1.187h-.001A8.237 8.237 0 013.75 9.795c-.024-4.473 3.578-8.188 8.051-8.294" fill="#13DA5A"/><path d="M15.785 8.398a2.025 2.025 0 00-.49-1.303 2.355 2.355 0 00-1.257-.757v-.61a.513.513 0 00-.17-.377.61.61 0 00-.412-.157.61.61 0 00-.412.157c-.11.1-.17.236-.17.377v.534h-1.165v-.534a.512.512 0 00-.171-.377.61.61 0 00-.412-.157.61.61 0 00-.412.157c-.109.1-.17.236-.17.377v.534H8.797a.61.61 0 00-.412.157c-.11.1-.17.236-.17.377 0 .142.06.278.17.378.109.1.257.156.412.156h.582v5.34h-.582a.61.61 0 00-.412.156c-.11.1-.17.236-.17.378 0 .141.06.277.17.377.109.1.257.157.412.157h1.747v.534c0 .141.061.277.17.377.11.1.258.157.412.157a.61.61 0 00.412-.157c.11-.1.17-.236.17-.377v-.534h1.165v.534c0 .141.062.277.17.377.11.1.258.157.413.157a.61.61 0 00.412-.157c.109-.1.17-.236.17-.377v-.61a2.37 2.37 0 001.082-.568c.298-.276.506-.622.604-1a1.95 1.95 0 00-.052-1.143A2.117 2.117 0 0014.98 10c.252-.198.454-.444.593-.72.139-.277.211-.578.212-.882zm-1.165 3.204c0 .283-.122.555-.34.755a1.22 1.22 0 01-.824.313h-2.912v-2.136h2.912c.309 0 .605.112.823.313.219.2.341.472.341.755zm-4.076-2.136V7.33h2.912c.309 0 .605.113.823.313.219.2.341.472.341.755 0 .283-.122.555-.34.755a1.22 1.22 0 01-.824.313h-2.912z" fill="#13DA5A"/><path fill-rule="evenodd" clip-rule="evenodd" d="M10.562 5.214A.836.836 0 0111.126 5c.212 0 .415.077.565.214.149.137.232.322.232.514v.34h.736v-.34c0-.192.083-.377.233-.514A.836.836 0 0113.456 5c.212 0 .415.077.564.214.15.137.233.322.233.514v.465c.479.145.901.417 1.212.784.345.406.533.906.535 1.42V8.4c-.001.332-.08.66-.232.961-.119.237-.28.453-.477.64.266.252.466.557.585.892.143.403.163.834.057 1.246-.106.412-.334.79-.659 1.092a2.572 2.572 0 01-1.021.578v.464a.698.698 0 01-.233.514.837.837 0 01-.564.214.837.837 0 01-.564-.214.698.698 0 01-.233-.514v-.34h-.736v.34a.698.698 0 01-.232.514.836.836 0 01-.565.214.836.836 0 01-.564-.214.698.698 0 01-.232-.514v-.34H8.796a.836.836 0 01-.564-.214.698.698 0 01-.233-.514c0-.193.083-.378.233-.515a.836.836 0 01.564-.214h.368v-4.95h-.368a.836.836 0 01-.564-.214A.698.698 0 018 6.796c0-.192.083-.377.233-.514a.836.836 0 01.564-.214h1.532v-.34c0-.192.084-.377.233-.514zm.564.175a.384.384 0 00-.259.099.327.327 0 00-.109.24v.729H8.797a.384.384 0 00-.26.098.327.327 0 00-.108.241c0 .091.04.178.108.241.07.064.163.099.26.099h.797v5.728h-.797a.384.384 0 00-.26.099.327.327 0 00-.108.24c0 .091.04.178.108.242.07.063.163.098.26.098h1.961v.729c0 .09.04.177.109.24.07.064.162.1.26.1.096 0 .19-.036.259-.1a.327.327 0 00.108-.24v-.729h1.594v.729c0 .09.04.177.109.24a.384.384 0 00.519 0 .327.327 0 00.108-.24v-.761l.161-.038c.373-.085.712-.263.982-.514.27-.252.46-.566.548-.91a1.774 1.774 0 00-.047-1.038 1.923 1.923 0 00-.628-.864L14.654 10l.186-.147c.228-.18.412-.403.538-.654.126-.251.192-.524.193-.8a1.842 1.842 0 00-.446-1.185 2.138 2.138 0 00-1.14-.688l-.161-.038v-.76c0-.09-.04-.177-.109-.24a.384.384 0 00-.26-.1.384.384 0 00-.258.1.327.327 0 00-.11.24v.729h-1.593v-.729c0-.09-.039-.177-.108-.24a.384.384 0 00-.26-.1zm-.796 1.747h3.126c.366 0 .718.133.976.37s.403.558.403.892c0 .334-.145.655-.403.892s-.61.37-.976.37h-3.127V7.136zm.428.389v1.747h2.698a.994.994 0 00.671-.255.84.84 0 00.28-.619.84.84 0 00-.28-.618.994.994 0 00-.671-.255h-2.698zm-.428 2.814h3.126c.366 0 .718.134.976.371s.403.558.403.892c0 .334-.145.655-.403.892s-.61.37-.976.37h-3.127V10.34zm.428.39v1.746h2.698a.995.995 0 00.671-.255.84.84 0 00.28-.618.84.84 0 00-.28-.619.994.994 0 00-.671-.255h-2.698z" fill="#13DA5A"/></svg>