<?xml version="1.0" encoding="utf-8"?>
<svg width="100px" height="100px" fill="none" viewBox="0 0 28 28" xmlns="http://www.w3.org/2000/svg">
  <circle cx="14" cy="14" r="14" fill="#366BF4"/>
  <path fill="#fff" d="M13.1846 18.2803c2.4452.0445 4.8452.0891 7.2904.1783-.0906.3567-.1812.6688-.2264.9809-.1359.4459-.2717.8471-.3623 1.293-.0453.2229-.1358.2675-.3623.2675H7.8414c.4075-1.5605.815-3.0318 1.2226-4.5924-.634.223-1.1773.4459-1.8113.7134.1812-.6688.3623-1.2484.5887-1.8726 0-.0892.1358-.1337.2264-.1337.4075-.1784.8604-.3122 1.2679-.4905.1358-.0446.2717-.1783.2717-.3121l1.9018-6.9554c.0453-.2675.1359-.3567.4528-.3567H16.0826c-.4981 1.828-.9509 3.6561-1.449 5.5732.7245-.3121 1.4038-.5796 2.1736-.8471-.0906.3567-.2265.6688-.2717.9809-.0906.7134-.4981 1.1147-1.2226 1.293-.317.0892-.634.2229-.951.3567-.0905.0446-.2264.1783-.2716.2675-.317 1.2038-.634 2.3631-.9057 3.5669v.0892z"/>
</svg>