<svg width="24" height="24" fill="none" xmlns="http://www.w3.org/2000/svg"><path fill-rule="evenodd" clip-rule="evenodd" d="M7.094 5.846c-1.354 0-2.452 1.119-2.452 2.5 0 .999.575 1.861 1.406 2.261.317.153.672.239 1.046.239.458 0 .44-.12.806-.342.719-.436-.806-1.244-.806-2.158 0-1.381 1.355-2.5 0-2.5zm-3.584 2.5c0-2.018 1.605-3.654 3.584-3.654 1.98 0 0 1.636 0 3.654 0 .946 1.309 1.613.73 2.261-.656.735.322.42-.73.42-.994 0-1.868.32-2.543-.106A3.678 3.678 0 013.51 8.346zM16.905 5.846c-1.354 0 .209 1.09.209 2.472 0 1.38-.76 2.423.594 2.423.72 0 .566-.212 1.014-.716a2.518 2.518 0 00.636-1.68c0-1.38-1.098-2.5-2.453-2.5zm0 2.404c0-2.018-1.98-3.558 0-3.558s3.585 1.636 3.585 3.654c0 .982-.38 1.874-1 2.53-.651.693-1.171 0-2.187 0-.532 0-1.303.087-1.378-.135-.206-.604.98-1.015.98-2.491z" fill="#13DA5A"/><path fill-rule="evenodd" clip-rule="evenodd" d="M11.999 3.154c-2.397 0-4.34 1.98-4.34 4.423S9.602 12 12 12c2.396 0 4.34-1.98 4.34-4.423s-1.943-4.423-4.34-4.423zM6.527 7.577C6.527 4.497 8.977 2 12 2c3.022 0 5.472 2.497 5.472 5.577s-2.45 5.577-5.472 5.577c-3.022 0-5.472-2.497-5.472-5.577z" fill="#13DA5A"/><path d="M13.696 7.415c.192-.184.325-.415.382-.666a1.278 1.278 0 00-.057-.754 1.37 1.37 0 00-.478-.61 1.51 1.51 0 00-.752-.276v-.747a.24.24 0 00-.077-.175.273.273 0 00-.187-.073.274.274 0 00-.187.073.24.24 0 00-.077.175v.741h-.792v-.741a.24.24 0 00-.078-.175.273.273 0 00-.187-.073.274.274 0 00-.186.073.24.24 0 00-.078.175v.741h-1.32a.274.274 0 00-.187.073.24.24 0 00-.078.175.24.24 0 00.078.174c.05.047.117.073.187.073h1.056v3.956H9.622a.274.274 0 00-.187.072.24.24 0 00-.078.175.24.24 0 00.078.175c.05.046.117.072.187.072h1.32v.742a.24.24 0 00.078.175c.05.046.116.072.186.072.07 0 .138-.026.187-.072a.24.24 0 00.078-.175v-.742h.792v.742a.24.24 0 00.077.175c.05.046.117.072.187.072.07 0 .137-.026.187-.072a.24.24 0 00.077-.175v-.742h.396c.341 0 .67-.112.932-.316.261-.204.438-.488.498-.802.06-.313.002-.637-.167-.914a1.431 1.431 0 00-.754-.601zM12.66 5.598c.245 0 .48.091.654.253.173.163.27.383.27.612 0 .23-.097.45-.27.612a.958.958 0 01-.654.254h-1.453V5.598h1.453zm.528 3.956h-1.98v-1.73h1.98c.246 0 .48.09.654.253.174.162.271.382.271.611 0 .23-.097.45-.27.612a.958.958 0 01-.655.254z" fill="#13DA5A"/><path fill-rule="evenodd" clip-rule="evenodd" d="M13.884 7.495a1.498 1.498 0 00-.188-.08 1.318 1.318 0 00.382-.666 1.278 1.278 0 00-.057-.755 1.369 1.369 0 00-.478-.609 1.51 1.51 0 00-.752-.276v-.748a.24.24 0 00-.077-.174.273.273 0 00-.187-.073.273.273 0 00-.187.073.24.24 0 00-.077.174v.742h-.793v-.742a.24.24 0 00-.077-.174.273.273 0 00-.187-.073.273.273 0 00-.187.073.24.24 0 00-.077.174v.742h-1.32a.274.274 0 00-.188.073.24.24 0 00-.077.174.24.24 0 00.078.175c.049.047.116.073.186.073h1.057v3.956H9.62a.274.274 0 00-.187.072.24.24 0 00-.077.175.24.24 0 00.078.175c.049.046.116.072.186.072h1.321v.742a.24.24 0 00.077.175c.05.046.117.072.187.072.07 0 .137-.026.187-.072a.24.24 0 00.077-.175v-.742h.793v.742a.24.24 0 00.077.175c.05.046.117.072.187.072.07 0 .137-.026.187-.072a.24.24 0 00.077-.175v-.742h.396c.34 0 .67-.112.932-.316.261-.204.437-.488.498-.802.06-.313.001-.637-.167-.914-.134-.22-.33-.4-.566-.52zm.125-.15c.248.135.456.33.602.57.192.317.261.69.191 1.052-.07.363-.273.686-.568.918a1.7 1.7 0 01-1.047.356h-.207v.55a.433.433 0 01-.139.316.46.46 0 01-.629 0 .433.433 0 01-.138-.317v-.55h-.415v.55a.433.433 0 01-.139.317.46.46 0 01-.628 0 .433.433 0 01-.139-.317v-.55H9.621a.46.46 0 01-.314-.123.433.433 0 010-.632.46.46 0 01.314-.124h.868V5.79h-.868a.46.46 0 01-.314-.123.433.433 0 010-.633.46.46 0 01.314-.123h1.132v-.55c0-.122.052-.235.139-.316a.46.46 0 01.629 0c.086.08.138.194.138.316v.55h.415v-.55c0-.122.052-.235.138-.316a.46.46 0 01.63 0c.086.08.138.194.138.316v.58c.242.046.472.144.672.287.246.177.435.418.544.695a1.474 1.474 0 01-.187 1.422zm-.824-1.352a.77.77 0 00-.526-.203h-1.264v1.346h1.264c.2 0 .389-.074.526-.203a.644.644 0 00.21-.47.644.644 0 00-.21-.47zm-1.79 3.368h1.792c.2 0 .39-.074.526-.202a.644.644 0 00.21-.47.644.644 0 00-.21-.47.77.77 0 00-.526-.204h-1.792v1.346zm1.918-3.51a.957.957 0 00-.654-.253h-1.453v1.73h1.453c.245 0 .48-.09.654-.253a.838.838 0 00.27-.612c0-.23-.097-.45-.27-.612zm-.126 3.703c.245 0 .48-.091.654-.254a.838.838 0 00.27-.612c0-.23-.097-.45-.27-.612a.958.958 0 00-.654-.253h-1.98v1.73h1.98zM15.775 18.923a.953.953 0 00-.944.961c0 .532.423.962.944.962.52 0 .943-.43.943-.962a.953.953 0 00-.943-.961zm-2.076.961c0-1.168.93-2.115 2.076-2.115s2.075.947 2.075 2.115c0 1.169-.93 2.116-2.075 2.116-1.147 0-2.076-.947-2.076-2.116zM8.226 18.923a.953.953 0 00-.943.961c0 .532.422.962.943.962.521 0 .944-.43.944-.962a.953.953 0 00-.944-.961zm-2.075.961c0-1.168.93-2.115 2.075-2.115 1.147 0 2.076.947 2.076 2.115 0 1.169-.93 2.116-2.076 2.116s-2.075-.947-2.075-2.116z" fill="#13DA5A"/><path fill-rule="evenodd" clip-rule="evenodd" d="M3.19 11.16a.955.955 0 01.936-1.083h3.937l1.324 1.27 1.783 1.211 2.972-.606 1.794-1.875h3.936a.955.955 0 01.936 1.083l-1.062 8.462a.95.95 0 01-.935.84h-1.455l-1.431 1.183-1.583-1.184H9.765l-2.161 1.184-1.272-1.184H5.188a.95.95 0 01-.936-.84l-1.062-8.46zm1.15.07l1.014 8.078h1.422l.234 1.125 1.188 1.212 1.9-2.337h4.244l.394 1.73 1.189.607 1.314-2.337h1.406l1.013-8.078h-3.83l-2.28 1.328-1.549.344-2.018-.344L8.17 11.23H4.34z" fill="#13DA5A"/><path fill-rule="evenodd" clip-rule="evenodd" d="M2 10.654c0-.319.253-.577.566-.577h5.586l1.235 1.875 2.377.606 2.972-.606 1.087-1.875h5.611c.313 0 .566.258.566.577a.572.572 0 01-.566.576h-5.84l-3.83 1.328-2.763-1.328H2.566A.572.572 0 012 10.654z" fill="#13DA5A"/></svg>