<svg width="22" height="16" fill="none" xmlns="http://www.w3.org/2000/svg"><path fill-rule="evenodd" clip-rule="evenodd" d="M8 6.5a.75.75 0 01.75-.75h7.5a.75.75 0 010 1.5h-7.5A.75.75 0 018 6.5zM8 9.5a.75.75 0 01.75-.75h7.5a.75.75 0 010 1.5h-7.5A.75.75 0 018 9.5z" fill="#13DA5A"/><path fill-rule="evenodd" clip-rule="evenodd" d="M3.94.94A1.5 1.5 0 015 .5h15A1.5 1.5 0 0121.5 2v11.25a2.25 2.25 0 01-2.25 2.25H2.75A2.25 2.25 0 01.5 13.25v-9a.75.75 0 011.5 0v9a.75.75 0 101.5 0V2c0-.398.158-.78.44-1.06zM4.87 14H19.25a.75.75 0 00.75-.75V2H5v11.25c0 .258-.044.511-.129.75z" fill="#13DA5A"/></svg>