<svg width="80" height="80" viewBox="0 0 80 80" fill="none" xmlns="http://www.w3.org/2000/svg">
<mask id="mask0" mask-type="alpha" maskUnits="userSpaceOnUse" x="2" y="24" width="72" height="51">
<path d="M19.7814 48.0772L2.5 65.3586V74.375H73.8798V24.7849L35.1844 63.4802L19.7814 48.0772Z" fill="#C4C4C4"/>
</mask>
<g mask="url(#mask0)">
<path opacity="0.4" d="M8.13525 25.9119H18.6544V72.4966H8.13525V25.9119Z" fill="#434A45"/>
<path opacity="0.4" d="M21.6599 25.9118H32.179V72.4965H21.6599V25.9118Z" fill="#434A45"/>
<path d="M35.1844 25.9118H45.7036V72.4965H35.1844V25.9118Z" fill="#434A45"/>
<path d="M48.7091 25.9118H59.2282V72.4965H48.7091V25.9118Z" fill="#434A45"/>
<path d="M62.2336 25.9118H72.7528V72.4965H62.2336V25.9118Z" fill="#434A45"/>
</g>
<path fill-rule="evenodd" clip-rule="evenodd" d="M78.4502 13.2088L35.1805 55.7195L19.7813 40.3204L2.94187 57.1598L2.05798 56.2759L19.7813 38.5526L35.1882 53.9595L77.5742 12.3171L78.4502 13.2088Z" fill="#00D75B"/>
<path fill-rule="evenodd" clip-rule="evenodd" d="M77.3873 13.0123H66.7418V11.7623H78.6373V23.6578H77.3873V13.0123Z" fill="#00D75B"/>
<path fill-rule="evenodd" clip-rule="evenodd" d="M30.8728 14.3181H40.7087L44.5358 18.1452V21.0665H43.2858V18.663L40.1909 15.5681H31.3906L28.8281 18.1306V21.6063L31.3906 24.1687H40.7087L44.5358 27.9958V32.5071L40.7087 36.3342H30.8728L27.0457 32.5071V29.3196H28.2957V31.9893L31.3906 35.0842H40.1909L43.2858 31.9893V28.5136L40.1909 25.4187H30.8728L27.5781 22.124V17.6128L30.8728 14.3181Z" fill="white"/>
<path fill-rule="evenodd" clip-rule="evenodd" d="M36.549 6.68991V39.4365H35.299V6.68991H36.549Z" fill="white"/>
<path fill-rule="evenodd" clip-rule="evenodd" d="M35.9618 4.74112L40.1688 8.94815L39.2849 9.83204L35.9618 6.50889L32.6386 9.83204L31.7548 8.94815L35.9618 4.74112Z" fill="white"/>
</svg>
