<svg width="80" height="16" viewBox="0 0 80 16" fill="none" xmlns="http://www.w3.org/2000/svg">
<path d="M7.62918 1.91694C7.764 1.58356 8.236 1.58356 8.37082 1.91694L9.72497 5.26536C9.78227 5.40704 9.9153 5.5037 10.0678 5.51441L13.6707 5.76756C14.0295 5.79276 14.1753 6.24166 13.8999 6.47291L11.1338 8.79549C11.0168 8.89377 10.966 9.05015 11.0029 9.19846L11.8755 12.7033C11.9624 13.0523 11.5806 13.3297 11.2755 13.1393L8.21185 11.2263C8.08222 11.1453 7.91778 11.1453 7.78815 11.2263L4.72447 13.1393C4.41944 13.3297 4.03758 13.0523 4.12447 12.7033L4.99709 9.19846C5.03401 9.05015 4.9832 8.89377 4.86616 8.79549L2.10008 6.47291C1.82468 6.24166 1.97053 5.79276 2.32926 5.76756L5.93224 5.51441C6.0847 5.5037 6.21773 5.40704 6.27503 5.26536L7.62918 1.91694Z" fill="#13DA5A"/>
<path d="M23.6292 1.91694C23.764 1.58356 24.236 1.58356 24.3708 1.91694L25.725 5.26536C25.7823 5.40704 25.9153 5.5037 26.0678 5.51441L29.6707 5.76756C30.0295 5.79276 30.1753 6.24166 29.8999 6.47291L27.1338 8.79549C27.0168 8.89377 26.966 9.05015 27.0029 9.19846L27.8755 12.7033C27.9624 13.0523 27.5806 13.3297 27.2755 13.1393L24.2119 11.2263C24.0822 11.1453 23.9178 11.1453 23.7881 11.2263L20.7245 13.1393C20.4194 13.3297 20.0376 13.0523 20.1245 12.7033L20.9971 9.19846C21.034 9.05015 20.9832 8.89377 20.8662 8.79549L18.1001 6.47291C17.8247 6.24166 17.9705 5.79276 18.3293 5.76756L21.9322 5.51441C22.0847 5.5037 22.2177 5.40704 22.275 5.26536L23.6292 1.91694Z" fill="#13DA5A"/>
<path d="M39.6292 1.91694C39.764 1.58356 40.236 1.58356 40.3708 1.91694L41.725 5.26536C41.7823 5.40704 41.9153 5.5037 42.0678 5.51441L45.6707 5.76756C46.0295 5.79276 46.1753 6.24166 45.8999 6.47291L43.1338 8.79549C43.0168 8.89377 42.966 9.05015 43.0029 9.19846L43.8755 12.7033C43.9624 13.0523 43.5806 13.3297 43.2755 13.1393L40.2119 11.2263C40.0822 11.1453 39.9178 11.1453 39.7881 11.2263L36.7245 13.1393C36.4194 13.3297 36.0376 13.0523 36.1245 12.7033L36.9971 9.19846C37.034 9.05015 36.9832 8.89377 36.8662 8.79549L34.1001 6.47291C33.8247 6.24166 33.9705 5.79276 34.3293 5.76756L37.9322 5.51441C38.0847 5.5037 38.2177 5.40704 38.275 5.26536L39.6292 1.91694Z" fill="#13DA5A"/>
<path d="M55.6292 1.91694C55.764 1.58356 56.236 1.58356 56.3708 1.91694L57.725 5.26536C57.7823 5.40704 57.9153 5.5037 58.0678 5.51441L61.6707 5.76756C62.0295 5.79276 62.1753 6.24166 61.8999 6.47291L59.1338 8.79549C59.0168 8.89377 58.966 9.05015 59.0029 9.19846L59.8755 12.7033C59.9624 13.0523 59.5806 13.3297 59.2755 13.1393L56.2119 11.2263C56.0822 11.1453 55.9178 11.1453 55.7881 11.2263L52.7245 13.1393C52.4194 13.3297 52.0376 13.0523 52.1245 12.7033L52.9971 9.19846C53.034 9.05015 52.9832 8.89377 52.8662 8.79549L50.1001 6.47291C49.8247 6.24166 49.9705 5.79276 50.3293 5.76756L53.9322 5.51441C54.0847 5.5037 54.2177 5.40704 54.275 5.26536L55.6292 1.91694Z" fill="#13DA5A"/>
<path d="M71.6292 1.91694C71.764 1.58356 72.236 1.58356 72.3708 1.91694L73.725 5.26536C73.7823 5.40704 73.9153 5.5037 74.0678 5.51441L77.6707 5.76756C78.0295 5.79276 78.1753 6.24166 77.8999 6.47291L75.1338 8.79549C75.0168 8.89377 74.966 9.05015 75.0029 9.19846L75.8755 12.7033C75.9624 13.0523 75.5806 13.3297 75.2755 13.1393L72.2119 11.2263C72.0822 11.1453 71.9178 11.1453 71.7881 11.2263L68.7245 13.1393C68.4194 13.3297 68.0376 13.0523 68.1245 12.7033L68.9971 9.19846C69.034 9.05015 68.9832 8.89377 68.8662 8.79549L66.1001 6.47291C65.8247 6.24166 65.9705 5.79276 66.3293 5.76756L69.9322 5.51441C70.0847 5.5037 70.2177 5.40704 70.275 5.26536L71.6292 1.91694Z" fill="#5D7692"/>
<g clip-path="url(#clip0)">
<mask id="mask0" mask-type="alpha" maskUnits="userSpaceOnUse" x="64" y="0" width="8" height="15">
<rect x="64" width="8" height="15" fill="#C4C4C4"/>
</mask>
<g mask="url(#mask0)">
</g>
<path d="M71.6292 1.91694C71.764 1.58356 72.236 1.58356 72.3708 1.91694L73.725 5.26536C73.7823 5.40704 73.9153 5.5037 74.0678 5.51441L77.6707 5.76756C78.0295 5.79276 78.1753 6.24166 77.8999 6.47291L75.1338 8.79549C75.0168 8.89377 74.966 9.05015 75.0029 9.19846L75.8755 12.7033C75.9624 13.0523 75.5806 13.3297 75.2755 13.1393L72.2119 11.2263C72.0822 11.1453 71.9178 11.1453 71.7881 11.2263L68.7245 13.1393C68.4194 13.3297 68.0376 13.0523 68.1245 12.7033L68.9971 9.19846C69.034 9.05015 68.9832 8.89377 68.8662 8.79549L66.1001 6.47291C65.8247 6.24166 65.9705 5.79276 66.3293 5.76756L69.9322 5.51441C70.0847 5.5037 70.2177 5.40704 70.275 5.26536L71.6292 1.91694Z" fill="#13DA5A"/>
</g>
<defs>
<clipPath id="clip0">
<rect width="8" height="16" fill="white" transform="translate(64)"/>
</clipPath>
</defs>
</svg>
