<svg width="24" height="24" fill="none" xmlns="http://www.w3.org/2000/svg"><path d="M12 14.531c2.47 0 4.506-1.975 4.506-4.445 0-2.469-2.037-4.444-4.506-4.444-2.47 0-4.506 1.975-4.506 4.444.062 2.408 2.037 4.445 4.506 4.445zm0-7.654c1.79 0 3.272 1.42 3.272 3.21s-1.482 3.21-3.272 3.21c-1.79 0-3.272-1.42-3.272-3.21S10.21 6.876 12 6.876z" fill="#13DA5A"/><path fill-rule="evenodd" clip-rule="evenodd" d="M7.194 10.087c0-2.64 2.177-4.745 4.806-4.745 2.63 0 4.806 2.105 4.806 4.745S14.63 14.83 12 14.83c-2.639 0-4.74-2.174-4.806-4.737v-.007zm.6-.004c.06 2.25 1.908 4.148 4.206 4.148 2.309 0 4.206-1.846 4.206-4.144S14.31 5.942 12 5.942c-2.308 0-4.204 1.845-4.206 4.14zM12 7.177c-1.632 0-2.972 1.293-2.972 2.91 0 1.617 1.34 2.91 2.972 2.91s2.972-1.293 2.972-2.91c0-1.617-1.34-2.91-2.972-2.91zm-3.572 2.91c0-1.963 1.624-3.51 3.572-3.51s3.572 1.547 3.572 3.51c0 1.963-1.624 3.51-3.572 3.51s-3.572-1.547-3.572-3.51z" fill="#13DA5A"/><path d="M12 2C6.506 2 2 6.506 2 12c0 5.556 4.506 10 10 10s10-4.506 10-10c.062-5.494-4.444-10-10-10zm0 1.235c4.815 0 8.765 3.95 8.765 8.765 0 2.099-.74 4.012-1.975 5.556-.988-1.79-2.901-2.902-5-2.902h-3.642c-2.099 0-4.012 1.111-5 2.902C3.914 16.074 3.173 14.099 3.173 12 3.235 7.185 7.185 3.235 12 3.235zM6.136 18.482c.74-1.544 2.345-2.593 4.074-2.593h3.642c1.79 0 3.333 1.05 4.074 2.593a8.705 8.705 0 01-5.864 2.283 8.744 8.744 0 01-5.926-2.284z" fill="#13DA5A"/><path fill-rule="evenodd" clip-rule="evenodd" d="M1.7 12C1.7 6.34 6.34 1.7 12 1.7c5.719 0 10.363 4.639 10.3 10.302C22.299 17.66 17.659 22.3 12 22.3 6.342 22.3 1.7 17.723 1.7 12zM12 2.3c-5.328 0-9.7 4.372-9.7 9.7 0 5.389 4.37 9.7 9.7 9.7 5.328 0 9.7-4.372 9.7-9.7v-.003C21.76 6.673 17.392 2.3 12 2.3zm-8.527 9.702c0 1.874.612 3.644 1.642 5.028 1.092-1.664 2.981-2.676 5.033-2.676h3.642c2.05 0 3.936 1.01 5.029 2.67A8.505 8.505 0 0020.465 12c0-4.649-3.816-8.465-8.465-8.465-4.648 0-8.467 3.815-8.527 8.467zm-.6-.006C2.937 7.02 7.019 2.935 12 2.935c4.98 0 9.065 4.085 9.065 9.065 0 2.172-.767 4.15-2.04 5.743l-.28.35-.218-.392c-.933-1.692-2.744-2.747-4.737-2.747h-3.642c-1.993 0-3.804 1.055-4.737 2.747l-.212.384-.281-.337c-1.28-1.536-2.045-3.58-2.045-5.748v-.004zm3.635 6.417a8.454 8.454 0 005.554 2.053c2.065 0 4.02-.774 5.492-2.054-.727-1.335-2.112-2.223-3.702-2.223H10.21c-1.534 0-2.97.89-3.702 2.224zm-.643-.061c.79-1.644 2.497-2.763 4.345-2.763h3.642c1.912 0 3.556 1.121 4.344 2.763l.096.2-.163.15a9.005 9.005 0 01-6.067 2.364 9.044 9.044 0 01-6.13-2.363l-.163-.15.096-.201z" fill="#13DA5A"/></svg>