<svg width="80" height="80" viewBox="0 0 80 80" fill="none" xmlns="http://www.w3.org/2000/svg">
<path opacity="0.4" d="M5.625 62.5H74.375V18.75L5.625 62.5Z" fill="#434A45"/>
<path fill-rule="evenodd" clip-rule="evenodd" d="M46.0505 34.0808C46.0505 37.7166 43.1056 40.6615 39.4697 40.6615C35.8338 40.6615 32.889 37.7166 32.889 34.0808C32.889 30.4449 35.8338 27.5 39.4697 27.5C43.1056 27.5 46.0505 30.4449 46.0505 34.0808ZM27.5048 49.2096C27.5048 45.7232 33.0703 43.6151 37.5546 42.902C37.3544 42.7065 42.333 42.7065 42.1328 42.902C46.6171 43.6151 52.1826 45.7232 52.1826 49.2096V52.5H27.5048V49.2096Z" fill="black"/>
<path fill-rule="evenodd" clip-rule="evenodd" d="M32.5765 34.0808C32.5765 30.2723 35.6613 27.1875 39.4697 27.1875C43.2782 27.1875 46.363 30.2723 46.363 34.0808C46.363 37.8892 43.2782 40.974 39.4697 40.974C35.6613 40.974 32.5765 37.8892 32.5765 34.0808ZM39.4697 27.8125C36.0064 27.8125 33.2015 30.6175 33.2015 34.0808C33.2015 37.544 36.0064 40.349 39.4697 40.349C42.933 40.349 45.738 37.544 45.738 34.0808C45.738 30.6175 42.933 27.8125 39.4697 27.8125ZM42.2949 42.6116C44.53 42.9771 47.0279 43.6846 48.9876 44.7407C50.9612 45.8044 52.4951 47.2831 52.4951 49.2096V52.8125H27.1923V49.2096C27.1923 47.2831 28.7262 45.8044 30.6998 44.7407C32.6595 43.6846 35.1574 42.9771 37.3925 42.6116C37.4203 42.5937 37.4433 42.5841 37.4528 42.5801L37.4541 42.5796C37.5176 42.5529 37.5938 42.5385 37.6535 42.5291C37.7863 42.5083 37.9766 42.4924 38.1961 42.48C38.6397 42.4552 39.2434 42.4429 39.8437 42.4429C40.444 42.4429 41.0477 42.4552 41.4913 42.48C41.7108 42.4924 41.901 42.5083 42.0339 42.5292C42.0936 42.5385 42.1698 42.5529 42.2333 42.5796L42.2346 42.5801C42.2441 42.5841 42.2671 42.5937 42.2949 42.6116ZM38.2102 43.1053L38.218 43.1129L37.6037 43.2106C35.383 43.5638 32.9073 44.261 30.9963 45.2909C29.0661 46.3312 27.8173 47.6498 27.8173 49.2096V52.1875H51.8701V49.2096C51.8701 47.6498 50.6213 46.3312 48.6911 45.2909C46.78 44.261 44.3044 43.5638 42.0837 43.2106L41.4694 43.1129L41.4772 43.1053C41.4703 43.1049 41.4633 43.1045 41.4563 43.1041C41.0289 43.0801 40.438 43.0679 39.8437 43.0679C39.2494 43.0679 38.6585 43.0801 38.2311 43.1041C38.2241 43.1045 38.2171 43.1049 38.2102 43.1053Z" fill="white"/>
<path fill-rule="evenodd" clip-rule="evenodd" d="M5.62501 62.5L74.375 62.5L74.375 12.5C74.375 11.4645 73.5355 10.625 72.5 10.625L7.5 10.625C6.46447 10.625 5.625 11.4645 5.625 12.5L5.62501 62.5ZM75.625 63.75L75.625 12.5C75.625 10.7741 74.2259 9.375 72.5 9.375L7.5 9.375C5.77411 9.375 4.375 10.7741 4.375 12.5L4.37501 63.75L75.625 63.75Z" fill="#00D75B"/>
<path d="M5.625 18.75H74.375V20H5.625V18.75Z" fill="#00D75B"/>
<path fill-rule="evenodd" clip-rule="evenodd" d="M78.75 63.75H1.25V66.875C1.25 67.9105 2.08947 68.75 3.125 68.75H76.875C77.9105 68.75 78.75 67.9105 78.75 66.875V63.75ZM0 62.5V66.875C0 68.6009 1.39911 70 3.125 70H76.875C78.6009 70 80 68.6009 80 66.875V62.5H0Z" fill="#00D75B"/>
<path fill-rule="evenodd" clip-rule="evenodd" d="M53.125 13.75H9.375V15.625H53.125V13.75ZM70.625 13.75H68.75V15.625H70.625V13.75ZM64.375 13.75H66.25V15.625H64.375V13.75ZM61.875 13.75H60V15.625H61.875V13.75Z" fill="white"/>
<path d="M36.25 63.75H43.75V64.375C43.75 65.0654 43.1904 65.625 42.5 65.625H37.5C36.8096 65.625 36.25 65.0654 36.25 64.375V63.75Z" fill="#00D75B"/>
<path d="M61.25 50C61.25 53.797 58.172 56.875 54.375 56.875C50.578 56.875 47.5 53.797 47.5 50C47.5 46.203 50.578 43.125 54.375 43.125C58.172 43.125 61.25 46.203 61.25 50Z" fill="white"/>
<path fill-rule="evenodd" clip-rule="evenodd" d="M55 45H53.75V49.375H49.375V50.625H53.75V55H55V50.625H59.375V49.375L55 49.375V45Z" fill="black"/>
</svg>
