<svg width="48" height="48" viewBox="0 0 48 48" fill="none" xmlns="http://www.w3.org/2000/svg">
<g clip-path="url(#clip0_3198:200642)">
<path d="M43.1998 8.00049C37.1845 7.99669 31.3601 5.8879 26.7367 2.03972L24.5119 0.185324C24.2153 -0.0617747 23.7845 -0.0617747 23.4879 0.185324L21.2631 2.03972C16.6397 5.8879 10.8154 7.99669 4.8 8.00049C4.3582 8.00049 4 8.35869 4 8.80049V19.4948C4.0407 32.15 11.8841 43.4682 23.7191 47.9499C23.8998 48.0167 24.0984 48.0167 24.2791 47.9499C36.1148 43.4687 43.9589 32.1504 43.9998 19.4948V8.80049C43.9998 8.35869 43.6416 8.00049 43.1998 8.00049ZM42.3998 19.4948C42.3612 31.3737 35.0643 42.0214 23.9999 46.3443C12.9356 42.0214 5.63869 31.3737 5.59999 19.4948V9.58848C11.7123 9.40529 17.587 7.18029 22.2871 3.26851L23.9999 1.84052L25.7127 3.26771C30.4127 7.17979 36.2875 9.40509 42.3998 9.58848V19.4948Z" fill="#13DA5A"/>
<path d="M40.0862 11.0315C34.4215 10.4219 29.0642 8.14882 24.6895 4.49874L24.5135 4.35074C24.2163 4.10184 23.7835 4.10184 23.4863 4.35074L23.3111 4.49794C18.9363 8.14842 13.5786 10.4218 7.91355 11.0315C7.50755 11.0756 7.20005 11.4184 7.19995 11.8267V19.4947C7.19475 30.3748 13.6811 40.2088 23.6847 44.4874C23.886 44.5737 24.1138 44.5737 24.3151 44.4874C34.3186 40.2088 40.805 30.3748 40.7998 19.4947V11.8267C40.7997 11.4184 40.4922 11.0756 40.0862 11.0315ZM39.1998 19.4947C39.2043 29.61 33.2458 38.7774 23.9999 42.8802C14.7539 38.7774 8.79545 29.61 8.79995 19.4947V12.5347C14.3728 11.8022 19.634 9.54042 23.9999 6.00033C28.3658 9.54081 33.6268 11.8031 39.1998 12.5363V19.4947Z" fill="#13DA5A"/>
<path d="M24 12.8008C17.8172 12.8074 12.8066 17.818 12.8 24.0007C12.8 30.1863 17.8144 35.2007 24 35.2007C30.1856 35.2007 35.2 30.1863 35.2 24.0007C35.2 17.8152 30.1856 12.8008 24 12.8008ZM24 33.6007C18.6981 33.6007 14.4 29.3026 14.4 24.0007C14.4 18.6989 18.6981 14.4008 24 14.4008C29.2996 14.4065 33.5943 18.7012 33.6 24.0007C33.6 29.3026 29.3019 33.6007 24 33.6007Z" fill="#13DA5A"/>
<path d="M24.7999 8.00049H23.2V9.60048H24.7999V8.00049Z" fill="#13DA5A"/>
<path d="M23.7 39.5004V38.9004H24.2999V39.5004H23.7Z" fill="#13DA5A" stroke="#13DA5A"/>
<path d="M12.0001 13.6006H10.4001V15.2006H12.0001V13.6006Z" fill="#13DA5A"/>
<path d="M12.0001 23.2007H10.4001V24.8007H12.0001V23.2007Z" fill="#13DA5A"/>
<path d="M16.7999 33.6006H15.2V35.2006H16.7999V33.6006Z" fill="#13DA5A"/>
<path d="M37.6 13.6006H36V15.2006H37.6V13.6006Z" fill="#13DA5A"/>
<path d="M37.6 23.2007H36V24.8007H37.6V23.2007Z" fill="#13DA5A"/>
<path d="M32.7999 33.6006H31.2V35.2006H32.7999V33.6006Z" fill="#13DA5A"/>
<path fill-rule="evenodd" clip-rule="evenodd" d="M30.2557 20.6551L23.0977 28.9144L18.3416 24.7527L19.6586 23.2476L22.9024 26.0859L28.7444 19.3452L30.2557 20.6551Z" fill="white"/>
</g>
<defs>
<clipPath id="clip0_3198:200642">
<rect width="48" height="48" fill="white"/>
</clipPath>
</defs>
</svg>
