<svg width="24" height="24" fill="none" xmlns="http://www.w3.org/2000/svg"><path d="M12.473 23.062c.793-.504 1.587-1.005 2.38-1.509.358-.227.721-.452 1.07-.696a14.452 14.452 0 002.3-1.978 14.437 14.437 0 003.068-5.107c.536-1.55.766-3.183.766-4.819V5.916v-.083a.96.96 0 00-.689-.904 8.73 8.73 0 01-.844-.29l.225.093a6.318 6.318 0 01-1.37-.8c.062.05.126.1.189.148a6.272 6.272 0 01-1.116-1.113l.148.19a6.344 6.344 0 01-.802-1.374c.03.075.064.15.094.225a6.844 6.844 0 01-.192-.515c-.127-.396-.48-.69-.905-.69H8.384c-.387 0-.776-.01-1.163 0h-.016c-.427 0-.778.294-.905.69-.056.176-.12.347-.192.515.03-.075.063-.15.094-.225-.209.49-.479.95-.802 1.374l.148-.19A6.27 6.27 0 014.432 4.08l.19-.147c-.422.323-.884.59-1.371.799.075-.03.15-.063.225-.094a8.961 8.961 0 01-.844.29.96.96 0 00-.689.905V8.66c0 .497 0 .994.035 1.49.075 1.01.246 2.019.53 2.991a14.396 14.396 0 002.831 5.246c1.006 1.193 2.217 2.158 3.53 2.99l2.594 1.646.066.042c.415.262 1.052.1 1.282-.338a.958.958 0 00-.338-1.282l-1.263-.801-1.615-1.025a15.379 15.379 0 01-1.101-.766l.19.148a13.336 13.336 0 01-2.37-2.37l.148.19c-.699-.907-1.28-1.9-1.728-2.956.03.075.064.15.094.226a13.303 13.303 0 01-.926-3.392c.012.082.024.167.033.248-.1-.759-.117-1.518-.117-2.28V6.445v-.602l-.69.905c.81-.244 1.592-.568 2.279-1.062a7.297 7.297 0 002.023-2.17c.283-.474.51-.99.68-1.515l-.905.69h8.411c.387 0 .776.009 1.163 0h.016L15.891 2c.588 1.836 1.924 3.432 3.677 4.257.422.199.855.354 1.303.49l-.689-.905v3.323a13.712 13.712 0 01-.084 1.533 13.525 13.525 0 01-.926 3.392c.03-.075.063-.15.094-.225a13.475 13.475 0 01-1.728 2.955l.148-.19a13.333 13.333 0 01-2.37 2.37l.19-.148c-.525.405-1.083.755-1.64 1.111l-1.857 1.179-.48.305a.983.983 0 00-.431.56c-.061.225-.033.522.093.722.268.412.84.614 1.282.332z" fill="#13DA5A"/><path d="M7.223 11.95l2.408 2.408.342.342a.952.952 0 001.326 0l1.859-1.859L16.099 9.9l.678-.677c.346-.347.372-.985 0-1.327-.375-.344-.957-.37-1.327 0l-1.859 1.859-2.941 2.941-.677.677h1.326l-2.407-2.407-.342-.342c-.347-.347-.984-.373-1.327 0-.344.375-.37.954 0 1.327z" fill="#13DA5A"/></svg>