<svg width="40" height="40" viewBox="0 0 40 40" fill="none" xmlns="http://www.w3.org/2000/svg">
<circle cx="20" cy="20" r="20" fill="#F30504"/>
<path d="M19.9335 39.9768C29.0084 39.9768 36.365 32.6202 36.365 23.5453C36.365 14.4705 29.0084 7.11389 19.9335 7.11389C10.8587 7.11389 3.5021 14.4705 3.5021 23.5453C3.5021 32.6202 10.8587 39.9768 19.9335 39.9768Z" fill="white"/>
<path fill-rule="evenodd" clip-rule="evenodd" d="M18.8595 7.01437C18.2914 7.04595 17.5091 7.11784 17.4362 7.14505C17.4061 7.15622 17.2254 7.18819 17.0348 7.21604C16.844 7.2439 16.5813 7.29037 16.4508 7.31938C16.3204 7.34826 16.0987 7.39717 15.9582 7.42798C15.8176 7.45879 15.6123 7.5086 15.5019 7.53851C15.3915 7.56842 15.1725 7.62747 15.0153 7.66958C14.7327 7.74532 13.9739 8.00912 13.8511 8.07433C13.8162 8.09281 13.7702 8.10783 13.7488 8.10783C13.7272 8.10783 13.6326 8.14198 13.5384 8.18357C13.2828 8.29628 13.1617 8.34814 13.0225 8.40411C12.8961 8.45495 11.9081 8.93005 11.7488 9.01644C11.6511 9.06959 11.601 9.01182 12.8733 10.3158C13.2258 10.6772 13.67 11.1378 13.8603 11.3396C14.2642 11.7676 14.2662 11.7691 14.377 11.7231C14.594 11.6331 15.8333 11.27 16.1406 11.2063C17.2982 10.9665 18.0882 10.8774 19.5701 10.8194C20.3862 10.7876 22.0621 10.932 23.0016 11.1152C23.579 11.2276 23.6604 11.2448 23.7863 11.2809C23.8565 11.3009 24.0782 11.3583 24.279 11.4084C24.4797 11.4583 24.8245 11.5573 25.0451 11.6283C25.2658 11.6993 25.449 11.7574 25.4523 11.7574C25.4557 11.7574 25.6195 11.5645 25.8164 11.3285C26.0133 11.0927 26.2323 10.8328 26.3033 10.7509C26.3741 10.669 26.5143 10.5048 26.6146 10.3859C26.8668 10.0873 27.4631 9.44071 27.6875 9.22235C27.79 9.12273 27.8736 9.02427 27.8735 9.00335C27.8731 8.95867 27.2593 8.65469 26.4322 8.28999C26.0949 8.14134 26.0115 8.10783 25.9775 8.10783C25.956 8.10783 25.91 8.0923 25.8752 8.07317C25.6047 7.92516 23.974 7.46097 23.1659 7.30205C21.8052 7.0344 20.3016 6.93401 18.8595 7.01437ZM33.5001 14.0125C33.4775 14.087 33.3941 14.4106 33.3146 14.7318C33.1566 15.3704 33.0362 15.8138 32.8689 16.374C32.809 16.5746 32.7263 16.8539 32.6851 16.9944C32.644 17.1349 32.505 17.5659 32.3761 17.9523L32.1418 18.6548L32.2103 18.7916C32.2479 18.867 32.4196 19.1997 32.5919 19.5309C33.1779 20.658 33.6081 21.7626 33.8395 22.7352C33.8906 22.9498 33.9479 23.183 33.9668 23.2533C34.2055 24.1426 34.3693 25.633 34.3737 26.9575C34.375 27.3589 34.3592 27.7695 34.3384 27.8698C34.2461 28.317 34.2202 28.4163 34.1309 28.6646C34.0788 28.8095 34.0212 28.9774 34.0027 29.0376C33.9195 29.3094 33.4763 30.1385 33.1833 30.5705C32.6983 31.2858 32.5322 31.4954 31.94 32.1397C31.7739 32.3203 31.6082 32.502 31.5715 32.5433C31.3386 32.8062 30.2335 33.7529 29.7897 34.0695C28.4337 35.0372 27.1813 35.7599 25.8279 36.3559C25.3596 36.5622 24.2802 36.9753 24.2097 36.9753C24.1936 36.9753 24.1288 36.9984 24.0655 37.0267C23.9227 37.0905 23.4628 37.2308 23.3965 37.2308C23.3695 37.2308 23.3188 37.2458 23.284 37.2641C23.2248 37.2953 22.949 37.3625 22.29 37.506C22.1395 37.5389 21.9167 37.5888 21.795 37.6172C21.6733 37.6455 21.5172 37.6688 21.4483 37.6689C21.3794 37.669 21.1587 37.6946 20.9579 37.7255C19.9237 37.8852 18.4636 37.7581 17.0713 37.3872C16.7731 37.3078 16.042 37.0838 15.9582 37.0462C15.918 37.0282 15.8031 36.9865 15.7027 36.9536C14.761 36.6447 12.6027 35.6352 11.8806 35.166C11.8058 35.1174 11.7352 35.0776 11.7235 35.0776C11.7119 35.0776 11.5779 34.9954 11.4258 34.8951C11.2735 34.7948 11.1441 34.7126 11.1382 34.7126C11.0613 34.7126 9.82448 33.8253 9.26132 33.3662C8.16247 32.4703 7.75836 32.0817 6.86952 31.0672C6.71355 30.889 6.30533 30.3474 6.30533 30.3185C6.30533 30.309 6.23011 30.1916 6.13819 30.0573C6.04615 29.923 5.96143 29.7864 5.94975 29.7538C5.93806 29.7212 5.89904 29.652 5.86309 29.6C5.21405 28.6616 5.07618 27.7139 5.28247 25.6072C5.34242 24.995 5.57028 23.6547 5.68248 23.2533C5.87978 22.548 6.07401 21.897 6.12317 21.7752C6.13948 21.735 6.17991 21.6138 6.21303 21.506C6.29147 21.2504 6.63062 20.3862 6.78043 20.0599C6.845 19.9195 6.99532 19.5944 7.11458 19.3377C7.39815 18.7273 7.39841 18.6934 7.12832 17.9614C6.83987 17.1802 6.62703 16.5313 6.52369 16.1185C6.50867 16.0583 6.45976 15.8776 6.41509 15.717C6.27362 15.2089 6.16027 14.7316 6.07914 14.3016C6.02895 14.0355 6.03267 14.0334 5.72112 14.5075C5.21944 15.2709 4.67092 16.2759 4.39376 16.9397C4.35602 17.03 4.28003 17.2033 4.22483 17.3248C4.16963 17.4464 4.11302 17.5981 4.09903 17.6621C4.08491 17.7259 4.05833 17.7875 4.03985 17.799C4.02123 17.8105 4.00609 17.8451 4.00609 17.8761C4.00609 17.9069 3.98311 17.984 3.95499 18.0472C3.8211 18.3483 3.60749 19.1038 3.36539 20.133C3.19735 20.8473 3.07707 21.8644 2.99696 23.2479C2.96205 23.8525 3.1003 25.4729 3.25897 26.3189C3.35846 26.8485 3.49966 27.4763 3.58747 27.7786C3.85332 28.6941 3.90801 28.8595 4.06591 29.2257C4.09325 29.289 4.11559 29.3589 4.11559 29.3813C4.11559 29.4036 4.1315 29.4503 4.15102 29.4853C4.1704 29.5201 4.25435 29.7129 4.33741 29.9135C5.16566 31.9149 6.7165 34.0699 8.46453 35.6482C9.11536 36.2359 9.42769 36.4809 10.3744 37.1467C10.6002 37.3055 11.1443 37.6368 11.5606 37.8693C11.8082 38.0075 13.0456 38.6175 13.0784 38.6175C13.0954 38.6175 13.1738 38.6508 13.5495 38.8173C13.7666 38.9136 14.5146 39.1652 15.1736 39.3638C17.9003 40.1851 21.4715 40.2076 24.279 39.4208C24.4396 39.3757 24.6257 39.3259 24.6926 39.3099C24.7596 39.2938 24.8581 39.2641 24.9116 39.2439C24.9652 39.2236 25.132 39.1703 25.2826 39.1255C25.4332 39.0808 25.5809 39.0318 25.611 39.0167C25.6412 39.0014 25.748 38.9608 25.8482 38.9264C25.9486 38.892 26.0801 38.8425 26.1403 38.8164C26.2005 38.7903 26.3975 38.7072 26.5781 38.6317C28.2377 37.9381 29.9769 36.8173 31.321 35.575C31.9783 34.9677 32.3082 34.6266 32.8946 33.9485C33.0187 33.8049 33.5588 33.0879 33.8469 32.6841C34.8028 31.3445 35.6951 29.3782 36.1809 27.5413C36.757 25.3626 36.84 22.3282 36.3782 20.3154C36.3597 20.2351 36.309 20.0052 36.2654 19.8045C36.2217 19.6038 36.1641 19.3657 36.1373 19.2753C35.9086 18.5042 35.8535 18.3263 35.8045 18.1987C35.7737 18.1184 35.7268 17.9952 35.7005 17.925C35.3928 17.1033 34.9674 16.1619 34.6614 15.6259C34.2772 14.9529 33.9259 14.3904 33.7109 14.1038L33.5411 13.8772L33.5001 14.0125ZM28.5398 20.7612C28.595 20.7697 28.6853 20.7697 28.7405 20.7612C28.7957 20.7529 28.7505 20.746 28.6401 20.746C28.5298 20.746 28.4846 20.7529 28.5398 20.7612ZM24.4523 24.4097C24.4875 24.419 24.545 24.419 24.58 24.4097C24.6152 24.4005 24.5865 24.3931 24.5162 24.3931C24.4459 24.3931 24.4173 24.4005 24.4523 24.4097Z" fill="#F30504"/>
<path fill-rule="evenodd" clip-rule="evenodd" d="M6.40764 6.05664C5.76925 6.47757 5.34345 8.61507 5.5387 10.4184C5.55872 10.6029 5.59107 10.9591 5.61071 11.2099C5.67195 11.9913 5.77131 12.759 5.88735 13.3449C5.91508 13.4854 5.94897 13.7071 5.96258 13.8376C5.97619 13.9681 5.99916 14.083 6.0138 14.093C6.0283 14.1032 6.05809 14.2016 6.07991 14.312C6.17529 14.7935 6.27888 15.2281 6.41508 15.717C6.45976 15.8776 6.50867 16.0584 6.52369 16.1186C6.62702 16.5313 6.83986 17.1802 7.12831 17.9615C7.3984 18.6934 7.39815 18.7273 7.11458 19.3377C6.99532 19.5945 6.845 19.9195 6.78043 20.0599C6.63062 20.3863 6.29146 21.2505 6.21303 21.506C6.17991 21.6139 6.13947 21.7351 6.12317 21.7752C6.074 21.8971 5.87978 22.548 5.68247 23.2533C5.62111 23.4731 5.46874 24.2808 5.37271 24.8955C5.29274 25.4086 5.16026 26.8283 5.18966 26.8577C5.19698 26.865 5.32381 26.8526 5.4713 26.83C6.02163 26.7455 6.3441 26.7248 7.12639 26.7242C8.02318 26.7234 8.45374 26.7667 9.23141 26.9355C10.5762 27.2275 12.1595 28.1465 13.2562 29.2716C13.4798 29.501 13.4611 29.5034 13.5852 29.2293C14.6305 26.9217 15.8588 25.58 17.6004 24.8433C18.7072 24.3751 20.2557 24.2986 21.5966 24.6459C23.3915 25.1107 24.9109 26.5205 25.7202 28.4721C25.7826 28.6227 25.8491 28.7786 25.868 28.8188C25.8869 28.8589 25.9446 29.006 25.9965 29.1456C26.0482 29.2854 26.0993 29.4138 26.11 29.431C26.1206 29.4482 26.2385 29.3582 26.372 29.231C27.2265 28.4165 28.0073 27.9076 29.2344 27.3653C29.3104 27.3316 29.39 27.3042 29.4114 27.3042C29.4327 27.3042 29.502 27.2812 29.5652 27.2531C29.9037 27.1025 30.5516 26.9465 31.286 26.8387C31.9801 26.7369 34.0075 26.7781 34.315 26.9004C34.4127 26.9392 34.3832 26.0672 34.2453 24.8409C34.1799 24.2592 34.0725 23.6471 33.9668 23.2533C33.9479 23.1831 33.8906 22.9498 33.8395 22.7352C33.6081 21.7627 33.1779 20.658 32.5919 19.5309C32.4196 19.1997 32.2479 18.867 32.2103 18.7916L32.1418 18.6548L32.3761 17.9524C32.505 17.566 32.644 17.1349 32.6851 16.9945C32.7263 16.8539 32.809 16.5747 32.8689 16.374C33.0375 15.8096 33.1573 15.3677 33.3141 14.7318C33.3933 14.4106 33.4815 14.0739 33.5101 13.9837C33.5621 13.8195 33.603 13.643 33.7003 13.1625C33.8709 12.3205 33.9615 11.793 34.0231 11.283C34.0511 11.0522 34.0928 10.7073 34.1158 10.5166C34.1688 10.0763 34.172 8.42097 34.1204 8.10787C34.0232 7.51852 33.9991 7.4062 33.9112 7.13701C33.6793 6.42686 33.427 6.0153 33.2402 6.04303C33.1689 6.05356 33.0286 6.07256 32.9282 6.08527C32.7638 6.10593 32.5121 6.16678 32.0341 6.30118C30.9195 6.61479 29.097 7.77488 28.1127 8.79748C28.0333 8.87989 27.9471 8.94729 27.921 8.94729C27.8951 8.94729 27.8738 8.96847 27.8738 8.99427C27.8738 9.0202 27.7899 9.12277 27.6875 9.22239C27.4631 9.44074 26.8668 10.0873 26.6146 10.3859C26.5143 10.5048 26.3741 10.669 26.3033 10.7509C26.2323 10.8328 26.0133 11.0927 25.8164 11.3286C25.6195 11.5645 25.4557 11.7575 25.4523 11.7575C25.449 11.7575 25.2658 11.6993 25.0451 11.6283C24.8245 11.5573 24.4797 11.4583 24.279 11.4084C24.0782 11.3583 23.8565 11.301 23.7863 11.2809C23.6604 11.2449 23.579 11.2277 23.0016 11.1152C22.062 10.932 20.3862 10.7876 19.5701 10.8194C18.0882 10.8775 17.2982 10.9666 16.1406 11.2064C15.8333 11.27 14.594 11.6332 14.377 11.7232C14.2662 11.7691 14.2642 11.7676 13.8603 11.3396C13.6699 11.1378 13.2258 10.6772 12.8733 10.3158C11.8224 9.23882 11.6683 9.07104 11.6972 9.03574C11.7123 9.01725 11.7097 9.01443 11.6912 9.02945C11.6728 9.04459 11.5489 8.95422 11.416 8.8288C10.0771 7.56512 9.09649 6.8329 8.1486 6.38873C7.45784 6.06498 6.63332 5.90773 6.40764 6.05664ZM13.6311 17.3563C14.7234 17.6471 15.503 19.1453 14.8293 19.6592C14.4546 19.9449 13.1236 20.0791 12.1267 19.9313C11.2692 19.8044 11.1489 18.5562 11.9255 17.8432C12.428 17.3818 13.0547 17.2029 13.6311 17.3563ZM26.6752 17.3608C27.8444 17.6639 28.4464 18.9979 27.7416 19.7237C27.3273 20.1502 24.9863 20.0519 24.5608 19.5901C24.3979 19.4133 24.3042 19.0657 24.3717 18.8882C24.3909 18.8376 24.4067 18.7619 24.4067 18.72C24.4067 18.5833 24.5989 18.2472 24.8034 18.0263C25.3718 17.4123 26.005 17.1873 26.6752 17.3608ZM28.8869 20.9358C28.9892 21.3058 29.0019 21.4225 29.0034 22.0004L29.0051 22.5905L28.7588 22.8141C28.2576 23.269 27.75 23.5489 26.8518 23.8658C26.3544 24.0412 26.2098 24.0815 25.3739 24.2771C24.8309 24.4041 23.9084 24.4615 23.4401 24.3973L23.2662 24.3735L23.2889 24.1564C23.3406 23.6606 23.7841 23.157 24.6988 22.5551C25.6961 21.8989 26.2682 21.5806 27.3627 21.0734C27.7517 20.8932 28.3648 20.7389 28.6562 20.7479L28.8364 20.7534L28.8869 20.9358ZM11.7065 20.8691C12.0145 20.9327 12.2319 21.0006 12.4729 21.1084C12.8833 21.2918 13.478 21.5945 13.8961 21.8327C14.1471 21.9759 14.4404 22.1412 14.548 22.2004C15.8264 22.903 16.5953 23.6379 16.5964 24.1583C16.5983 24.9941 12.3975 24.0271 11.1043 22.8941C10.7068 22.5458 10.6308 21.7266 10.9296 21.0089C11.0413 20.7407 11.0649 20.7365 11.7065 20.8691ZM34.3797 27.1217C34.3797 27.2121 34.3869 27.249 34.3955 27.2039C34.4042 27.1587 34.4042 27.0848 34.3955 27.0396C34.3869 26.9945 34.3797 27.0314 34.3797 27.1217ZM8.09353 32.3519C8.09353 32.3582 8.14693 32.4116 8.21215 32.4706L8.33076 32.5778L8.22357 32.4591C8.12357 32.3486 8.09353 32.3237 8.09353 32.3519ZM31.1742 32.897L31.067 33.0156L31.1856 32.9084C31.2508 32.8495 31.3042 32.7961 31.3042 32.7898C31.3042 32.7617 31.2742 32.7865 31.1742 32.897ZM19.7996 37.8041C19.8451 37.8128 19.9107 37.8125 19.9456 37.8033C19.9805 37.7942 19.9434 37.787 19.8631 37.7874C19.7828 37.7878 19.7542 37.7954 19.7996 37.8041Z" fill="#FBA10B"/>
<path fill-rule="evenodd" clip-rule="evenodd" d="M11.0235 20.8185C10.8273 21.0823 10.6934 21.9616 10.7925 22.3367C10.8116 22.4092 10.836 22.5117 10.8467 22.5642C10.8875 22.7651 11.4337 23.1868 12.0676 23.5068C13.3328 24.1454 15.8235 24.6457 16.4345 24.3837L16.6068 24.3099L16.5867 24.1146C16.5377 23.6398 16.103 23.1784 15.0943 22.5309C14.9001 22.4064 14.7321 22.3044 14.7207 22.3044C14.7092 22.3044 14.5232 22.1999 14.3072 22.0721C13.4829 21.5846 12.5989 21.1417 12.159 20.9959C11.6988 20.8434 11.0772 20.7462 11.0235 20.8185ZM28.257 20.7952C27.5702 20.938 26.6385 21.3657 25.4476 22.085C23.9072 23.0153 23.3508 23.5548 23.2862 24.1809L23.2659 24.3768L23.6891 24.4032C25.3427 24.5065 27.7354 23.7521 28.777 22.799L29.0051 22.5902L29.0034 22.0002C29.0019 21.4348 28.9914 21.3349 28.8912 20.9449L28.8468 20.7716L28.5883 20.7758C28.4462 20.7782 28.297 20.7869 28.257 20.7952ZM18.604 26.6672C18.1207 26.818 17.9111 27.4583 18.055 28.3443C18.1655 29.0247 18.9864 29.7763 19.9634 30.0914C20.0206 30.1098 20.0274 30.1701 20.0274 30.6569V31.202L19.904 31.2748C19.8361 31.3147 19.7267 31.4273 19.6609 31.5247C19.595 31.6221 19.5358 31.7083 19.5296 31.7161C19.4724 31.7877 18.1317 31.7288 17.6004 31.6315C17.3077 31.5778 16.4471 31.5535 16.403 31.5976C16.3901 31.6105 16.4282 31.6767 16.4879 31.7446C16.6434 31.9217 16.7244 32.1003 16.7951 32.4227L16.8573 32.7055H17.0015C17.1609 32.7055 17.1623 32.7074 17.272 33.0704C17.3462 33.3155 17.5579 33.7761 17.6503 33.8937L17.7182 33.98L17.787 33.8268C17.8479 33.6913 17.8552 33.5877 17.8501 32.9396L17.8443 32.2058L18.0326 32.2211C18.1361 32.2295 18.3687 32.2519 18.5493 32.2709C19.6207 32.3839 20.9462 32.3839 21.8886 32.2709C22.0391 32.2528 22.2886 32.2277 22.4429 32.2149L22.7235 32.1918L22.7166 32.8957C22.7101 33.5616 22.714 33.6078 22.7913 33.7522C22.8759 33.9103 22.9469 33.9817 22.9469 33.9083C22.9469 33.8851 22.9708 33.8143 22.9999 33.751C23.0292 33.6877 23.1261 33.4472 23.2156 33.2164L23.3781 32.7967L23.5712 32.7381L23.7642 32.6794L23.8794 32.2618C23.9425 32.0321 24.0058 31.7834 24.0197 31.7092L24.0451 31.5741L23.5051 31.5749C23.0603 31.5755 22.9392 31.5875 22.8175 31.6427C22.6011 31.7411 22.3045 31.7667 21.7202 31.7375L21.2002 31.7115L21.0342 31.4977C20.9382 31.374 20.829 31.274 20.7753 31.2605L20.6823 31.2373L20.6925 30.6852L20.7025 30.133L20.8484 30.0656C21.968 29.5487 22.3017 29.0542 22.3058 27.9063C22.3089 27.0335 22.199 26.8331 21.6275 26.6697C21.3437 26.5886 18.8623 26.5865 18.604 26.6672ZM18.6964 32.7875C18.7306 32.9482 18.7949 33.0128 19.0154 33.1076L19.2026 33.1883L19.3235 33.0563C19.5342 32.8265 19.7018 32.8929 19.9347 33.2985C20.083 33.5567 20.2652 33.5073 20.6203 33.1129C20.784 32.931 20.7713 32.9319 20.9749 33.0862L21.1379 33.2098L21.273 33.1128C21.4308 32.9993 21.4686 32.9458 21.5036 32.7863L21.5294 32.6689H20.1003H18.6713L18.6964 32.7875Z" fill="#060505"/>
</svg>
