<svg width="64" height="64" viewBox="0 0 64 64" fill="none" xmlns="http://www.w3.org/2000/svg">
<path fill-rule="evenodd" clip-rule="evenodd" d="M24.4397 19.377C24.4397 8.69295 32.8645 0 43.2199 0C53.5751 0 61.9999 8.69295 61.9999 19.377C61.9999 21.6824 61.6115 23.9391 60.8443 26.0844C60.6684 26.5764 60.1401 26.827 59.6631 26.6464C59.1871 26.4648 58.9431 25.9189 59.1191 25.4279C59.8107 23.4937 60.1617 21.4582 60.1617 19.377C60.1617 9.73815 52.5611 1.89758 43.2197 1.89758C33.8775 1.89758 26.2777 9.73815 26.2777 19.377C26.2777 29.0148 33.8775 36.8564 43.2197 36.8564C48.0017 36.8564 52.5847 34.755 55.7941 31.0918C55.8734 30.9998 55.9705 30.9248 56.0795 30.8713C56.1886 30.8179 56.3073 30.787 56.4286 30.7806C56.5499 30.7743 56.6712 30.7926 56.7853 30.8344C56.8993 30.8761 57.0037 30.9406 57.0922 31.0238C57.469 31.375 57.4983 31.9746 57.1581 32.3632C53.6017 36.4242 48.5209 38.7528 43.2197 38.7528C41.7938 38.7537 40.3728 38.5872 38.9857 38.2568C39.3067 39.6904 39.4683 41.155 39.4677 42.624C39.4677 53.308 31.0429 62 20.6875 62C16.0071 62 11.5233 60.213 8.06234 56.969C4.62494 53.7464 2.47294 49.3576 2.00494 44.6108C1.95274 44.0892 2.32053 43.6246 2.82613 43.5708C3.33053 43.518 3.78212 43.8976 3.83312 44.418C4.25612 48.6992 6.19755 52.6576 9.29854 55.5646C12.4201 58.4912 16.4655 60.1036 20.6875 60.1036C30.0289 60.1036 37.6295 52.2618 37.6295 42.624C37.6307 40.9354 37.3937 39.255 36.9253 37.6326C31.6251 35.6812 27.4177 31.3404 25.5265 25.8732C23.9921 25.4004 22.3683 25.1447 20.6875 25.1447C13.0477 25.1447 6.32152 30.4526 4.33092 38.0518C4.19812 38.557 3.69353 38.8564 3.20373 38.7194C2.71293 38.5834 2.42373 38.063 2.55553 37.5566C4.76253 29.1314 12.2185 23.248 20.6875 23.248C22.1132 23.2475 23.534 23.4148 24.9205 23.7465C24.6057 22.3411 24.4397 20.8788 24.4397 19.377ZM46.667 10.667H48C50.209 10.667 52 12.457 52 14.667V17.333C51.997 18.3204 51.6262 19.2712 50.96 20C51.6261 20.7289 51.9968 21.6796 52 22.667V25.333C52 27.543 50.209 29.333 48 29.333H46.667V32H44V29.333H42.667V32H40V29.333H36V26.667H38.667V13.333H36V10.667H40V8H42.667V10.667H44V8H46.667V10.667ZM49.2317 25.8434C49.2986 25.6816 49.3331 25.5081 49.333 25.333V22.667C49.333 21.93 48.736 21.333 48 21.333H41.333V26.667H48C48.1751 26.6669 48.3485 26.6324 48.5103 26.5653C48.6721 26.4982 48.819 26.4 48.9428 26.2761C49.0666 26.1522 49.1647 26.0052 49.2317 25.8434ZM49.2317 17.8434C49.2986 17.6816 49.3331 17.5081 49.333 17.333V14.667C49.333 13.93 48.736 13.333 48 13.333H41.333V18.667H48C48.1751 18.6669 48.3485 18.6324 48.5103 18.5653C48.6721 18.4982 48.819 18.4 48.9428 18.2761C49.0666 18.1522 49.1647 18.0052 49.2317 17.8434Z" fill="#13DA5A"/>
<path d="M25.5412 42.4876L24.0182 37.7155C23.9832 37.6044 23.9136 37.5074 23.8195 37.4386C23.7255 37.3698 23.612 37.3329 23.4955 37.3333H17.8378C17.7213 37.3329 17.6077 37.3698 17.5137 37.4386C17.4196 37.5074 17.35 37.6044 17.315 37.7155L15.792 42.4876H25.5412Z" fill="#13DA5A"/>
<path d="M28.6209 42.8538H22.9632C22.8467 42.8535 22.7332 42.8905 22.6391 42.9593C22.5451 43.0281 22.4755 43.1252 22.4405 43.2363L20.9175 48.0084H30.6667L29.1437 43.2363C29.1087 43.1252 29.0391 43.0281 28.9451 42.9593C28.851 42.8905 28.7375 42.8535 28.6209 42.8538Z" fill="#13DA5A"/>
<path d="M18.893 43.2363C18.858 43.1252 18.7884 43.0281 18.6943 42.9593C18.6003 42.8905 18.4867 42.8535 18.3702 42.8538H12.7125C12.596 42.8535 12.4824 42.8905 12.3884 42.9593C12.2943 43.0281 12.2247 43.1252 12.1897 43.2363L10.6667 48.0084H20.416L18.893 43.2363Z" fill="#13DA5A"/>
<path fill-rule="evenodd" clip-rule="evenodd" d="M63.959 44.7706L62.0316 38.6522C61.9384 38.3566 61.6956 38.1247 61.3864 38.0373C61.076 37.9499 60.7412 38.0177 60.4954 38.2181L55.3102 42.4433C54.9078 42.7713 54.8586 43.3507 55.2006 43.7375C55.5438 44.1235 56.147 44.1707 56.5506 43.8415L59.207 41.6766C58.378 44.8351 56.9524 47.8058 55.007 50.4285C52.546 53.7407 49.3794 56.3861 45.5962 58.2891C44.0242 59.0805 42.3722 59.7238 40.6866 60.202C40.1796 60.3454 39.8898 60.856 40.0394 61.342C40.1622 61.7418 40.5442 62 40.957 62C41.0491 61.9997 41.1408 61.9869 41.2294 61.9617C43.035 61.4501 44.8036 60.7618 46.4854 59.9154C50.5378 57.8758 53.9286 55.0427 56.5658 51.4941C58.6712 48.6564 60.2079 45.4384 61.0914 42.0172L62.1258 45.302C62.2508 45.6986 62.6308 45.9539 63.0424 45.9539C63.136 45.9538 63.2291 45.9405 63.319 45.9145C63.825 45.7683 64.1116 45.2558 63.959 44.7706ZM23.9606 0.657797C23.8102 0.171797 23.2776 -0.106232 22.7706 0.0381677C20.965 0.549768 19.1964 1.23815 17.5146 2.08455C13.4622 4.12415 10.0704 6.95702 7.43422 10.5058C5.32866 13.3434 3.79189 16.5615 2.90861 19.9827L1.87422 16.6982C1.72062 16.213 1.18701 15.9382 0.681014 16.0854C0.175014 16.2316 -0.111601 16.7441 0.0409992 17.2293L1.96843 23.347C2.06163 23.6436 2.3044 23.8752 2.6136 23.9626C2.70198 23.9872 2.79329 23.9997 2.88502 24C3.11063 24.0006 3.32952 23.9232 3.50462 23.781L8.6898 19.5566C9.0922 19.2286 9.14142 18.6492 8.79942 18.2624C8.45622 17.8764 7.85202 17.8293 7.44942 18.1573L4.79301 20.3226C5.62219 17.1644 7.04781 14.1939 8.99303 11.5714C11.454 8.25917 14.6206 5.61373 18.4038 3.71053C19.9762 2.91916 21.6201 2.27878 23.3134 1.79781C23.8204 1.65441 24.1102 1.1438 23.9606 0.657797Z" fill="white"/>
</svg>
