<svg width="40" height="40" viewBox="0 0 40 40" fill="none" xmlns="http://www.w3.org/2000/svg">
<circle cx="20" cy="20" r="20" fill="black"/>
<path fill-rule="evenodd" clip-rule="evenodd" d="M9.82243 17.7733H27.3987C27.619 17.7733 27.8279 17.861 27.9799 18.0171L30.7604 20.8248C31.2733 21.3429 30.9086 22.2267 30.1793 22.2267H12.603C12.3827 22.2267 12.1738 22.139 12.0218 21.9829L9.24124 19.1752C8.72463 18.6571 9.0931 17.7733 9.82243 17.7733ZM9.24124 14.0514L12.0218 11.2438C12.1776 11.0876 12.3865 11 12.603 11H30.1755C30.9048 11 31.2733 11.8838 30.7566 12.4019L27.9799 15.2095C27.8241 15.3657 27.6152 15.4533 27.3987 15.4533H9.82243C9.0931 15.4533 8.72463 14.5695 9.24124 14.0514ZM30.7566 25.9486L27.976 28.7562C27.8203 28.9124 27.6114 29 27.3949 29H9.82243C9.0931 29 8.72463 28.1162 9.24124 27.5981L12.0218 24.7905C12.1776 24.6343 12.3865 24.5467 12.603 24.5467H30.1755C30.9048 24.5467 31.2733 25.4305 30.7566 25.9486Z" fill="url(#paint0_linear_2711_82)"/>
<defs>
<linearGradient id="paint0_linear_2711_82" x1="10.2521" y1="29.7748" x2="29.8016" y2="10.2812" gradientUnits="userSpaceOnUse">
<stop stop-color="#CB4EE8"/>
<stop offset="1" stop-color="#10F4B1"/>
</linearGradient>
</defs>
</svg>
