<svg width="40" height="40" viewBox="0 0 40 40" fill="none" xmlns="http://www.w3.org/2000/svg">
<circle cx="20" cy="20" r="20" fill="#FBFFF8"/>
<path d="M30 20C30 25.5228 25.5228 30 20 30C18.2836 30 16.6681 29.5675 15.2567 28.8057L12.9544 29.9883C14.9457 31.3955 17.3763 32.2222 20 32.2222C26.7501 32.2222 32.2222 26.7501 32.2222 20C32.2222 19.7341 32.2137 19.4702 32.197 19.2086C32.1405 18.3242 32.5525 17.4496 33.3412 17.0456L34.4444 16.4805V13.9838L31.3868 15.5499C31.3858 15.5474 31.3849 15.5449 31.3839 15.5425L29.3943 16.5645L29.3961 16.5695L5.55556 28.7805V31.2773L29.928 18.7938C29.9755 19.1892 30 19.5918 30 20Z" fill="#191B1E"/>
<path d="M10.8792 24.1061L10.8802 24.1084L8.90102 25.1251L8.89883 25.1204L5.55556 26.8328V24.3361L6.73257 23.7332C7.5623 23.3082 7.97067 22.3673 7.86189 21.4415C7.80634 20.9687 7.77778 20.4877 7.77778 20C7.77778 13.2498 13.2499 7.77777 20 7.77777C22.9073 7.77777 25.5774 8.79284 27.6755 10.4879L25.4645 11.6237C23.8938 10.5969 22.0166 9.99999 20 9.99999C14.4772 9.99999 10 14.4771 10 20C10 20.6712 10.0661 21.327 10.1922 21.9612L34.4444 9.53931V12.0361L10.8792 24.1061Z" fill="#191B1E"/>
</svg>
