<svg width="368" height="758" viewBox="0 0 368 758" fill="none" xmlns="http://www.w3.org/2000/svg">
<path fill-rule="evenodd" clip-rule="evenodd" d="M2.56148 43.9675C2.56148 19.6849 21.6751 0 45.2529 0H322.747C346.325 0 365.439 19.685 365.439 43.9675V168.835C366.853 168.835 368 170.016 368 171.473V254.132C368 255.589 366.853 256.77 365.439 256.77V714.032C365.439 738.315 346.325 758 322.747 758H45.2529C21.6751 758 2.56148 738.315 2.56148 714.032V275.237C1.14678 275.237 0 274.056 0 272.599V222.476C0 221.019 1.14678 219.838 2.56148 219.838V205.768C1.14678 205.768 0 204.587 0 203.13V153.007C0 151.55 1.14678 150.369 2.56148 150.369V120.471C1.61835 120.471 0.853828 119.684 0.853828 118.712V93.2111C0.853828 92.2395 1.61835 91.4524 2.56148 91.4524V43.9675ZM278.129 21.9894L311.647 21.9837C329.566 21.9837 344.093 36.9443 344.093 55.399V702.601C344.093 721.056 329.566 736.016 311.647 736.016H56.3527C38.4336 736.016 23.9072 721.056 23.9072 702.601V55.399C23.9072 36.9443 38.4336 21.9837 56.3527 21.9837H89.8655L278.129 21.9894Z" fill="#080A0C"/>
</svg>
