<svg width="24" height="24" viewBox="0 0 24 24" fill="none" xmlns="http://www.w3.org/2000/svg">
<circle cx="12" cy="12" r="12" fill="#00A478"/>
<path d="M10.6605 11.6287V8.88721H6.98242V6.48413H17.2605V8.92105H13.5824V11.6287H10.6605Z" fill="white"/>
<path fill-rule="evenodd" clip-rule="evenodd" d="M5.40039 11.8612C5.40039 10.9871 8.34132 10.2749 12.0004 10.2749C15.6595 10.2749 18.6004 10.9871 18.6004 11.8612C18.6004 12.7354 15.6595 13.4476 12.0004 13.4476C8.34132 13.4476 5.40039 12.7354 5.40039 11.8612ZM18.0533 11.8613C17.8139 11.5375 15.8305 10.5339 12.0004 10.5339C8.17037 10.5339 6.18695 11.5052 5.94757 11.8613C6.18695 12.185 8.17037 12.6707 12.0004 12.6707C15.8647 12.6707 17.8139 12.185 18.0533 11.8613Z" fill="white"/>
<path d="M13.5813 12.4749V10.5795C13.1 10.5457 12.5844 10.5118 12.0688 10.5118C11.5875 10.5118 11.107 10.5118 10.6602 10.5457V12.441C11.0834 12.5074 11.5935 12.52 12.0688 12.52C12.5441 12.52 13.1 12.5087 13.5813 12.4749Z" fill="white"/>
<path d="M12.0008 13.5852C11.5195 13.5852 11.107 13.572 10.6602 13.5381V18.601H13.5477V13.5241C13.0664 13.558 12.5164 13.5852 12.0008 13.5852Z" fill="white"/>
</svg>
