<svg width="24" height="24" fill="none" xmlns="http://www.w3.org/2000/svg"><path d="M19.072 4.928A9.935 9.935 0 0012 2a9.926 9.926 0 00-7.068 2.928A9.924 9.924 0 002 12a9.924 9.924 0 002.932 7.072A9.943 9.943 0 0012 22c2.67 0 5.18-1.039 7.068-2.928A9.924 9.924 0 0022 12a9.937 9.937 0 00-2.928-7.072zm.731 3.86h-3.71c-.004-.011-.004-.023-.008-.035-.36-1.956-.887-3.6-1.298-4.707a8.476 8.476 0 015.016 4.743zM10.87 3.654A8.256 8.256 0 0112 3.578c.317 0 .626.02.93.051.337.783 1.091 2.712 1.568 5.16h-4.84c.407-2.724 1.083-4.758 1.212-5.136zM3.564 12c0-.559.054-1.106.16-1.637h4.171a25.833 25.833 0 00-.035 4.526H4.076A8.328 8.328 0 013.564 12zm1.286 4.463h3.206c.195 1.2.488 2.334.887 3.384a8.48 8.48 0 01-4.093-3.384zm3.229-7.674H4.201a8.48 8.48 0 014.887-4.695 34.007 34.007 0 00-1.009 4.695zm5.047 11.558a8.61 8.61 0 01-2.275-.004c-.594-1.243-.978-2.562-1.204-3.88h4.93a13.532 13.532 0 01-1.451 3.884zm1.693-5.458H9.435a24.806 24.806 0 01.032-4.526h5.285c.172 1.366.239 2.92.067 4.526zm.32 4.93a15.43 15.43 0 001.032-3.356h2.983a8.477 8.477 0 01-4.015 3.357zm1.259-4.93l.012-.142a21.235 21.235 0 00-.082-4.384h3.952A8.39 8.39 0 0120.44 12c0 1.015-.18 1.987-.512 2.889h-3.53z" fill="#13DA5A"/></svg>