<svg width="62" height="131" fill="none" xmlns="http://www.w3.org/2000/svg"><g clip-path="url(#clip0_9791_299174)" fill="#fff"><path d="M49.189 9a4.602 4.602 0 013.26 1.351 4.605 4.605 0 011.352 3.262v3.466h-5.73v36.65a4.602 4.602 0 01-1.352 3.26 4.602 4.602 0 01-3.21 1.35v.002H12.226a4.605 4.605 0 01-4.263-2.848 4.6 4.6 0 01-.35-1.766v-3.465h6.877v-36.65A4.607 4.607 0 0119.102 9h30.087zm2.264 4.613a2.251 2.251 0 00-.664-1.601 2.252 2.252 0 00-1.6-.663H23.118c.391.69.596 1.47.596 2.264v1.118h27.739v-1.118zM10.624 55.329a2.253 2.253 0 001.601.663 2.25 2.25 0 001.6-.663 2.253 2.253 0 00.664-1.6V52.61H9.96v1.118a2.249 2.249 0 00.664 1.6zm35.097-38.25H21.367v-3.466a2.251 2.251 0 00-.663-1.601 2.252 2.252 0 00-1.6-.663h-.002a2.254 2.254 0 00-1.6.663 2.252 2.252 0 00-.663 1.6v40.116c0 .794-.206 1.573-.597 2.264h27.216a2.25 2.25 0 001.601-.663 2.253 2.253 0 00.663-1.6v-36.65z"/><path d="M30.307 26.391v5.365h.002a1.247 1.247 0 002.493 0V26.39h1.513v5.495h-.007a2.759 2.759 0 01-4.653 1.86 2.758 2.758 0 01-.853-1.86h-.007v-5.495h1.512zM30.317 46.887h-1.522v-8.124h5.52v1.376h-3.998v2.247h3.769v1.377h-3.769v3.124z"/><path d="M38.568 24.472H24.543v24.282h14.025V38.475h1.212v11.49H23.33V24.42c0-.64.52-1.159 1.16-1.159h15.29v11.481h-1.212V24.472z"/><path d="M40.433 34.116a1.26 1.26 0 11-2.519 0 1.26 1.26 0 012.52 0zM40.433 39.1a1.26 1.26 0 11-2.519 0 1.26 1.26 0 012.52 0zM12.223 61.292v-.003l-4.657-1.943v3.928l4.657 2.01h33.344v-3.992H12.223z"/></g><path stroke="#fff" stroke-width=".728" d="M.139 82.636h61.165"/><path d="M18.788 100v-7.095h3.182c.818 0 1.446.166 1.885.497.44.324.659.77.659 1.338 0 .385-.088.71-.264.973a1.673 1.673 0 01-.689.608c-.29.142-.605.213-.942.213l.182-.304c.405 0 .764.07 1.074.213.311.142.558.351.74.628.183.27.274.608.274 1.014 0 .608-.23 1.08-.69 1.418-.452.332-1.128.497-2.026.497h-3.385zm1.013-.82h2.331c.561 0 .99-.096 1.287-.285.298-.189.446-.486.446-.892 0-.412-.148-.712-.446-.902-.297-.189-.726-.283-1.287-.283H19.71v-.821h2.169c.513 0 .912-.095 1.196-.284.284-.19.425-.473.425-.851 0-.379-.142-.663-.425-.852-.284-.189-.683-.284-1.196-.284H19.8v5.453zm7.377-3.214h3.648v.862h-3.648v-.862zm.091 3.152h4.135V100h-5.148v-7.095h5.006v.882H27.27v5.331zm7.641.963c-.54 0-1.057-.081-1.55-.243-.494-.169-.882-.385-1.166-.649l.375-.79c.27.236.615.432 1.034.588.419.155.854.233 1.307.233.412 0 .747-.048 1.004-.142.256-.095.445-.223.567-.385a.948.948 0 00.182-.568.76.76 0 00-.243-.588 1.653 1.653 0 00-.618-.355 6.08 6.08 0 00-.831-.243 16.657 16.657 0 01-.922-.233 4.496 4.496 0 01-.842-.355 1.75 1.75 0 01-.608-.567c-.155-.243-.233-.554-.233-.933 0-.364.095-.699.284-1.003.196-.31.493-.557.892-.74.405-.189.919-.284 1.54-.284.413 0 .821.054 1.227.163.405.108.757.263 1.054.466l-.335.81a3.164 3.164 0 00-.962-.435 3.639 3.639 0 00-.984-.142c-.398 0-.726.05-.983.152-.256.101-.446.236-.567.405a.987.987 0 00-.173.568c0 .25.078.45.233.598.163.148.369.267.619.354.257.088.537.17.841.244.304.067.608.145.912.233.311.088.591.203.841.345.257.141.463.33.619.567.155.236.233.54.233.912 0 .358-.098.693-.294 1.004-.196.304-.5.55-.912.74-.406.182-.92.273-1.54.273zm5.335-.081v-6.213h-2.433v-.882h5.868v.882h-2.432V100h-1.003zm-25.97 10.081a4.18 4.18 0 01-1.5-.263 3.68 3.68 0 01-1.187-.761 3.673 3.673 0 01-.78-1.155 3.625 3.625 0 01-.284-1.449c0-.527.095-1.01.284-1.45.19-.439.453-.821.79-1.145a3.471 3.471 0 011.186-.76c.46-.182.96-.274 1.5-.274.548 0 1.051.095 1.51.284.467.183.862.456 1.186.821l-.659.639a2.571 2.571 0 00-.912-.629 2.77 2.77 0 00-1.084-.213c-.399 0-.77.068-1.115.203a2.605 2.605 0 00-1.47 1.439 2.844 2.844 0 00-.202 1.085c0 .392.067.756.202 1.094a2.638 2.638 0 001.47 1.429c.345.136.716.203 1.115.203.385 0 .747-.067 1.084-.203.338-.142.642-.358.912-.648l.66.638a3.14 3.14 0 01-1.187.831 3.94 3.94 0 01-1.52.284zm3.948-.081v-7.095h2.767c.622 0 1.152.098 1.591.294.44.196.777.48 1.014.852.236.371.355.814.355 1.327 0 .514-.119.956-.355 1.328a2.275 2.275 0 01-1.014.841c-.439.196-.97.294-1.59.294h-2.21l.456-.466V110h-1.014zm4.744 0l-1.804-2.574h1.084L24.071 110h-1.104zm-3.73-2.524l-.456-.496h2.179c.648 0 1.138-.139 1.47-.416.337-.284.506-.679.506-1.186 0-.506-.169-.898-.506-1.175-.332-.277-.822-.416-1.47-.416h-2.18l.457-.507v4.196zM26.998 110v-2.716l.233.628-3.05-5.007h1.084l2.564 4.227h-.587l2.574-4.227h1.003l-3.04 5.007.223-.628V110h-1.004zm4.528 0v-7.095h2.767c.622 0 1.152.098 1.591.294.44.196.777.48 1.014.852.236.371.354.814.354 1.327 0 .514-.118.956-.354 1.328a2.334 2.334 0 01-1.014.851c-.439.196-.97.294-1.59.294h-2.21l.456-.476V110h-1.014zm1.014-2.524l-.456-.506h2.179c.648 0 1.138-.139 1.47-.416.337-.277.506-.669.506-1.176 0-.506-.169-.898-.507-1.175-.33-.277-.82-.416-1.47-.416h-2.178l.456-.507v4.196zM39.72 110v-6.213h-2.432v-.882h5.868v.882h-2.433V110H39.72zm7.44.081c-.54 0-1.043-.091-1.51-.274a3.634 3.634 0 01-1.195-.76 3.59 3.59 0 01-.791-1.155 3.598 3.598 0 01-.284-1.439c0-.521.095-1 .284-1.439.19-.44.453-.821.79-1.146a3.564 3.564 0 011.197-.77c.459-.182.962-.274 1.51-.274.54 0 1.037.092 1.49.274.459.176.858.429 1.195.76.345.324.609.706.791 1.145.19.44.284.923.284 1.45 0 .527-.095 1.01-.284 1.449a3.388 3.388 0 01-.79 1.155 3.653 3.653 0 01-1.197.761c-.452.175-.949.263-1.49.263zm0-.902c.393 0 .754-.067 1.085-.203a2.562 2.562 0 001.45-1.439c.141-.331.212-.692.212-1.084 0-.392-.07-.754-.213-1.085a2.508 2.508 0 00-.577-.861 2.489 2.489 0 00-.872-.578 2.846 2.846 0 00-1.084-.203 2.95 2.95 0 00-1.105.203 2.618 2.618 0 00-.872.578c-.25.243-.446.53-.587.861a2.844 2.844 0 00-.203 1.085c0 .392.067.753.203 1.084.141.331.337.622.587.872.25.243.54.432.872.567.338.136.706.203 1.105.203zM9.8 120v-7.095h3.183c.817 0 1.446.166 1.885.497.44.324.659.77.659 1.338 0 .385-.088.709-.264.973a1.677 1.677 0 01-.689.608c-.29.142-.605.213-.943.213l.183-.304c.405 0 .763.071 1.074.213.311.141.558.351.74.628.182.27.274.608.274 1.013 0 .609-.23 1.082-.69 1.419-.452.331-1.128.497-2.027.497H9.8zm1.014-.821h2.33c.562 0 .99-.095 1.288-.284.297-.189.446-.486.446-.892 0-.412-.149-.712-.446-.902-.297-.189-.726-.283-1.287-.283h-2.422v-.821h2.168c.514 0 .913-.095 1.197-.284.283-.189.425-.473.425-.851 0-.379-.142-.663-.425-.852-.284-.189-.683-.284-1.196-.284h-2.078v5.453zm6.454.821v-7.095h2.767c.622 0 1.152.098 1.591.294.44.196.777.48 1.014.852.236.371.355.814.355 1.327 0 .514-.119.956-.355 1.328a2.275 2.275 0 01-1.014.841c-.439.196-.97.294-1.59.294h-2.21l.456-.466V120h-1.014zm4.744 0l-1.805-2.574h1.085L23.116 120h-1.104zm-3.73-2.524l-.456-.496h2.179c.648 0 1.138-.139 1.47-.416.337-.284.506-.679.506-1.186 0-.506-.169-.898-.507-1.175-.33-.277-.82-.416-1.47-.416h-2.178l.456-.507v4.196zm9.35 2.605c-.54 0-1.044-.091-1.51-.274a3.634 3.634 0 01-1.196-.76 3.589 3.589 0 01-.79-1.155 3.598 3.598 0 01-.284-1.439c0-.521.094-1 .284-1.439.189-.44.452-.821.79-1.146a3.564 3.564 0 011.196-.77c.46-.182.963-.274 1.51-.274.54 0 1.037.092 1.49.274.46.176.858.429 1.196.76.345.324.608.706.79 1.145.19.44.284.923.284 1.45 0 .527-.094 1.01-.284 1.449a3.388 3.388 0 01-.79 1.155 3.653 3.653 0 01-1.196.761 4.1 4.1 0 01-1.49.263zm0-.902c.392 0 .753-.067 1.084-.203a2.562 2.562 0 001.45-1.439c.142-.331.213-.692.213-1.084 0-.392-.071-.754-.213-1.085a2.51 2.51 0 00-.578-.861 2.49 2.49 0 00-.872-.578 2.845 2.845 0 00-1.084-.203 2.95 2.95 0 00-1.105.203 2.619 2.619 0 00-.871.578c-.25.243-.446.53-.588.861a2.846 2.846 0 00-.203 1.085c0 .392.068.753.203 1.084.142.331.338.622.588.872.25.243.54.432.871.567a2.93 2.93 0 001.105.203zm5.998-.892l-.05-1.236 4.023-4.146h1.156l-3.112 3.284-.567.629-1.45 1.469zM32.74 120v-7.095h1.013V120H32.74zm5.027 0l-2.91-3.385.68-.75L38.952 120h-1.186zm2.977-4.034h3.648v.862h-3.648v-.862zm.091 3.152h4.135V120h-5.148v-7.095h5.006v.882h-3.993v5.331zm5.574.882v-7.095h2.767c.621 0 1.152.098 1.59.294.44.196.778.48 1.014.852.237.371.355.814.355 1.327 0 .514-.118.956-.355 1.328a2.275 2.275 0 01-1.013.841c-.44.196-.97.294-1.591.294h-2.21l.456-.466V120h-1.013zm4.743 0l-1.804-2.574h1.084L52.256 120H51.15zm-3.73-2.524l-.456-.496h2.18c.648 0 1.138-.139 1.469-.416.338-.284.506-.679.506-1.186 0-.506-.168-.898-.506-1.175-.331-.277-.821-.416-1.47-.416h-2.179l.456-.507v4.196zM21.311 130v-1.064l2.737-2.585c.217-.196.375-.371.477-.527.1-.155.169-.297.202-.425.04-.129.061-.247.061-.355 0-.284-.098-.5-.294-.649-.189-.155-.47-.233-.841-.233-.297 0-.574.058-.831.172-.25.115-.463.294-.639.538l-1.196-.771c.27-.405.65-.726 1.136-.962.486-.237 1.047-.355 1.682-.355.527 0 .986.088 1.378.263.399.169.707.409.923.72.223.311.334.682.334 1.115 0 .23-.03.459-.091.689a2.128 2.128 0 01-.345.709c-.169.25-.419.531-.75.842l-2.27 2.138-.314-.598h4.003V130h-5.361zm8.878.122a2.908 2.908 0 01-1.561-.426c-.46-.291-.821-.709-1.085-1.257-.263-.547-.395-1.209-.395-1.986 0-.777.132-1.439.395-1.987.264-.547.625-.963 1.085-1.246.46-.291.98-.436 1.56-.436.588 0 1.109.145 1.561.436.46.283.821.699 1.085 1.246.263.548.395 1.21.395 1.987 0 .777-.132 1.439-.395 1.986-.264.548-.625.966-1.085 1.257-.452.284-.973.426-1.56.426zm0-1.389c.277 0 .516-.078.72-.233.209-.155.37-.402.486-.74.121-.338.182-.773.182-1.307 0-.534-.06-.97-.182-1.308-.115-.338-.277-.584-.487-.74a1.151 1.151 0 00-.72-.233c-.27 0-.51.078-.719.233-.203.156-.365.402-.486.74-.115.338-.173.774-.173 1.308s.058.969.173 1.307c.121.338.283.585.486.74.21.155.45.233.72.233zM33.724 130v-1.064l2.736-2.585c.216-.196.375-.371.477-.527.1-.155.169-.297.202-.425.04-.129.061-.247.061-.355 0-.284-.098-.5-.294-.649-.189-.155-.47-.233-.841-.233-.297 0-.574.058-.831.172-.25.115-.463.294-.639.538l-1.196-.771c.27-.405.65-.726 1.136-.962.486-.237 1.047-.355 1.682-.355.527 0 .986.088 1.378.263.399.169.706.409.923.72.223.311.334.682.334 1.115 0 .23-.03.459-.091.689a2.128 2.128 0 01-.345.709c-.169.25-.419.531-.75.842l-2.27 2.138-.314-.598h4.003V130h-5.361zm6.93 0v-6.486l.71.709h-2.128v-1.318h3.06V130h-1.641z" fill="#fff"/><defs><clipPath id="clip0_9791_299174"><path fill="#fff" transform="translate(7.722)" d="M0 0h46v75H0z"/></clipPath></defs></svg>