<svg width="24" height="24" fill="none" xmlns="http://www.w3.org/2000/svg"><mask id="a" fill="#fff"><path fill-rule="evenodd" clip-rule="evenodd" d="M16.5 20a3.5 3.5 0 100-7 3.5 3.5 0 000 7zm0-1.5a2 2 0 100-4 2 2 0 000 4z"/></mask><path fill-rule="evenodd" clip-rule="evenodd" d="M16.5 20a3.5 3.5 0 100-7 3.5 3.5 0 000 7zm0-1.5a2 2 0 100-4 2 2 0 000 4z" fill="#13DA5A"/><path d="M18 16.5a1.5 1.5 0 01-1.5 1.5v4a5.5 5.5 0 005.5-5.5h-4zM16.5 15a1.5 1.5 0 011.5 1.5h4a5.5 5.5 0 00-5.5-5.5v4zM15 16.5a1.5 1.5 0 011.5-1.5v-4a5.5 5.5 0 00-5.5 5.5h4zm1.5 1.5a1.5 1.5 0 01-1.5-1.5h-4a5.5 5.5 0 005.5 5.5v-4zm0-1.5v4a4 4 0 004-4h-4zm0 0h4a4 4 0 00-4-4v4zm0 0v-4a4 4 0 00-4 4h4zm0 0h-4a4 4 0 004 4v-4z" fill="#13DA5A" mask="url(#a)"/><mask id="b" fill="#fff"><path fill-rule="evenodd" clip-rule="evenodd" d="M7.5 11a3.5 3.5 0 100-7 3.5 3.5 0 000 7zm0-1.5a2 2 0 100-4 2 2 0 000 4z"/></mask><path fill-rule="evenodd" clip-rule="evenodd" d="M7.5 11a3.5 3.5 0 100-7 3.5 3.5 0 000 7zm0-1.5a2 2 0 100-4 2 2 0 000 4z" fill="#13DA5A"/><path d="M9 7.5A1.5 1.5 0 017.5 9v4A5.5 5.5 0 0013 7.5H9zM7.5 6A1.5 1.5 0 019 7.5h4A5.5 5.5 0 007.5 2v4zM6 7.5A1.5 1.5 0 017.5 6V2A5.5 5.5 0 002 7.5h4zM7.5 9A1.5 1.5 0 016 7.5H2A5.5 5.5 0 007.5 13V9zm0-1.5v4a4 4 0 004-4h-4zm0 0h4a4 4 0 00-4-4v4zm0 0v-4a4 4 0 00-4 4h4zm0 0h-4a4 4 0 004 4v-4z" fill="#13DA5A" mask="url(#b)"/><path fill-rule="evenodd" clip-rule="evenodd" d="M18.707 5.293a1 1 0 010 1.414l-12 12a1 1 0 01-1.414-1.414l12-12a1 1 0 011.414 0z" fill="#13DA5A"/></svg>