<svg width="80" height="80" viewBox="0 0 80 80" fill="none" xmlns="http://www.w3.org/2000/svg">
<path fill-rule="evenodd" clip-rule="evenodd" d="M6.66663 10.6666C6.66663 8.45741 8.45749 6.66655 10.6666 6.66655H69.3333C71.5424 6.66655 73.3333 8.45741 73.3333 10.6665V69.3332C73.3333 71.5424 71.5424 73.3332 69.3333 73.3332H10.6666C8.45749 73.3332 6.66663 71.5424 6.66663 69.3332V10.6666ZM56.6666 26.6666H23.3333V53.3333H56.6666V43.3332H47.6666C47.1143 43.3332 46.6666 42.8855 46.6666 42.3332V37.6665C46.6666 37.1143 47.1143 36.6665 47.6666 36.6665H56.6666V26.6666ZM23.3333 20C19.6514 20 16.6666 22.9847 16.6666 26.6666V53.3333C16.6666 57.0152 19.6514 60 23.3333 60H56.6666C60.3485 60 63.3333 57.0152 63.3333 53.3333V26.6666C63.3333 22.9847 60.3485 20 56.6666 20H23.3333Z" fill="white"/>
</svg>
