<svg width="64" height="64" viewBox="0 0 64 64" fill="none" xmlns="http://www.w3.org/2000/svg">
<g clip-path="url(#clip0_3193:202443)">
<path fill-rule="evenodd" clip-rule="evenodd" d="M51.1828 19.4667C51.4652 19.7805 51.6824 20.1473 51.8217 20.5459C52.4024 22.2063 51.5271 24.0231 49.8666 24.6037V26.9333H47.7332V24.8H45.5999V26.9333H43.4666V24.8H42.3999C41.8109 24.8 41.3333 24.3224 41.3333 23.7333V15.2C41.3333 14.6109 41.8109 14.1333 42.3999 14.1333H43.4666V12H45.5999V14.1333H47.7332V12H49.8666V14.3296C50.2651 14.4689 50.6319 14.6861 50.9458 14.9685C52.2533 16.1452 52.3595 18.1591 51.1828 19.4667ZM43.4666 22.6667H48.7999C49.389 22.6667 49.8666 22.1891 49.8666 21.6C49.8666 21.0109 49.389 20.5333 48.7999 20.5333H43.4666V22.6667ZM43.4666 18.4H48.7999C49.389 18.4 49.8666 17.9224 49.8666 17.3333C49.8666 16.7443 49.389 16.2667 48.7999 16.2667H43.4666V18.4Z" fill="white"/>
<path fill-rule="evenodd" clip-rule="evenodd" d="M59.3594 21.3345H60.7993C62.5665 21.3345 63.9992 22.7671 63.9992 24.5344V60.8001C63.9992 62.5674 62.5666 64 60.7993 64H3.20089C1.4336 64 0.000976562 62.5674 0.000976562 60.8001V22.4011C0.00537644 22.0394 0.196038 21.7054 0.505496 21.518L0.49483 21.5009L11.7553 14.3352C11.7532 14.273 11.7494 14.211 11.7455 14.1489C11.7398 14.0556 11.734 13.9622 11.734 13.868C11.7341 8.89697 14.3954 4.30642 18.7091 1.83596C25.3546 -1.96994 33.8271 0.331999 37.633 6.97755C40.0175 5.218 42.9028 4.26856 45.8661 4.26856C53.5243 4.26843 59.7326 10.4764 59.7327 18.1346C59.7327 18.2316 59.7327 18.318 59.722 18.4098C59.7188 18.7927 59.6932 19.2183 59.641 19.7079C59.5807 20.2553 59.4867 20.7986 59.3594 21.3345ZM57.5994 18.1346C57.5918 11.6578 52.3432 6.40917 45.8664 6.40157C43.2155 6.39677 40.6417 7.29314 38.5674 8.94337C38.5731 8.9583 38.5777 8.97348 38.5824 8.98855C38.5873 9.0047 38.5923 9.02072 38.5983 9.03616C38.6879 9.28362 38.7669 9.53215 38.8437 9.78281C38.8548 9.81937 38.8673 9.85552 38.8798 9.89171C38.8961 9.93894 38.9125 9.98622 38.9258 10.0345C38.9462 10.018 38.9674 10.0021 38.9885 9.98615C39.0138 9.96719 39.039 9.94816 39.0634 9.92787C39.1326 9.86707 39.2032 9.81228 39.2736 9.75769C39.2921 9.74333 39.3105 9.72898 39.329 9.71455C39.5366 9.55175 39.7471 9.39922 39.9604 9.25696C40.0596 9.18976 40.1588 9.12363 40.2602 9.0607C40.5065 8.9103 40.754 8.7727 41.0068 8.64257C41.0319 8.62926 41.0569 8.61541 41.0819 8.60149C41.1272 8.57639 41.1728 8.55109 41.2201 8.52844C41.5461 8.37071 41.8801 8.23005 42.2206 8.10712C42.2718 8.08856 42.3242 8.07231 42.3765 8.05605C42.4114 8.04521 42.4463 8.03438 42.4809 8.02286C42.7433 7.93646 43.0067 7.85753 43.2766 7.79033C43.3954 7.76113 43.5149 7.73446 43.635 7.71033C43.8899 7.65593 44.1481 7.6122 44.4083 7.577C44.4371 7.57293 44.4658 7.56873 44.4944 7.56452C44.5785 7.55219 44.6624 7.53989 44.7475 7.53114C45.1191 7.49074 45.4925 7.46981 45.8664 7.46821C51.7546 7.47474 56.5264 12.2463 56.5328 18.1346C56.5308 18.5014 56.5094 18.8676 56.4688 19.2322C56.4603 19.3207 56.4496 19.4092 56.4379 19.4977C56.3939 19.8563 56.3315 20.2123 56.2512 20.5644C56.2483 20.5752 56.2452 20.586 56.2421 20.5967C56.2393 20.606 56.2366 20.6152 56.2341 20.6241C56.1765 20.863 56.1136 21.1009 56.04 21.3345H57.1578C57.3314 20.7277 57.4528 20.1071 57.5205 19.4796C57.5628 19.1038 57.5856 18.726 57.5888 18.3479C57.5886 18.2987 57.5922 18.2494 57.5994 18.2007V18.1346ZM25.6003 2.13502C22.88 2.13622 20.2444 3.08219 18.1444 4.81134C13.1394 8.93203 12.4228 16.3297 16.5435 21.3345H17.9792C17.7626 21.1137 17.5589 20.8822 17.3626 20.6444C17.3533 20.6324 17.3428 20.6212 17.3322 20.6101C17.3259 20.6035 17.3196 20.5968 17.3136 20.59C17.0433 20.2544 16.794 19.9024 16.5669 19.5361C16.52 19.4629 16.4763 19.3878 16.4323 19.3122C16.4193 19.2898 16.4062 19.2674 16.3931 19.245C16.216 18.947 16.0564 18.6406 15.9141 18.3255C15.8985 18.2918 15.8823 18.2585 15.866 18.2251C15.8401 18.1717 15.814 18.1182 15.7904 18.0631C15.6222 17.6693 15.4776 17.2657 15.3574 16.8546C15.3428 16.8025 15.3304 16.7501 15.3181 16.6977C15.3097 16.6621 15.3014 16.6265 15.2923 16.5912C15.2039 16.2493 15.1326 15.9033 15.079 15.5544L15.0751 15.5304C15.0572 15.4181 15.0396 15.3074 15.0256 15.1939C14.3442 9.84654 17.7596 4.83148 22.9846 3.50645C28.6949 2.05849 34.4976 5.51372 35.9456 11.2238C35.9476 11.2317 35.9498 11.2395 35.9521 11.2473C35.9584 11.2694 35.9648 11.2917 35.9648 11.3145C36.1623 12.1514 36.2636 13.0082 36.2667 13.868C36.2636 16.2392 35.4705 18.5418 34.0129 20.4119C33.7689 20.7242 33.5075 21.0226 33.2299 21.3057C33.2225 21.3142 33.2161 21.3238 33.2075 21.3324H34.6411L34.6479 21.3242C34.7406 21.2128 34.8341 21.1003 34.9206 20.9878C34.9411 20.9612 34.9618 20.9347 34.9825 20.9084C35.0263 20.8525 35.0698 20.7969 35.1104 20.7404C35.2992 20.4844 35.4752 20.2156 35.6309 19.9511L35.6448 19.9297C35.9196 19.4867 36.16 19.0231 36.3637 18.5431C36.3835 18.4968 36.4063 18.4519 36.432 18.4087C36.8557 17.3862 37.1329 16.3089 37.2554 15.2088C37.2969 14.8344 37.3194 14.458 37.3226 14.0814C37.3225 14.0322 37.3261 13.9828 37.3333 13.9342C37.3374 13.4206 37.3054 12.9073 37.2373 12.3982C37.093 11.2494 36.7826 10.1276 36.3157 9.06816C34.416 4.85281 30.2239 2.14035 25.6003 2.13502ZM31.634 19.883C31.6704 19.849 31.7072 19.8147 31.742 19.7783C33.2762 18.1934 34.1338 16.0738 34.1334 13.868C34.1312 13.151 34.0446 12.4367 33.8753 11.7401L33.8635 11.6878C32.7646 7.50594 28.7133 4.80574 24.4306 5.40066C19.7598 6.04958 16.4993 10.362 17.1482 15.0328C17.1583 15.1062 17.1746 15.1778 17.1909 15.2493C17.2023 15.2993 17.2137 15.3493 17.2229 15.3997C17.2277 15.4261 17.2325 15.4524 17.2373 15.4788C17.2791 15.7094 17.3208 15.9394 17.384 16.1634C17.4099 16.2583 17.4433 16.3484 17.4765 16.4382C17.4952 16.4887 17.5139 16.539 17.5312 16.5901C17.5433 16.6263 17.5553 16.6625 17.5673 16.6988C17.6282 16.8827 17.6892 17.0668 17.7658 17.245C17.8061 17.3379 17.8535 17.4269 17.9008 17.5159C17.9273 17.5658 17.9539 17.6157 17.9792 17.6663C18.073 17.8658 18.1722 18.0663 18.2863 18.2572C18.3416 18.3482 18.4038 18.4355 18.4659 18.5228C18.4985 18.5685 18.5311 18.6142 18.5626 18.6604C18.5811 18.688 18.5995 18.7155 18.6179 18.7429C18.7211 18.8973 18.8231 19.0498 18.9381 19.1938C19.0094 19.2824 19.0872 19.3653 19.165 19.4482C19.2022 19.4879 19.2395 19.5277 19.2762 19.5681C19.3041 19.599 19.3319 19.6299 19.3596 19.6609C19.4739 19.7884 19.588 19.9156 19.7124 20.0332C19.8015 20.1184 19.8976 20.1971 19.9938 20.2759C20.0324 20.3076 20.071 20.3392 20.1092 20.3713C20.1422 20.3989 20.175 20.4266 20.2078 20.4542C20.3362 20.5626 20.4642 20.6706 20.601 20.7692C20.7037 20.844 20.815 20.9124 20.9239 20.9792C20.9688 21.0068 21.0132 21.0341 21.0564 21.0614C21.2047 21.1553 21.3529 21.2492 21.5076 21.3345L29.7047 21.3281C29.822 21.263 29.9458 21.1905 30.0524 21.1244C30.0844 21.1045 30.1164 21.085 30.1484 21.0654C30.2231 21.0198 30.2977 20.9742 30.3724 20.9249C30.5228 20.8289 30.6668 20.7169 30.8097 20.6049C30.8346 20.5863 30.8596 20.5679 30.8846 20.5495C30.954 20.4983 31.0233 20.4473 31.0892 20.3916C31.2338 20.2692 31.3698 20.1382 31.5063 20.0068L31.5287 19.9852C31.5621 19.9502 31.5979 19.9167 31.634 19.883ZM13.9206 21.3345C13.0122 19.9143 12.3718 18.3395 12.0316 16.6882L4.73045 21.3345H13.9206ZM12.8006 57.6002H61.866V24.5344C61.866 23.9454 61.3884 23.4678 60.7993 23.4678H2.13425V25.601H52.2662C52.8553 25.601 53.3329 26.0786 53.3329 26.6677C53.3329 27.2567 52.8553 27.7343 52.2662 27.7343H2.13425V53.3336H52.2662C52.8553 53.3336 53.3329 53.8112 53.3329 54.4003C53.3329 54.9893 52.8553 55.4669 52.2662 55.4669H2.13425V60.8001C2.13425 61.3891 2.61184 61.8667 3.20089 61.8667H60.7993C61.3884 61.8667 61.866 61.3891 61.866 60.8001V59.7335H12.8006C12.2116 59.7335 11.734 59.2559 11.734 58.6668C11.734 58.0778 12.2116 57.6002 12.8006 57.6002ZM38.3071 19.4391C38.1461 19.8113 37.969 20.158 37.7834 20.4951C37.7741 20.5122 37.7654 20.5308 37.7567 20.5494C37.7465 20.5713 37.7363 20.5933 37.7248 20.6134C37.7315 20.6362 37.738 20.6581 37.7444 20.6799C37.7634 20.7441 37.7819 20.8069 37.8058 20.8833C37.8378 20.9857 37.873 21.0849 37.9125 21.1916C37.9228 21.2183 37.9349 21.2457 37.9469 21.273C37.9559 21.2937 37.965 21.3143 37.9733 21.3345H42.6665H44.7998H47.9997H51.0055H53.7627C53.774 21.3066 53.7863 21.279 53.7987 21.2514C53.8133 21.2187 53.8279 21.1861 53.8406 21.1532C53.8744 21.0643 53.9044 20.9754 53.9345 20.8865C53.9405 20.8688 53.9465 20.851 53.9526 20.8332C54.0144 20.6469 54.0703 20.4595 54.12 20.2711C54.1478 20.1644 54.1755 20.0577 54.199 19.9511C54.2438 19.7484 54.2768 19.5436 54.3056 19.3378C54.3101 19.3069 54.3151 19.2761 54.3201 19.2452C54.3304 19.181 54.3408 19.1164 54.3472 19.0508C54.3808 18.7466 54.3983 18.4407 54.3995 18.1346C54.3942 13.424 50.5769 9.60681 45.8664 9.60148C45.546 9.60188 45.2259 9.62001 44.9075 9.65588C44.8423 9.66305 44.7771 9.6746 44.712 9.68615C44.6705 9.6935 44.629 9.70086 44.5875 9.70708L44.5453 9.71338C44.3523 9.74215 44.1588 9.771 43.9699 9.81374C43.889 9.83187 43.8095 9.85501 43.7302 9.8781C43.6882 9.89033 43.6462 9.90255 43.6041 9.91401C43.5612 9.92615 43.5181 9.93804 43.4749 9.94996C43.3399 9.98723 43.2041 10.0247 43.0707 10.0708C42.9871 10.0982 42.9049 10.1326 42.8228 10.1668C42.7803 10.1846 42.7379 10.2023 42.6953 10.2191C42.5268 10.2852 42.3668 10.3492 42.2068 10.4249C42.1166 10.4677 42.0291 10.5155 41.9413 10.5634C41.9065 10.5824 41.8717 10.6014 41.8366 10.6201L41.8176 10.6304C41.6735 10.7081 41.5287 10.7861 41.3897 10.8729C41.2913 10.9334 41.1963 10.9994 41.1014 11.0654C41.0791 11.0809 41.0568 11.0964 41.0345 11.1118C41.0229 11.1199 41.0114 11.1279 40.9998 11.136C40.8718 11.2247 40.7451 11.3127 40.6228 11.4105C40.5101 11.495 40.4089 11.5852 40.3082 11.6748L40.29 11.691C40.1631 11.803 40.0362 11.915 39.9146 12.0355C39.81 12.1422 39.7098 12.2489 39.6095 12.3555C39.5507 12.4198 39.4942 12.4863 39.4374 12.5532C39.4272 12.5651 39.4171 12.5771 39.4068 12.5891C39.4132 12.6307 39.4132 12.6766 39.4132 12.7182C39.4452 13.0873 39.4666 13.4659 39.4666 13.868C39.4666 13.9651 39.4666 14.0515 39.4612 14.1486C39.458 14.5315 39.4324 14.9571 39.3802 15.4467C39.2376 16.7462 38.9101 18.0189 38.4074 19.2258L38.4039 19.2336C38.375 19.2986 38.344 19.3683 38.3071 19.4391Z" fill="#13DA5A"/>
<path d="M58.666 53.3335H56.5327C55.9437 53.3335 55.4661 53.8111 55.4661 54.4001C55.4661 54.9892 55.9437 55.4668 56.5327 55.4668H58.666C59.255 55.4668 59.7326 54.9892 59.7326 54.4001C59.7326 53.8111 59.255 53.3335 58.666 53.3335Z" fill="#13DA5A"/>
<path d="M8.53415 57.6001H6.40087C5.81182 57.6001 5.33423 58.0777 5.33423 58.6667C5.33423 59.2558 5.81182 59.7334 6.40087 59.7334H8.53415C9.1232 59.7334 9.60078 59.2558 9.60078 58.6667C9.60078 58.0777 9.1232 57.6001 8.53415 57.6001Z" fill="#13DA5A"/>
<path d="M58.666 25.6008H56.5327C55.9437 25.6008 55.4661 26.0784 55.4661 26.6675C55.4661 27.2565 55.9437 27.7341 56.5327 27.7341H58.666C59.255 27.7341 59.7326 27.2565 59.7326 26.6675C59.7326 26.0784 59.255 25.6008 58.666 25.6008Z" fill="#13DA5A"/>
<path d="M28.9788 9.53772C28.8014 9.49323 28.6192 9.4707 28.4363 9.4707H21.8393V11.3099H28.4363C28.5571 11.3093 28.6714 11.365 28.7453 11.4607C28.8205 11.5552 28.8467 11.6795 28.8161 11.7963L27.6326 16.5303C27.5888 16.7049 27.4319 16.8272 27.2519 16.8273H20.9197V18.6665H27.2528C28.2769 18.6675 29.1697 17.9701 29.4166 16.9763L30.5992 12.2432C30.8988 11.0487 30.1733 9.83738 28.9788 9.53772Z" fill="white"/>
<path d="M24.5979 13.1492H20V14.9883H24.5979V13.1492Z" fill="white"/>
</g>
<defs>
<clipPath id="clip0_3193:202443">
<rect width="64" height="64" fill="white"/>
</clipPath>
</defs>
</svg>
