<svg width="24" height="24" viewBox="0 0 24 24" fill="none" xmlns="http://www.w3.org/2000/svg">
<path d="M10.91 18.796V19.846H8.81C8.23 19.846 7.76 20.316 7.76 20.896C7.76 21.476 8.23 21.946 8.81 21.946H15.109C15.69 21.946 16.159 21.476 16.159 20.896C16.159 20.316 15.69 19.846 15.109 19.846H13.009V18.796H21.32C22.478 18.796 23.42 17.854 23.42 16.696V4.1C23.42 2.942 22.479 2 21.32 2H2.6C1.443 2 0.5 2.941 0.5 4.1V16.697C0.5 17.854 1.442 18.797 2.6 18.797H10.91V18.796ZM2.6 16.697V15.317H21.322V16.697H2.6ZM21.32 4.1L21.322 13.218H2.6V4.1H21.32Z" fill="#13DA5A"/>
</svg>
