<svg width="61" height="131" fill="none" xmlns="http://www.w3.org/2000/svg"><g clip-path="url(#clip0_9791_299172)" fill="#fff"><path d="M24.26 58.05c-.545 0-.905.552-.905 1.357 0 .805.368 1.356.919 1.356s.904-.552.904-1.356c0-.803-.374-1.357-.918-1.357zm0 0c-.545 0-.905.552-.905 1.357 0 .805.368 1.356.919 1.356s.904-.552.904-1.356c0-.803-.374-1.357-.918-1.357zM2.762 10v55.212h55.213V10H2.762zm9.335 51.88H8.183v-1.032l1.852-1.413c.466-.353.636-.593.636-.89 0-.297-.221-.501-.552-.501-.332 0-.595.19-.983.636l-.926-.773c.53-.686 1.054-1.06 2.015-1.06 1.08 0 1.823.642 1.823 1.59 0 .791-.403 1.208-1.145 1.731l-.852.595h2.043l.005 1.118zm12.163.1c-1.414 0-2.283-1.16-2.283-2.573s.89-2.572 2.297-2.572 2.282 1.159 2.282 2.572c0 1.414-.883 2.572-2.296 2.572zm15.936-.1h-3.911v-1.032l1.852-1.413c.467-.353.636-.593.636-.89 0-.297-.221-.501-.552-.501-.332 0-.594.19-.983.636l-.925-.773c.53-.686 1.053-1.06 2.014-1.06 1.08 0 1.823.642 1.823 1.59 0 .791-.403 1.208-1.145 1.731l-.848.593h2.04v1.12zm12.045 0h-1.345v-3.703l-.833.19-.262-1.061 1.449-.41h.994l-.003 4.985zm5.071-8.483H3.646V10.773h53.666v42.624zM24.26 58.05c-.545 0-.905.552-.905 1.357 0 .805.368 1.356.919 1.356s.904-.552.904-1.356c0-.803-.374-1.357-.918-1.357zm0 0c-.545 0-.905.552-.905 1.357 0 .805.368 1.356.919 1.356s.904-.552.904-1.356c0-.803-.374-1.357-.918-1.357zm0 0c-.545 0-.905.552-.905 1.357 0 .805.368 1.356.919 1.356s.904-.552.904-1.356c0-.803-.374-1.357-.918-1.357z"/><path d="M10.516 15.515v.227a1.967 1.967 0 00-.517.065.369.369 0 00-.272.368c0 .078.01.156.033.232.02.075.054.172.097.291l1.76 4.573 1.285-3.409-.57-1.49a.912.912 0 00-.48-.542 1.547 1.547 0 00-.576-.088v-.227h3.258v.227a2.276 2.276 0 00-.63.065.402.402 0 00-.274.415.64.64 0 00.024.188c.016.053.056.164.119.331l1.758 4.562 1.522-4.125a3.67 3.67 0 00.175-.63c.019-.083.03-.168.033-.254a.472.472 0 00-.321-.47 1.553 1.553 0 00-.535-.087v-.222h2.415v.227a1.396 1.396 0 00-.499.148 1.066 1.066 0 00-.463.595l-1.274 3.625-.49 1.4-.773 2.196h-.191l-.531-1.392-1.405-3.747-1.868 5.139h-.184l-.906-2.52-1.026-2.852c-.423-1.178-.717-1.9-.884-2.163a.931.931 0 00-.79-.429v-.227h2.98zM20.262 16.418c.749-.716 1.67-1.075 2.76-1.076 1.093 0 2.016.36 2.77 1.082.81.78 1.214 1.82 1.214 3.118 0 1.318-.42 2.368-1.259 3.148a3.865 3.865 0 01-2.726 1.046c-1.141 0-2.088-.386-2.84-1.159-.761-.788-1.142-1.8-1.142-3.035 0-1.299.408-2.34 1.223-3.124zm.91 5.963c.504.612 1.122.918 1.855.918.718 0 1.331-.299 1.84-.895.509-.596.763-1.55.764-2.86 0-1.325-.258-2.282-.773-2.871s-1.125-.883-1.83-.883c-.73 0-1.349.306-1.854.917-.505.612-.757 1.56-.757 2.843 0 1.275.252 2.218.755 2.829v.002zM27.799 23.337c.467-.043.758-.134.872-.271.114-.138.172-.46.172-.963v-5.27c0-.427-.064-.707-.193-.84-.129-.134-.412-.221-.851-.252v-.226h3.367a4.97 4.97 0 011.752.267c.883.336 1.327.954 1.33 1.856 0 .605-.196 1.07-.59 1.394-.394.324-.93.537-1.607.641l2.507 3.092c.127.165.284.305.463.413.184.095.386.151.594.165v.22h-1.96l-3.043-3.747-.533.03v2.397c0 .449.069.734.206.855.135.12.433.2.893.24v.22h-3.38v-.22zm4.157-4.217c.645-.264.968-.762.969-1.494 0-.704-.29-1.182-.868-1.436a3.052 3.052 0 00-1.23-.207c-.344 0-.555.024-.632.074-.077.05-.116.166-.116.347v2.99c.875-.032 1.501-.123 1.877-.274zM36.6 23.337c.448-.046.737-.127.87-.238.135-.112.2-.398.2-.854v-5.41c0-.431-.066-.714-.197-.847-.131-.132-.422-.215-.872-.246v-.227h3.433v.227c-.448.023-.748.097-.9.22-.153.125-.229.386-.229.79v5.845c-.006.11.018.22.069.318a.379.379 0 00.3.145c.096.013.192.021.288.024h.568c1.082 0 1.813-.089 2.194-.267.38-.178.749-.634 1.104-1.366h.31l-.596 2.11h-6.541v-.224zM44.48 23.337c.441-.046.732-.127.866-.238.135-.112.203-.398.203-.854v-5.41c0-.443-.066-.727-.196-.856-.131-.127-.422-.206-.873-.237v-.227h3.278c1.104 0 2.039.184 2.804.552 1.378.654 2.067 1.822 2.067 3.505a4.13 4.13 0 01-.372 1.728 3.545 3.545 0 01-1.119 1.383c-.3.229-.632.411-.986.541-.622.23-1.386.345-2.293.345h-3.38v-.232zm2.45-.32c.096.063.297.095.603.095.95 0 1.731-.189 2.345-.565.943-.578 1.414-1.566 1.414-2.966 0-1.252-.388-2.191-1.164-2.817-.663-.54-1.544-.81-2.643-.81-.273 0-.459.03-.552.09-.093.06-.145.19-.145.392v6.189c-.004.198.045.328.144.392h-.002zM7.592 31.826c.392-.043.637-.11.732-.221.095-.11.144-.368.144-.798v-4.313c0-.353-.053-.585-.16-.693-.107-.108-.346-.176-.716-.202v-.186h5.312l.034 1.427h-.277c-.069-.455-.197-.743-.386-.865-.187-.121-.56-.182-1.114-.182H9.794a.34.34 0 00-.257.068.442.442 0 00-.057.269v2.225h1.447c.425 0 .697-.063.813-.189.116-.126.21-.382.282-.766h.237v2.303h-.237c-.073-.386-.169-.642-.287-.766-.117-.126-.386-.188-.808-.188H9.48v2.18c0 .369.057.602.17.701.112.099.356.164.732.196v.185h-2.79v-.186zM13.734 31.826c.406-.03.668-.09.788-.182s.18-.33.18-.714v-4.436c0-.368-.06-.604-.18-.708-.12-.11-.383-.168-.788-.187v-.186h2.95v.186c-.406.02-.669.081-.789.187s-.18.342-.18.708v4.436c0 .384.06.623.18.714.12.092.383.153.79.182v.185h-2.951v-.186zM17.532 31.826c.411-.043.676-.135.792-.28.116-.145.176-.48.176-1.005V26.15l-.136-.162a1.114 1.114 0 00-.373-.318 1.439 1.439 0 00-.46-.07v-.186h1.701l3.848 4.772v-3.313c0-.545-.08-.9-.243-1.065-.106-.106-.343-.175-.71-.207v-.186h2.341v.186c-.38.039-.633.131-.76.277-.126.147-.19.48-.19 1.004v5.248h-.17l-4.41-5.468v3.878c0 .545.079.9.238 1.066.104.107.336.18.697.22v.186h-2.341v-.186zM24.782 32.011v-.186a.809.809 0 00.578-.289c.128-.163.349-.612.662-1.346l2.077-4.893h.199l2.485 5.653c.165.374.296.606.396.694.146.107.319.17.499.182v.185h-2.54v-.186a2.2 2.2 0 00.563-.093c.084-.038.127-.128.127-.274a1.23 1.23 0 00-.048-.257 2.876 2.876 0 00-.137-.388l-.399-.959h-2.63c-.26.653-.415 1.051-.464 1.194-.043.11-.07.225-.076.342a.353.353 0 00.204.35c.154.052.315.08.477.086v.185h-1.973zm4.294-2.56l-1.137-2.747-1.147 2.746h2.284zM32.495 31.826c.412-.043.677-.135.793-.28.116-.145.172-.48.172-1.007v-4.39l-.136-.162a1.114 1.114 0 00-.373-.318 1.439 1.439 0 00-.46-.07v-.186h1.703l3.848 4.772v-3.313c0-.545-.08-.9-.243-1.065-.107-.106-.344-.175-.711-.207v-.186h2.342v.186c-.38.039-.633.131-.76.277-.127.147-.19.48-.19 1.004v5.248h-.161l-4.417-5.47v3.88c0 .545.08.9.239 1.066.103.107.336.18.696.22v.186h-2.342v-.186zM44.52 25.46c.209.066.422.12.638.16a.5.5 0 00.267-.078.402.402 0 00.175-.243h.21l.092 2.24h-.229a3.22 3.22 0 00-.52-1.077 2 2 0 00-1.65-.773 2.097 2.097 0 00-1.712.827c-.442.552-.663 1.312-.663 2.28 0 .889.233 1.599.7 2.13a2.248 2.248 0 001.766.796c.5.004.992-.124 1.427-.37.298-.177.575-.39.822-.633l.186.184a3.422 3.422 0 01-2.64 1.271c-1.07 0-1.92-.342-2.55-1.026-.581-.634-.872-1.425-.872-2.372 0-.971.306-1.786.92-2.444.647-.691 1.487-1.037 2.523-1.037.375.003.749.059 1.11.164zM46.822 31.826c.366-.04.605-.104.713-.196.108-.092.164-.326.164-.7v-4.436c0-.353-.055-.585-.162-.693-.107-.108-.345-.176-.715-.202v-.186h5.3l.034 1.427h-.255c-.085-.442-.21-.724-.38-.853-.169-.129-.546-.196-1.13-.196h-1.36c-.148 0-.238.024-.272.07a.485.485 0 00-.051.267v2.225h1.537c.425 0 .696-.063.814-.19.11-.126.21-.381.281-.765h.234V29.7h-.225c-.073-.387-.17-.642-.287-.766-.117-.126-.386-.188-.808-.188H48.71v2.468c0 .199.062.315.188.351.126.036.499.053 1.124.053.676 0 1.174-.074 1.496-.22.322-.148.611-.506.868-1.075h.277l-.452 1.685h-5.39v-.183zM52.674 36.723H7.952v.662h44.722v-.662zM22.294 41.82h1.91v.276h-1.61v.949h1.436v.273h-1.436v1.158h-.3V41.82zM25.326 43.147a1.355 1.355 0 111.35 1.374c-.807 0-1.35-.634-1.35-1.374zm2.399 0c0-.602-.442-1.096-1.048-1.096-.606 0-1.04.486-1.04 1.096 0 .611.442 1.097 1.048 1.097.605 0 1.04-.486 1.04-1.097zM29.421 41.82h1.142c.277-.015.548.08.755.265a.74.74 0 01.205.531c0 .442-.303.698-.72.773l.815 1.086h-.366l-.773-1.033h-.76v1.033h-.3l.002-2.655zm1.115 1.354c.399 0 .684-.204.684-.552 0-.331-.25-.525-.68-.525h-.82v1.078l.816-.001zM32.915 41.82h1.92v.273h-1.621v.906h1.45v.274h-1.45v.93h1.64v.273h-1.94V41.82zM37.06 43.12l-.984-1.3h.354l.815 1.084.808-1.084h.35l-.983 1.298 1.02 1.358h-.356l-.85-1.142-.85 1.142h-.345l1.02-1.355zM20.918 46.354h.285l1.215 2.676h-.331l-.312-.703h-1.444l-.316.703h-.307l1.21-2.676zm.74 1.704l-.603-1.355-.607 1.355h1.21zM23.19 46.373h.326l.76 2.208.728-2.22h.247l.728 2.22.76-2.208h.317l-.949 2.675h-.255l-.728-2.155-.733 2.155h-.25l-.95-2.675zM29.043 46.354h.28l1.215 2.676h-.322l-.31-.703h-1.447l-.315.703h-.306l1.205-2.676zm.74 1.704l-.603-1.355-.607 1.355h1.21zM31.78 46.373h1.142a1.047 1.047 0 01.76.266.739.739 0 01.204.531c0 .442-.303.698-.72.773l.816 1.086h-.37l-.772-1.033h-.759v1.033h-.3v-2.656zm1.116 1.355c.399 0 .684-.206.684-.552 0-.326-.251-.524-.68-.524h-.819v1.078l.815-.002zM35.275 46.373h.922c.834 0 1.41.573 1.41 1.325s-.576 1.325-1.41 1.325h-.922v-2.65zm.922 2.38c.671 0 1.104-.456 1.104-1.052 0-.595-.429-1.051-1.104-1.051h-.623v2.098l.623.005zM38.746 48.642l.186-.22a1.264 1.264 0 00.91.375c.358 0 .593-.19.593-.46 0-.246-.133-.386-.69-.504-.612-.133-.893-.332-.893-.773 0-.418.37-.725.874-.725.34-.01.672.107.933.326l-.175.232a1.17 1.17 0 00-.766-.288c-.346 0-.565.19-.565.436s.136.39.72.516c.586.124.865.345.865.76 0 .454-.38.75-.906.75a1.553 1.553 0 01-1.086-.425z"/></g><path stroke="#fff" stroke-width=".714" d="M.583 82.643h60"/><path d="M18.648 100v-7.095h3.183c.817 0 1.446.166 1.885.497.44.324.659.77.659 1.338 0 .385-.088.71-.264.973a1.673 1.673 0 01-.689.608c-.29.142-.605.213-.942.213l.182-.304c.405 0 .764.07 1.074.213.311.142.558.351.74.628.183.27.274.608.274 1.014 0 .608-.23 1.08-.69 1.418-.452.332-1.128.497-2.026.497h-3.386zm1.014-.82h2.331c.56 0 .99-.096 1.287-.285.297-.189.446-.486.446-.892 0-.412-.148-.712-.446-.902-.297-.189-.726-.283-1.287-.283h-2.422v-.821h2.169c.513 0 .912-.095 1.196-.284.283-.19.425-.473.425-.851 0-.379-.142-.663-.425-.852-.284-.189-.683-.284-1.196-.284h-2.078v5.453zm7.377-3.214h3.648v.862H27.04v-.862zm.09 3.152h4.136V100h-5.149v-7.095h5.007v.882H27.13v5.331zm7.642.963c-.54 0-1.057-.081-1.55-.243-.494-.169-.882-.385-1.166-.649l.375-.79c.27.236.615.432 1.034.588.419.155.854.233 1.307.233.412 0 .747-.048 1.003-.142.257-.095.446-.223.568-.385a.948.948 0 00.182-.568.76.76 0 00-.243-.588 1.653 1.653 0 00-.618-.355 6.08 6.08 0 00-.831-.243 16.657 16.657 0 01-.922-.233 4.496 4.496 0 01-.842-.355 1.75 1.75 0 01-.608-.567c-.155-.243-.233-.554-.233-.933 0-.364.095-.699.284-1.003.196-.31.493-.557.892-.74.405-.189.919-.284 1.54-.284.413 0 .821.054 1.227.163.405.108.756.263 1.054.466l-.335.81a3.164 3.164 0 00-.963-.435 3.639 3.639 0 00-.983-.142c-.398 0-.726.05-.983.152-.257.101-.446.236-.567.405a.987.987 0 00-.173.568c0 .25.078.45.233.598.163.148.369.267.619.354.256.088.537.17.84.244.305.067.609.145.913.233.31.088.591.203.841.345.257.141.463.33.619.567.155.236.233.54.233.912 0 .358-.098.693-.294 1.004-.196.304-.5.55-.912.74-.406.182-.92.273-1.541.273zm5.334-.081v-6.213h-2.432v-.882h5.868v.882H41.11V100h-1.004zm-25.97 10.081a4.18 4.18 0 01-1.5-.263 3.678 3.678 0 01-1.186-.761 3.671 3.671 0 01-.78-1.155 3.625 3.625 0 01-.284-1.449c0-.527.095-1.01.284-1.45.189-.439.452-.821.79-1.145a3.471 3.471 0 011.186-.76c.46-.182.96-.274 1.5-.274.548 0 1.05.095 1.51.284.467.183.862.456 1.186.821l-.659.639a2.571 2.571 0 00-.912-.629 2.77 2.77 0 00-1.084-.213c-.399 0-.77.068-1.115.203a2.605 2.605 0 00-1.47 1.439 2.844 2.844 0 00-.202 1.085c0 .392.067.756.202 1.094a2.638 2.638 0 001.47 1.429c.345.136.716.203 1.115.203.385 0 .746-.067 1.084-.203.338-.142.642-.358.912-.648l.66.638a3.14 3.14 0 01-1.187.831 3.94 3.94 0 01-1.52.284zm3.95-.081v-7.095h2.766c.622 0 1.152.098 1.591.294.44.196.777.48 1.014.852.236.371.355.814.355 1.327 0 .514-.119.956-.355 1.328a2.275 2.275 0 01-1.014.841c-.439.196-.97.294-1.59.294h-2.21l.456-.466V110h-1.014zm4.742 0l-1.804-2.574h1.085L23.932 110h-1.104zm-3.73-2.524l-.455-.496h2.179c.648 0 1.138-.139 1.47-.416.337-.284.506-.679.506-1.186 0-.506-.169-.898-.507-1.175-.33-.277-.82-.416-1.47-.416h-2.178l.456-.507v4.196zM26.86 110v-2.716l.233.628-3.05-5.007h1.084l2.564 4.227h-.588l2.575-4.227h1.003l-3.04 5.007.223-.628V110h-1.004zm4.528 0v-7.095h2.767c.622 0 1.152.098 1.591.294.44.196.777.48 1.014.852.236.371.354.814.354 1.327 0 .514-.118.956-.354 1.328a2.334 2.334 0 01-1.014.851c-.439.196-.97.294-1.591.294h-2.21l.457-.476V110h-1.014zm1.014-2.524l-.457-.506h2.18c.648 0 1.138-.139 1.47-.416.337-.277.506-.669.506-1.176 0-.506-.169-.898-.507-1.175-.33-.277-.82-.416-1.47-.416h-2.178l.456-.507v4.196zM39.58 110v-6.213h-2.433v-.882h5.869v.882h-2.433V110h-1.003zm7.44.081c-.54 0-1.043-.091-1.51-.274a3.634 3.634 0 01-1.196-.76 3.59 3.59 0 01-.79-1.155 3.598 3.598 0 01-.284-1.439c0-.521.095-1 .284-1.439.19-.44.453-.821.79-1.146a3.564 3.564 0 011.196-.77c.46-.182.963-.274 1.51-.274.541 0 1.038.092 1.49.274.46.176.858.429 1.196.76.345.324.608.706.79 1.145.19.44.285.923.285 1.45 0 .527-.095 1.01-.284 1.449a3.388 3.388 0 01-.79 1.155 3.653 3.653 0 01-1.197.761c-.452.175-.949.263-1.49.263zm0-.902c.392 0 .754-.067 1.085-.203a2.562 2.562 0 001.45-1.439c.141-.331.212-.692.212-1.084 0-.392-.07-.754-.213-1.085a2.508 2.508 0 00-.577-.861 2.489 2.489 0 00-.872-.578 2.846 2.846 0 00-1.084-.203 2.95 2.95 0 00-1.105.203 2.618 2.618 0 00-.872.578c-.25.243-.446.53-.588.861a2.844 2.844 0 00-.202 1.085c0 .392.067.753.202 1.084.142.331.338.622.588.872.25.243.54.432.872.567.338.136.706.203 1.105.203zM9.662 120v-7.095h3.183c.817 0 1.446.166 1.885.497.439.324.659.77.659 1.338 0 .385-.088.709-.264.973a1.677 1.677 0 01-.69.608c-.29.142-.604.213-.942.213l.183-.304c.405 0 .763.071 1.074.213.31.141.557.351.74.628.182.27.274.608.274 1.013 0 .609-.23 1.082-.69 1.419-.452.331-1.128.497-2.027.497H9.661zm1.014-.821h2.33c.562 0 .99-.095 1.288-.284.297-.189.446-.486.446-.892 0-.412-.149-.712-.446-.902-.297-.189-.726-.283-1.287-.283h-2.422v-.821h2.168c.514 0 .913-.095 1.196-.284.284-.189.426-.473.426-.851 0-.379-.142-.663-.426-.852-.283-.189-.682-.284-1.196-.284h-2.077v5.453zm6.454.821v-7.095h2.767c.622 0 1.152.098 1.591.294.44.196.777.48 1.014.852.236.371.354.814.354 1.327 0 .514-.118.956-.354 1.328a2.275 2.275 0 01-1.014.841c-.439.196-.97.294-1.59.294h-2.21l.456-.466V120h-1.014zm4.743 0l-1.804-2.574h1.085L22.977 120h-1.105zm-3.73-2.524l-.455-.496h2.179c.648 0 1.138-.139 1.47-.416.337-.284.506-.679.506-1.186 0-.506-.169-.898-.507-1.175-.33-.277-.82-.416-1.47-.416h-2.178l.456-.507v4.196zm9.351 2.605c-.54 0-1.044-.091-1.51-.274a3.634 3.634 0 01-1.196-.76 3.589 3.589 0 01-.79-1.155 3.598 3.598 0 01-.284-1.439c0-.521.094-1 .283-1.439.19-.44.453-.821.79-1.146a3.564 3.564 0 011.197-.77c.46-.182.963-.274 1.51-.274.54 0 1.037.092 1.49.274.46.176.858.429 1.196.76.344.324.608.706.79 1.145.19.44.284.923.284 1.45 0 .527-.095 1.01-.284 1.449a3.388 3.388 0 01-.79 1.155 3.653 3.653 0 01-1.196.761 4.1 4.1 0 01-1.49.263zm0-.902c.392 0 .753-.067 1.084-.203a2.562 2.562 0 001.45-1.439c.142-.331.213-.692.213-1.084 0-.392-.071-.754-.213-1.085a2.51 2.51 0 00-.578-.861 2.49 2.49 0 00-.872-.578 2.845 2.845 0 00-1.084-.203 2.95 2.95 0 00-1.105.203 2.619 2.619 0 00-.871.578c-.25.243-.446.53-.588.861a2.846 2.846 0 00-.203 1.085c0 .392.068.753.203 1.084.142.331.338.622.588.872.25.243.54.432.871.567a2.93 2.93 0 001.105.203zm5.998-.892l-.05-1.236 4.023-4.146h1.156l-3.112 3.284-.567.629-1.45 1.469zM32.6 120v-7.095h1.014V120h-1.014zm5.028 0l-2.91-3.385.68-.75L38.812 120h-1.185zm2.977-4.034h3.648v.862h-3.648v-.862zm.091 3.152h4.135V120h-5.149v-7.095h5.007v.882h-3.993v5.331zm5.574.882v-7.095h2.766c.622 0 1.152.098 1.592.294.439.196.777.48 1.013.852.237.371.355.814.355 1.327 0 .514-.118.956-.355 1.328a2.275 2.275 0 01-1.013.841c-.44.196-.97.294-1.592.294h-2.21l.457-.466V120h-1.013zm4.743 0l-1.804-2.574h1.084L52.117 120h-1.105zm-3.73-2.524l-.456-.496h2.179c.649 0 1.139-.139 1.47-.416.337-.284.506-.679.506-1.186 0-.506-.169-.898-.506-1.175-.331-.277-.821-.416-1.47-.416h-2.18l.457-.507v4.196zM19.839 130v-1.064l2.736-2.585c.217-.196.375-.371.477-.527.101-.155.169-.297.202-.425.04-.129.061-.247.061-.355 0-.284-.098-.5-.294-.649-.189-.155-.47-.233-.84-.233-.298 0-.575.058-.832.172-.25.115-.463.294-.639.538l-1.195-.771c.27-.405.648-.726 1.135-.962.486-.237 1.047-.355 1.682-.355.527 0 .987.088 1.378.263.4.169.707.409.923.72.223.311.334.682.334 1.115 0 .23-.03.459-.091.689a2.128 2.128 0 01-.345.709c-.168.25-.418.531-.75.842l-2.27 2.138-.314-.598H25.2V130H19.84zm8.877.122a2.908 2.908 0 01-1.561-.426c-.46-.291-.821-.709-1.085-1.257-.263-.547-.395-1.209-.395-1.986 0-.777.132-1.439.395-1.987.264-.547.625-.963 1.085-1.246.46-.291.98-.436 1.56-.436.588 0 1.109.145 1.561.436.46.283.821.699 1.085 1.246.263.548.395 1.21.395 1.987 0 .777-.132 1.439-.395 1.986-.264.548-.625.966-1.085 1.257-.452.284-.973.426-1.56.426zm0-1.389c.277 0 .517-.078.72-.233.209-.155.37-.402.486-.74.121-.338.182-.773.182-1.307 0-.534-.06-.97-.182-1.308-.115-.338-.277-.584-.487-.74a1.15 1.15 0 00-.72-.233c-.27 0-.51.078-.719.233-.203.156-.365.402-.486.74-.115.338-.173.774-.173 1.308s.058.969.173 1.307c.121.338.283.585.486.74.21.155.45.233.72.233zM32.25 130v-1.064l2.736-2.585c.216-.196.375-.371.477-.527.101-.155.169-.297.202-.425.04-.129.061-.247.061-.355 0-.284-.098-.5-.294-.649-.189-.155-.47-.233-.84-.233-.298 0-.575.058-.832.172-.25.115-.463.294-.639.538l-1.195-.771c.27-.405.648-.726 1.135-.962.486-.237 1.047-.355 1.682-.355.527 0 .987.088 1.379.263.398.169.706.409.922.72.223.311.334.682.334 1.115 0 .23-.03.459-.091.689a2.128 2.128 0 01-.345.709c-.168.25-.418.531-.75.842l-2.27 2.138-.314-.598h4.003V130h-5.361zm6.93 0v-6.486l.71.709h-2.128v-1.318h3.06V130h-1.641z" fill="#fff"/><defs><clipPath id="clip0_9791_299172"><path fill="#fff" transform="translate(3.083)" d="M0 0h55v75H0z"/></clipPath></defs></svg>