<svg width="63" height="131" fill="none" xmlns="http://www.w3.org/2000/svg"><g clip-path="url(#clip0_9791_299170)" fill="#fff"><path fill-rule="evenodd" clip-rule="evenodd" d="M23.286 59.367c0-.82.367-1.384.922-1.384s.936.564.936 1.384-.36 1.382-.922 1.382c-.561 0-.936-.562-.936-1.382zM3.293 65.285V9h56.284v56.285H3.293zm4.525-3.397h3.991l-.004-1.139H9.722l.868-.607c.757-.533 1.168-.958 1.168-1.765 0-.966-.757-1.62-1.859-1.62-.98 0-1.513.38-2.053 1.08l.943.788c.396-.455.664-.648 1.002-.648.338 0 .563.208.563.51 0 .303-.173.548-.649.908l-1.887 1.44v1.053zm14.063-2.521c0 1.44.886 2.622 2.327 2.622 1.44 0 2.341-1.181 2.341-2.622 0-1.441-.892-2.623-2.327-2.623-1.434 0-2.341 1.182-2.341 2.623zm14.586 2.521h3.987v-1.141h-2.08l.865-.605c.757-.533 1.168-.958 1.168-1.765 0-.966-.757-1.62-1.859-1.62-.98 0-1.513.38-2.053 1.08l.943.788c.396-.455.664-.648 1.002-.648.338 0 .563.208.563.51 0 .303-.172.548-.649.908l-1.887 1.44v1.053zM4.193 53.24h54.709V9.788H4.193V53.24zm50.271 8.66h-3.987v-1.066l1.888-1.46c.476-.365.648-.613.648-.92 0-.307-.225-.518-.563-.518-.337 0-.605.197-1.001.657l-.944-.798c.54-.708 1.074-1.095 2.053-1.095 1.103 0 1.86.664 1.86 1.642 0 .818-.412 1.248-1.168 1.789l-.865.612h2.08V61.9z"/><path d="M11.197 15.18v.231a2.006 2.006 0 00-.526.067.376.376 0 00-.278.375c0 .08.01.16.033.236.022.077.055.176.1.297l1.794 4.662 1.31-3.475-.58-1.52a.928.928 0 00-.49-.552 1.575 1.575 0 00-.588-.09v-.232h3.32v.232a2.323 2.323 0 00-.641.067.409.409 0 00-.28.423.655.655 0 00.025.191c.016.054.057.167.121.338l1.792 4.65 1.552-4.205c.079-.208.138-.423.178-.642.02-.085.03-.172.034-.259a.48.48 0 00-.328-.478 1.587 1.587 0 00-.544-.09v-.227h2.462v.232c-.178.018-.35.07-.51.151a1.087 1.087 0 00-.47.607l-1.3 3.696-.5 1.426-.788 2.239h-.194l-.542-1.42-1.432-3.82-1.904 5.24h-.187l-.925-2.569-1.045-2.908c-.431-1.2-.731-1.936-.9-2.205a.949.949 0 00-.807-.437v-.232h3.038zM21.133 16.1c.763-.73 1.701-1.095 2.814-1.096 1.113 0 2.054.367 2.822 1.102.826.795 1.238 1.855 1.238 3.179 0 1.344-.427 2.414-1.283 3.21a3.94 3.94 0 01-2.78 1.065c-1.162 0-2.127-.393-2.893-1.18-.777-.804-1.165-1.836-1.165-3.095 0-1.324.415-2.385 1.247-3.185zm.927 6.08c.514.623 1.144.934 1.892.934.731 0 1.356-.303 1.875-.911.518-.608.778-1.58.779-2.916 0-1.35-.263-2.326-.788-2.927-.525-.6-1.148-.9-1.867-.9-.744 0-1.374.312-1.888.935-.515.624-.773 1.59-.773 2.898 0 1.3.257 2.261.77 2.884v.002zM28.816 23.154c.476-.044.773-.137.889-.277.116-.14.175-.468.176-.982v-5.372c0-.435-.066-.72-.198-.856-.131-.136-.42-.225-.867-.257v-.23h3.432a5.065 5.065 0 011.786.272c.9.342 1.353.973 1.357 1.892 0 .617-.201 1.09-.602 1.42-.402.33-.948.549-1.638.655l2.555 3.152c.13.168.29.31.472.42.188.098.394.155.605.168v.226h-1.997l-3.102-3.821-.544.03v2.444c0 .458.07.748.21.872.138.122.442.204.91.244v.225h-3.444v-.225zm4.238-4.3c.657-.269.986-.776.987-1.522 0-.718-.295-1.206-.885-1.464a3.107 3.107 0 00-1.253-.211c-.35 0-.566.025-.645.075-.078.05-.118.169-.118.354v3.048c.892-.032 1.53-.125 1.914-.28zM37.788 23.154c.456-.047.751-.13.888-.243.136-.114.202-.406.202-.87v-5.516c0-.44-.066-.728-.2-.863s-.43-.22-.89-.25v-.233h3.5v.232c-.457.024-.762.1-.917.226-.156.125-.233.392-.233.804V22.4a.632.632 0 00.07.324.386.386 0 00.306.147c.097.014.195.022.293.025h.58c1.102 0 1.848-.09 2.236-.272.388-.182.763-.646 1.126-1.393h.315l-.607 2.15h-6.669v-.227zM45.82 23.154c.45-.047.747-.13.884-.243.137-.114.206-.406.206-.87v-5.516c0-.45-.066-.741-.2-.872-.133-.13-.43-.21-.89-.242v-.232h3.343c1.125 0 2.078.188 2.858.563 1.404.667 2.107 1.858 2.107 3.573a4.21 4.21 0 01-.38 1.762 3.614 3.614 0 01-1.14 1.41 3.862 3.862 0 01-1.005.552c-.634.234-1.413.351-2.338.351H45.82v-.236zm2.498-.327c.099.065.303.097.615.097.968 0 1.765-.192 2.39-.576.962-.588 1.442-1.596 1.442-3.024 0-1.276-.396-2.233-1.187-2.871-.675-.551-1.573-.826-2.694-.826-.279 0-.468.03-.562.092-.095.06-.149.193-.149.4v6.309c-.003.201.046.334.147.4h-.002zM8.217 31.807c.4-.043.649-.113.746-.225.097-.113.146-.375.146-.813v-4.397c0-.36-.054-.597-.163-.707-.11-.11-.352-.179-.73-.206v-.19h5.415l.035 1.455h-.283c-.07-.463-.2-.757-.392-.881s-.571-.186-1.136-.186H10.46a.348.348 0 00-.262.07.451.451 0 00-.058.273v2.269h1.475c.434 0 .71-.064.829-.193.118-.128.215-.39.288-.781h.24v2.348h-.24c-.075-.394-.173-.654-.293-.781-.12-.128-.394-.191-.824-.191h-1.475v2.223c0 .375.058.613.173.714.114.1.363.166.746.199v.189H8.217v-.19zM14.478 31.807c.413-.03.681-.091.803-.185.123-.094.184-.336.184-.728v-4.522c0-.375-.061-.616-.184-.722-.122-.112-.39-.17-.803-.191v-.19h3.007v.19c-.414.02-.682.083-.804.191-.123.109-.184.348-.184.722v4.522c0 .392.062.635.184.728.121.094.39.155.804.185v.189h-3.007v-.19zM18.349 31.807c.42-.043.69-.137.808-.285.118-.147.18-.489.18-1.024V26.02l-.14-.165a1.134 1.134 0 00-.38-.324 1.462 1.462 0 00-.468-.072v-.19h1.733l3.923 4.865v-3.377c0-.555-.082-.918-.247-1.085-.109-.108-.35-.179-.725-.212v-.189h2.387v.19c-.387.039-.645.133-.774.282-.13.15-.194.49-.194 1.023v5.35h-.173l-4.497-5.574v3.953c0 .556.08.918.243 1.087.106.11.343.184.71.225v.189H18.35v-.19zM25.74 31.996v-.189a.826.826 0 00.589-.295c.13-.167.356-.624.675-1.372l2.118-4.988h.202l2.533 5.762c.169.382.303.618.404.708a.967.967 0 00.51.185v.19h-2.59v-.19c.195-.007.388-.039.574-.096.086-.038.13-.13.13-.279a1.26 1.26 0 00-.05-.262 2.94 2.94 0 00-.14-.395l-.406-.977h-2.681a43.579 43.579 0 00-.473 1.217c-.045.11-.07.229-.078.348a.36.36 0 00.209.356c.156.054.32.083.486.088v.19H25.74zm4.378-2.61l-1.16-2.8-1.17 2.8h2.33zM33.603 31.807c.42-.043.69-.137.808-.285.119-.147.176-.489.176-1.027V26.02l-.139-.165a1.133 1.133 0 00-.38-.324 1.462 1.462 0 00-.468-.072v-.19h1.734l3.923 4.865v-3.377c0-.555-.082-.918-.247-1.085-.109-.108-.35-.179-.725-.212v-.189h2.388v.19c-.388.039-.646.133-.775.282-.13.15-.194.49-.194 1.023v5.35h-.164l-4.503-5.575v3.954c0 .556.081.918.243 1.087.106.11.343.184.71.225v.189h-2.387v-.19zM45.86 25.317c.214.068.431.123.651.164a.512.512 0 00.273-.08.41.41 0 00.179-.247h.214l.093 2.283h-.233a3.282 3.282 0 00-.531-1.098 2.039 2.039 0 00-1.682-.788 2.14 2.14 0 00-1.745.843c-.45.563-.675 1.338-.675 2.324 0 .906.237 1.63.712 2.171a2.293 2.293 0 001.801.812 2.902 2.902 0 001.455-.377c.304-.18.586-.397.839-.645l.189.188a3.489 3.489 0 01-2.69 1.295c-1.093 0-1.96-.349-2.601-1.046-.592-.647-.889-1.453-.89-2.418 0-.99.313-1.82.94-2.492.658-.704 1.515-1.057 2.57-1.057.383.004.764.06 1.132.168zM48.208 31.807c.374-.04.617-.106.727-.2.11-.093.167-.331.167-.713v-4.522c0-.36-.055-.597-.165-.707-.109-.11-.352-.179-.73-.206v-.19h5.404l.035 1.455h-.26c-.087-.45-.215-.737-.387-.869-.172-.131-.557-.2-1.153-.2H50.46c-.15 0-.242.025-.277.072a.496.496 0 00-.052.271v2.268h1.567c.433 0 .71-.064.83-.192.113-.13.215-.39.287-.781h.239v2.348h-.23c-.075-.394-.172-.654-.292-.781-.12-.129-.395-.192-.825-.192h-1.572v2.516c0 .203.063.321.191.358.129.037.51.054 1.146.054.69 0 1.198-.075 1.526-.225.328-.15.622-.515.884-1.095h.283l-.462 1.718h-5.494v-.187zM54.174 36.8H8.584v.675h45.59V36.8zM23.204 41.995h1.946v.282h-1.64v.967h1.463v.279H23.51v1.18h-.306v-2.708zM26.295 43.349a1.382 1.382 0 111.377 1.4c-.824 0-1.377-.646-1.377-1.4zm2.445 0c0-.615-.45-1.118-1.068-1.118-.618 0-1.06.495-1.06 1.118 0 .622.45 1.118 1.068 1.118.617 0 1.06-.496 1.06-1.118zM30.47 41.996h1.163c.283-.016.56.081.77.27a.753.753 0 01.21.541c0 .45-.31.712-.735.788l.831 1.107h-.373l-.788-1.052h-.775v1.052h-.305l.001-2.706zm1.136 1.38c.407 0 .697-.208.697-.563 0-.338-.255-.535-.692-.535h-.837v1.1l.832-.002zM34.03 41.995h1.959v.278h-1.653v.924h1.478v.28h-1.478v.948h1.672v.278H34.03v-2.708zM38.256 43.321l-1.002-1.326h.36l.83 1.106.825-1.106h.357l-1.002 1.323 1.04 1.385H39.3l-.866-1.164-.867 1.164h-.352l1.04-1.382zM21.801 46.617h.29l1.239 2.728h-.338l-.317-.716h-1.473l-.322.716h-.312l1.233-2.728zm.755 1.737l-.615-1.381-.62 1.381h1.234zM24.118 46.637h.332l.774 2.252.742-2.264h.253l.741 2.264.775-2.252h.323l-.967 2.728h-.26l-.742-2.198-.747 2.198h-.255l-.969-2.728zM30.084 46.617h.286l1.238 2.728h-.328l-.317-.716H29.49l-.321.716h-.313l1.23-2.728zm.755 1.737l-.615-1.381-.62 1.381h1.235zM32.875 46.637h1.164a1.07 1.07 0 01.773.271.754.754 0 01.21.541c0 .45-.31.712-.736.788l.832 1.107h-.376l-.788-1.052h-.773v1.052h-.306v-2.707zm1.137 1.381c.406 0 .697-.21.697-.563 0-.332-.256-.533-.693-.533h-.835v1.098l.83-.002zM36.436 46.637h.94c.851 0 1.439.584 1.439 1.35 0 .767-.588 1.351-1.439 1.351h-.94v-2.701zm.94 2.425c.685 0 1.126-.464 1.126-1.071s-.437-1.072-1.126-1.072h-.634v2.139l.634.005zM39.976 48.95l.189-.225a1.29 1.29 0 00.928.383c.364 0 .604-.194.604-.469 0-.25-.135-.394-.704-.514-.623-.135-.91-.338-.91-.788 0-.426.377-.739.891-.739.347-.009.686.11.951.333l-.177.236a1.192 1.192 0 00-.782-.294c-.352 0-.576.194-.576.445 0 .25.138.398.735.526.597.127.881.352.881.774 0 .464-.387.765-.924.765a1.583 1.583 0 01-1.106-.433z"/></g><path stroke="#fff" stroke-width=".728" d="M.861 82.636h61.165"/><path d="M19.51 100v-7.095h3.182c.817 0 1.446.166 1.885.497.439.324.659.77.659 1.338 0 .385-.088.71-.264.973a1.672 1.672 0 01-.69.608c-.29.142-.604.213-.942.213l.183-.304c.405 0 .763.07 1.074.213.31.142.558.351.74.628.182.27.274.608.274 1.014 0 .608-.23 1.08-.69 1.418-.452.332-1.128.497-2.027.497H19.51zm1.013-.82h2.33c.562 0 .99-.096 1.288-.285.297-.189.446-.486.446-.892 0-.412-.149-.712-.446-.902-.297-.189-.726-.283-1.287-.283h-2.422v-.821H22.6c.513 0 .912-.095 1.195-.284.284-.19.426-.473.426-.851 0-.379-.142-.663-.426-.852-.283-.189-.682-.284-1.195-.284h-2.078v5.453zm7.377-3.214h3.648v.862H27.9v-.862zm.09 3.152h4.136V100h-5.149v-7.095h5.007v.882h-3.993v5.331zm7.642.963c-.54 0-1.058-.081-1.55-.243-.494-.169-.883-.385-1.166-.649l.375-.79c.27.236.615.432 1.033.588.42.155.855.233 1.308.233.412 0 .747-.048 1.003-.142.257-.095.446-.223.568-.385a.948.948 0 00.182-.568.76.76 0 00-.243-.588 1.653 1.653 0 00-.618-.355 6.08 6.08 0 00-.831-.243 16.68 16.68 0 01-.923-.233 4.496 4.496 0 01-.84-.355 1.75 1.75 0 01-.609-.567c-.155-.243-.233-.554-.233-.933 0-.364.094-.699.284-1.003.196-.31.493-.557.892-.74.405-.189.918-.284 1.54-.284.412 0 .821.054 1.227.163.405.108.756.263 1.053.466l-.334.81a3.164 3.164 0 00-.963-.435 3.639 3.639 0 00-.983-.142c-.398 0-.726.05-.983.152-.257.101-.446.236-.567.405a.986.986 0 00-.173.568c0 .25.078.45.233.598.162.148.368.267.618.354.257.088.538.17.842.244.304.067.608.145.912.233.31.088.591.203.841.345.257.141.463.33.618.567.156.236.233.54.233.912 0 .358-.097.693-.294 1.004-.195.304-.5.55-.912.74-.405.182-.918.273-1.54.273zm5.334-.081v-6.213h-2.432v-.882h5.868v.882H41.97V100h-1.004zm-25.97 10.081a4.18 4.18 0 01-1.5-.263 3.678 3.678 0 01-1.186-.761 3.671 3.671 0 01-.78-1.155 3.623 3.623 0 01-.284-1.449c0-.527.095-1.01.284-1.45.189-.439.452-.821.79-1.145a3.472 3.472 0 011.186-.76c.46-.182.96-.274 1.5-.274.547 0 1.05.095 1.51.284.466.183.862.456 1.186.821l-.659.639a2.57 2.57 0 00-.912-.629 2.77 2.77 0 00-1.084-.213c-.4 0-.77.068-1.115.203a2.605 2.605 0 00-1.47 1.439 2.846 2.846 0 00-.203 1.085c0 .392.068.756.203 1.094a2.638 2.638 0 001.47 1.429 3.01 3.01 0 001.115.203c.385 0 .746-.067 1.084-.203a2.64 2.64 0 00.912-.648l.659.638a3.14 3.14 0 01-1.186.831c-.46.19-.966.284-1.52.284zm3.95-.081v-7.095h2.766c.622 0 1.152.098 1.591.294.44.196.777.48 1.014.852.236.371.355.814.355 1.327 0 .514-.119.956-.355 1.328a2.275 2.275 0 01-1.014.841c-.439.196-.97.294-1.591.294h-2.21l.457-.466V110h-1.014zm4.742 0l-1.804-2.574h1.085L24.793 110h-1.105zm-3.73-2.524l-.455-.496h2.179c.648 0 1.138-.139 1.47-.416.337-.284.506-.679.506-1.186 0-.506-.169-.898-.507-1.175-.33-.277-.82-.416-1.47-.416h-2.178l.456-.507v4.196zM27.72 110v-2.716l.233.628-3.05-5.007h1.084l2.564 4.227h-.588l2.575-4.227h1.003l-3.04 5.007.223-.628V110H27.72zm4.528 0v-7.095h2.767c.621 0 1.152.098 1.591.294.44.196.777.48 1.014.852.236.371.354.814.354 1.327 0 .514-.118.956-.354 1.328a2.334 2.334 0 01-1.014.851c-.44.196-.97.294-1.591.294h-2.21l.456-.476V110h-1.013zm1.013-2.524l-.456-.506h2.18c.648 0 1.138-.139 1.469-.416.338-.277.507-.669.507-1.176 0-.506-.17-.898-.507-1.175-.331-.277-.821-.416-1.47-.416h-2.179l.456-.507v4.196zm7.18 2.524v-6.213H38.01v-.882h5.868v.882h-2.432V110h-1.003zm7.441.081c-.54 0-1.043-.091-1.51-.274a3.634 3.634 0 01-1.196-.76 3.589 3.589 0 01-.79-1.155 3.598 3.598 0 01-.284-1.439c0-.521.095-1 .284-1.439.189-.44.453-.821.79-1.146a3.564 3.564 0 011.196-.77c.46-.182.963-.274 1.51-.274.54 0 1.038.092 1.49.274.46.176.858.429 1.196.76.345.324.608.706.79 1.145.19.44.285.923.285 1.45 0 .527-.095 1.01-.284 1.449a3.388 3.388 0 01-.79 1.155 3.652 3.652 0 01-1.197.761c-.453.175-.95.263-1.49.263zm0-.902c.392 0 .754-.067 1.085-.203a2.562 2.562 0 001.45-1.439c.141-.331.212-.692.212-1.084 0-.392-.07-.754-.213-1.085a2.51 2.51 0 00-.577-.861 2.49 2.49 0 00-.872-.578 2.845 2.845 0 00-1.085-.203 2.95 2.95 0 00-1.104.203 2.62 2.62 0 00-.872.578c-.25.243-.446.53-.588.861a2.846 2.846 0 00-.203 1.085c0 .392.068.753.203 1.084.142.331.338.622.588.872.25.243.54.432.872.567.337.136.706.203 1.104.203zM10.522 120v-7.095h3.182c.818 0 1.446.166 1.886.497.439.324.658.77.658 1.338 0 .385-.087.709-.263.973a1.676 1.676 0 01-.69.608c-.29.142-.604.213-.942.213l.183-.304c.405 0 .763.071 1.074.213.31.141.557.351.74.628.182.27.273.608.273 1.013 0 .609-.23 1.082-.689 1.419-.452.331-1.128.497-2.027.497h-3.385zm1.014-.821h2.33c.562 0 .99-.095 1.288-.284.297-.189.446-.486.446-.892 0-.412-.149-.712-.446-.902-.297-.189-.726-.283-1.287-.283h-2.423v-.821h2.17c.513 0 .911-.095 1.195-.284.284-.189.426-.473.426-.851 0-.379-.142-.663-.426-.852-.284-.189-.682-.284-1.196-.284h-2.077v5.453zm6.454.821v-7.095h2.767c.621 0 1.152.098 1.591.294.44.196.777.48 1.014.852.236.371.354.814.354 1.327 0 .514-.118.956-.354 1.328a2.275 2.275 0 01-1.014.841c-.44.196-.97.294-1.591.294h-2.21l.456-.466V120H17.99zm4.743 0l-1.804-2.574h1.085L23.838 120h-1.105zm-3.73-2.524l-.456-.496h2.18c.648 0 1.138-.139 1.47-.416.337-.284.506-.679.506-1.186 0-.506-.17-.898-.507-1.175-.331-.277-.82-.416-1.47-.416h-2.179l.456-.507v4.196zm9.35 2.605c-.54 0-1.043-.091-1.51-.274a3.635 3.635 0 01-1.195-.76 3.59 3.59 0 01-.79-1.155 3.598 3.598 0 01-.285-1.439c0-.521.095-1 .284-1.439.19-.44.453-.821.79-1.146a3.565 3.565 0 011.197-.77c.46-.182.962-.274 1.51-.274.54 0 1.037.092 1.49.274.46.176.858.429 1.196.76.344.324.608.706.79 1.145.19.44.284.923.284 1.45 0 .527-.095 1.01-.284 1.449a3.39 3.39 0 01-.79 1.155 3.653 3.653 0 01-1.196.761c-.453.175-.95.263-1.49.263zm0-.902c.393 0 .754-.067 1.085-.203a2.562 2.562 0 001.45-1.439c.141-.331.212-.692.212-1.084 0-.392-.07-.754-.212-1.085a2.508 2.508 0 00-.578-.861 2.489 2.489 0 00-.872-.578 2.846 2.846 0 00-1.084-.203 2.95 2.95 0 00-1.105.203 2.618 2.618 0 00-.871.578c-.25.243-.447.53-.588.861a2.846 2.846 0 00-.203 1.085c0 .392.067.753.203 1.084.142.331.338.622.588.872.25.243.54.432.871.567a2.93 2.93 0 001.105.203zm6-.892l-.051-1.236 4.023-4.146h1.156l-3.112 3.284-.567.629-1.45 1.469zM33.46 120v-7.095h1.014V120H33.46zm5.027 0l-2.908-3.385.679-.75L39.673 120h-1.186zm2.978-4.034h3.648v.862h-3.648v-.862zm.09 3.152h4.136V120h-5.149v-7.095h5.007v.882h-3.993v5.331zm5.574.882v-7.095h2.767c.622 0 1.152.098 1.591.294.44.196.777.48 1.014.852.236.371.355.814.355 1.327 0 .514-.119.956-.355 1.328a2.275 2.275 0 01-1.014.841c-.439.196-.97.294-1.59.294h-2.21l.456-.466V120h-1.014zm4.744 0l-1.804-2.574h1.084L52.977 120h-1.104zm-3.73-2.524l-.456-.496h2.179c.648 0 1.138-.139 1.47-.416.337-.284.506-.679.506-1.186 0-.506-.169-.898-.507-1.175-.33-.277-.82-.416-1.47-.416h-2.178l.456-.507v4.196zM19.695 130v-1.064l2.737-2.585c.216-.196.375-.371.476-.527.101-.155.169-.297.203-.425.04-.129.06-.247.06-.355 0-.284-.098-.5-.293-.649-.19-.155-.47-.233-.842-.233-.297 0-.574.058-.83.172-.25.115-.464.294-.64.538l-1.195-.771c.27-.405.648-.726 1.135-.962.486-.237 1.047-.355 1.682-.355.527 0 .987.088 1.379.263.398.169.706.409.922.72.223.311.334.682.334 1.115 0 .23-.03.459-.09.689a2.128 2.128 0 01-.345.709c-.17.25-.42.531-.75.842l-2.27 2.138-.315-.598h4.004V130h-5.362zm8.877.122a2.907 2.907 0 01-1.56-.426c-.46-.291-.822-.709-1.085-1.257-.264-.547-.396-1.209-.396-1.986 0-.777.132-1.439.396-1.987.263-.547.625-.963 1.084-1.246.46-.291.98-.436 1.56-.436.589 0 1.109.145 1.562.436.46.283.82.699 1.084 1.246.264.548.395 1.21.395 1.987 0 .777-.131 1.439-.395 1.986-.263.548-.625.966-1.084 1.257-.453.284-.973.426-1.561.426zm0-1.389c.277 0 .517-.078.72-.233.209-.155.371-.402.486-.74.122-.338.182-.773.182-1.307 0-.534-.06-.97-.182-1.308-.115-.338-.277-.584-.486-.74a1.15 1.15 0 00-.72-.233c-.27 0-.51.078-.72.233-.202.156-.365.402-.486.74-.115.338-.172.774-.172 1.308s.057.969.172 1.307c.121.338.284.585.486.74.21.155.45.233.72.233zM32.107 130v-1.064l2.737-2.585c.216-.196.375-.371.476-.527.101-.155.169-.297.203-.425.04-.129.06-.247.06-.355 0-.284-.098-.5-.294-.649-.189-.155-.47-.233-.84-.233-.298 0-.575.058-.832.172-.25.115-.463.294-.638.538l-1.196-.771c.27-.405.648-.726 1.135-.962.486-.237 1.047-.355 1.682-.355.527 0 .987.088 1.379.263.398.169.706.409.922.72.223.311.334.682.334 1.115 0 .23-.03.459-.09.689a2.128 2.128 0 01-.345.709c-.17.25-.42.531-.75.842l-2.27 2.138-.315-.598h4.004V130h-5.362zm5.776 0v-1.064l2.736-2.585c.216-.196.375-.371.476-.527.102-.155.17-.297.203-.425.04-.129.06-.247.06-.355 0-.284-.097-.5-.293-.649-.19-.155-.47-.233-.841-.233-.298 0-.575.058-.831.172-.25.115-.463.294-.639.538l-1.196-.771c.27-.405.649-.726 1.135-.962.487-.237 1.048-.355 1.683-.355.527 0 .986.088 1.378.263.399.169.706.409.922.72.223.311.335.682.335 1.115 0 .23-.03.459-.091.689a2.13 2.13 0 01-.345.709c-.169.25-.419.531-.75.842l-2.27 2.138-.314-.598h4.003V130h-5.361z" fill="#fff"/><defs><clipPath id="clip0_9791_299170"><path fill="#fff" transform="translate(2.943)" d="M0 0h57v75H0z"/></clipPath></defs></svg>