<svg width="24" height="24" fill="none" xmlns="http://www.w3.org/2000/svg"><path d="M21 3H3a1.553 1.553 0 00-1.5 1.598V9.66A1.552 1.552 0 003 11.25h3v8.25a2.25 2.25 0 002.25 2.25h7.5A2.25 2.25 0 0018 19.5v-8.25h3a1.552 1.552 0 001.5-1.59V4.597A1.552 1.552 0 0021 3zM7.5 19.5V7.628h5.25a.707.707 0 000 .12V20.25h-4.5a.75.75 0 01-.75-.75zm9 0a.75.75 0 01-.75.75h-3V7.627l1.5-.007h2.25V19.5zM21 9.66v.09h-3V7.628h.75a.75.75 0 100-1.5H5.25a.75.75 0 100 1.5H6V9.75H3a.135.135 0 010-.105V4.598 4.5h18a.134.134 0 010 .105V9.66z" fill="#13DA5A"/><path d="M14.45 13.379a1.418 1.418 0 00-.344-.913 1.648 1.648 0 00-.88-.53v-.426c0-.1-.042-.194-.119-.264a.427.427 0 00-.288-.11.427.427 0 00-.288.11.358.358 0 00-.12.264v.373h-.815v-.373c0-.1-.043-.194-.12-.264a.427.427 0 00-.288-.11.427.427 0 00-.288.11.358.358 0 00-.12.264v.373H9.559a.427.427 0 00-.289.11.359.359 0 00-.12.264c0 .1.044.194.12.265.077.07.18.11.289.11h.407v3.737h-.407a.427.427 0 00-.289.11.359.359 0 00-.12.264c0 .099.044.194.12.264.077.07.18.11.289.11h1.223v.373c0 .1.042.194.119.264.076.07.18.11.288.11.108 0 .212-.04.288-.11a.359.359 0 00.12-.264v-.374h.815v.374c0 .1.043.194.12.264.076.07.18.11.288.11.108 0 .212-.04.288-.11a.359.359 0 00.12-.264v-.427c.287-.066.55-.204.757-.397.208-.194.354-.436.422-.7a1.366 1.366 0 00-.036-.8 1.482 1.482 0 00-.484-.666c.176-.14.318-.311.415-.505.097-.193.148-.403.149-.616zm-.816 2.242a.717.717 0 01-.239.529.854.854 0 01-.576.219H10.78v-1.495h2.038c.216 0 .423.078.576.219.153.14.24.33.24.528zm-2.853-1.495v-1.495h2.038c.216 0 .423.079.576.219.153.14.24.33.24.529a.717.717 0 01-.24.528.854.854 0 01-.576.22H10.78z" fill="#fff"/><path fill-rule="evenodd" clip-rule="evenodd" d="M10.793 11.15a.585.585 0 01.395-.15c.149 0 .291.054.395.15a.489.489 0 01.163.36v.238h.515v-.238c0-.135.059-.264.163-.36a.585.585 0 01.395-.15c.149 0 .29.054.395.15a.489.489 0 01.163.36v.325c.335.101.63.292.848.549.242.284.373.634.375.994v.001c0 .232-.056.462-.162.673a1.622 1.622 0 01-.334.448c.186.176.326.39.41.624.1.282.113.584.039.872a1.587 1.587 0 01-.461.765c-.2.186-.445.324-.715.404v.325a.489.489 0 01-.163.36.585.585 0 01-.395.15.585.585 0 01-.395-.15.489.489 0 01-.163-.36v-.237h-.515v.237a.489.489 0 01-.163.36.585.585 0 01-.395.15.585.585 0 01-.395-.15.488.488 0 01-.162-.36v-.237H9.558a.585.585 0 01-.395-.15.489.489 0 01-.163-.36c0-.135.058-.265.163-.36a.585.585 0 01.395-.15h.257v-3.466h-.257a.585.585 0 01-.395-.15.489.489 0 01-.163-.36c0-.134.058-.264.163-.36a.585.585 0 01.395-.15h1.073v-.237c0-.135.058-.264.162-.36zm.395.122a.269.269 0 00-.181.07.229.229 0 00-.076.168v.51H9.558a.269.269 0 00-.182.069.229.229 0 00-.076.168c0 .064.028.125.076.169.049.044.114.07.182.07h.558v4.009h-.558a.269.269 0 00-.182.069.229.229 0 00-.076.169c0 .063.028.124.076.168.049.045.114.07.182.07h1.373v.51c0 .063.027.123.076.168.048.044.114.069.181.069a.27.27 0 00.182-.07.229.229 0 00.076-.168v-.51h1.116v.51c0 .064.027.124.076.169.048.044.113.069.181.069a.27.27 0 00.182-.07.23.23 0 00.076-.168v-.532l.113-.027c.26-.06.498-.184.687-.36a1.32 1.32 0 00.383-.636c.062-.24.051-.492-.032-.727a1.346 1.346 0 00-.44-.605l-.13-.103.13-.103c.16-.126.288-.282.377-.458.088-.176.134-.367.135-.56a1.29 1.29 0 00-.313-.83 1.496 1.496 0 00-.798-.48l-.112-.027v-.532A.23.23 0 0013 11.34a.27.27 0 00-.182-.069.269.269 0 00-.181.07.229.229 0 00-.076.168v.51h-1.116v-.51a.229.229 0 00-.076-.169.27.27 0 00-.182-.069zm-.557 1.223h2.188c.257 0 .502.094.683.26.181.165.283.39.283.624a.848.848 0 01-.283.624c-.18.166-.426.26-.683.26h-2.188v-1.768zm.3.272v1.223h1.888a.696.696 0 00.47-.178.588.588 0 00.195-.433.588.588 0 00-.195-.433.696.696 0 00-.47-.179h-1.888zm-.3 1.97h2.188c.257 0 .502.094.683.26.181.166.283.39.283.624a.848.848 0 01-.283.625c-.18.166-.426.259-.683.259h-2.188v-1.767zm.3.273v1.223h1.888a.696.696 0 00.47-.179.588.588 0 00.195-.433.588.588 0 00-.195-.433.696.696 0 00-.47-.178h-1.888z" fill="#fff"/></svg>